<svg width="62" height="62" viewBox="0 0 62 62" fill="none" xmlns="http://www.w3.org/2000/svg">
<circle cx="31" cy="31" r="31" fill="#EFEFEF"/>
<path d="M12.3213 24.1272L25.1466 14.7272C23.3679 13.5539 21.4198 12.6606 19.3703 12.0783C16.6595 11.3152 13.7738 10.4987 12.0152 11.986C10.5967 13.1962 10.5918 15.3348 10.5918 17.2838C10.5994 19.6722 11.1933 22.0222 12.3213 24.1272V24.1272Z" fill="#E9E9E9"/>
<path d="M12.1802 24.7397L11.9567 24.3217C10.7956 22.1567 10.1803 19.7408 10.1641 17.2839C10.1641 15.2766 10.1641 13.0019 11.7332 11.675C13.6764 10.0419 16.7467 10.9119 19.4673 11.675C21.5624 12.2656 23.5535 13.1771 25.3698 14.3774L25.8556 14.703L12.1802 24.7397ZM14.6092 11.5681C13.758 11.5198 12.9179 11.7804 12.2433 12.302C10.9705 13.3859 10.9656 15.3689 10.9656 17.2839C10.9632 19.4426 11.4622 21.5724 12.4231 23.5052L24.369 14.7565C22.7616 13.7588 21.0214 12.993 19.2001 12.4818C17.6503 12.025 16.0229 11.5681 14.6335 11.5681H14.6092Z" fill="#404040"/>
<path d="M14.8571 21.1918L21.6146 16.2391C20.6736 15.6231 19.6451 15.1529 18.5638 14.8441C17.1355 14.4407 15.6149 14.013 14.6773 14.8004C13.9243 15.4322 13.9243 16.5647 13.9243 17.5903C13.937 18.8489 14.2573 20.0853 14.8571 21.1918V21.1918Z" fill="#777777"/>
<path d="M14.721 21.809L14.4927 21.3862C13.8692 20.2128 13.5423 18.9045 13.5405 17.5756C13.5405 16.4723 13.5405 15.2281 14.4393 14.4698C15.5323 13.5415 17.2084 14.013 18.6901 14.431C19.814 14.7527 20.8822 15.2444 21.8575 15.8891L22.3433 16.2196L14.721 21.809ZM16.0764 14.7712C15.6752 14.746 15.2783 14.8668 14.9591 15.1114C14.3518 15.6315 14.3518 16.6035 14.3518 17.5756C14.3477 18.6087 14.5682 19.6303 14.9979 20.5696L20.8616 16.2682C20.0985 15.8251 19.2823 15.4805 18.4326 15.2426C17.6702 14.9868 16.8785 14.8284 16.0764 14.7712V14.7712Z" fill="#404040"/>
<path d="M51.4626 25.5464L39.0454 15.6312C40.8744 14.5254 42.8617 13.7059 44.9382 13.201C47.6782 12.5497 50.5979 11.8595 52.2885 13.4197C53.6585 14.6834 53.571 16.822 53.4933 18.7661C53.3833 21.1587 52.6858 23.4874 51.4626 25.5464V25.5464Z" fill="#E9E9E9"/>
<path d="M51.5789 26.1694L38.3164 15.5738L38.8022 15.2676C40.6695 14.1551 42.6962 13.3355 44.8116 12.8374C47.5662 12.1812 50.685 11.4376 52.5408 13.1484C54.0517 14.5434 53.9594 16.818 53.8768 18.8205C53.7591 21.2749 53.0418 23.6629 51.7878 25.7757L51.5789 26.1694ZM39.7738 15.6758L51.3409 24.9106C52.3919 23.0213 52.9874 20.9126 53.0801 18.7524C53.1578 16.8374 53.2404 14.8641 52.0113 13.722C50.481 12.3124 47.7119 12.9686 45.0351 13.6053C43.1938 14.0479 41.4231 14.7447 39.7738 15.6758V15.6758Z" fill="#404040"/>
<path d="M49.0531 22.5138L42.5093 17.2841C43.4724 16.7035 44.5196 16.2756 45.6136 16.0155C47.071 15.6704 48.5964 15.3059 49.5 16.1273C50.2239 16.7981 50.1753 17.9257 50.1364 18.9512C50.0708 20.2093 49.6989 21.4323 49.0531 22.5138Z" fill="#777777"/>
<path d="M49.1646 23.1311L41.7852 17.2355L42.271 16.9293C43.2715 16.329 44.3576 15.8849 45.4919 15.6121C46.993 15.2573 48.6885 14.8539 49.7427 15.826C50.6025 16.6231 50.554 17.8673 50.5102 18.9658C50.4526 20.2924 50.0652 21.5837 49.3832 22.7229L49.1646 23.1311ZM43.2426 17.3424L48.9265 21.882C49.3964 20.9664 49.6632 19.96 49.7087 18.9317C49.7475 17.9597 49.7864 16.9876 49.2229 16.4335C48.4941 15.7579 47.0853 16.0933 45.725 16.4335C44.8624 16.6299 44.0282 16.9353 43.2426 17.3424V17.3424Z" fill="#404040"/>
<path d="M45.312 18.2415C39.803 14.047 33.5458 13.9595 31.4763 13.9595C29.4067 13.9595 23.1301 14.0373 17.6065 18.2415C10.6789 23.5053 5.73824 34.6405 10.1396 42.8982C14.8374 51.6858 27.1672 51.6858 31.4423 51.6858C35.7174 51.6858 48.0471 51.6858 52.7449 42.8982C57.1803 34.6405 52.2396 23.5053 45.312 18.2415Z" fill="#A3A3A3"/>
<path d="M31.4616 52.0844C27.2934 52.0844 14.609 52.0844 9.79466 43.0829C5.37382 34.8203 10.1347 23.3887 17.3587 17.8964C21.1674 14.9802 25.9089 13.5221 31.4471 13.5221C36.9901 13.5221 41.7267 14.9802 45.5354 17.8964C52.7545 23.3887 57.5154 34.8154 53.0994 43.0829C48.3142 52.0844 35.6298 52.0844 31.4616 52.0844ZM31.4616 14.3581C26.1178 14.3581 21.5269 15.7676 17.859 18.5526C10.9072 23.8407 6.30171 34.8009 10.5234 42.6893C15.1045 51.2581 27.4149 51.2581 31.4616 51.2581C47.8187 51.2581 51.268 44.8084 52.3999 42.6893C56.6215 34.8009 52.0112 23.8407 45.0642 18.5526C41.4061 15.7725 36.8346 14.363 31.4616 14.3581V14.3581Z" fill="#404040"/>
<path d="M37.1445 29.3147C37.1952 28.9774 36.5222 28.5965 35.6413 28.464C34.7604 28.3315 34.0052 28.4976 33.9546 28.8348C33.9039 29.1721 34.5769 29.553 35.4577 29.6855C36.3386 29.818 37.0938 29.6519 37.1445 29.3147Z" fill="#767676"/>
<path d="M27.8028 29.575C28.674 29.3896 29.3229 28.9688 29.2519 28.6352C29.181 28.3016 28.4172 28.1815 27.5459 28.3669C26.6746 28.5524 26.0258 28.9731 26.0967 29.3068C26.1676 29.6404 26.9315 29.7605 27.8028 29.575Z" fill="#767676"/>
<path d="M31.3536 37.0901C33.1802 36.9822 34.6081 35.9976 34.5427 34.8909C34.4774 33.7842 32.9437 32.9745 31.117 33.0825C29.2904 33.1904 27.8625 34.175 27.9279 35.2817C27.9932 36.3884 29.5269 37.1981 31.3536 37.0901Z" fill="#E9E9E9"/>
<path d="M31.0293 37.503C29.1104 37.503 27.5995 36.5746 27.5218 35.2963C27.4441 33.9403 29.0132 32.7835 31.0973 32.6572C33.1815 32.5308 34.8818 33.5028 34.9838 34.854C35.0858 36.2052 33.4924 37.3717 31.4034 37.4932L31.0293 37.503ZM31.4471 33.4737H31.1508C29.5768 33.5661 28.2942 34.3729 28.3477 35.238C28.4011 36.1032 29.7662 36.7545 31.3354 36.6572C32.9045 36.56 34.1871 35.7581 34.1385 34.8929C34.0705 34.1007 32.8657 33.4834 31.4277 33.4834L31.4471 33.4737Z" fill="#404040"/>
<path d="M28.2947 32.3221H28.2704L26.1717 32.2005C26.0755 32.193 25.986 32.1481 25.9224 32.0754C25.8588 32.0027 25.8263 31.9079 25.8316 31.8114C25.8341 31.7637 25.846 31.717 25.8667 31.6739C25.8874 31.6309 25.9165 31.5924 25.9522 31.5607C25.988 31.529 26.0296 31.5048 26.0748 31.4894C26.12 31.474 26.1678 31.4678 26.2154 31.4711L28.3238 31.5926C28.4204 31.5926 28.5131 31.6311 28.5814 31.6995C28.6498 31.7679 28.6882 31.8606 28.6882 31.9574C28.6882 32.0541 28.6498 32.1468 28.5814 32.2152C28.5131 32.2836 28.4204 32.3221 28.3238 32.3221H28.2947Z" fill="#767676"/>
<path d="M34.7704 32.3221C34.6779 32.3223 34.5887 32.2872 34.521 32.224C34.4534 32.1608 34.4123 32.0741 34.4061 31.9817C34.402 31.8847 34.4357 31.79 34.5001 31.7174C34.5644 31.6448 34.6544 31.6001 34.751 31.5926L36.8594 31.4711C36.907 31.4678 36.9548 31.474 37 31.4894C37.0452 31.5048 37.0869 31.5291 37.1226 31.5607C37.1583 31.5924 37.1874 31.6309 37.2081 31.6739C37.2288 31.717 37.2407 31.7637 37.2432 31.8114C37.2465 31.8594 37.2403 31.9075 37.225 31.953C37.2097 31.9985 37.1855 32.0406 37.1539 32.0767C37.1223 32.1128 37.0839 32.1424 37.0409 32.1636C36.9978 32.1849 36.951 32.1974 36.9031 32.2005L34.7947 32.3221H34.7704Z" fill="#767676"/>
<path d="M10.9025 31.865C10.8502 31.865 10.7984 31.8547 10.7501 31.8347C10.7017 31.8147 10.6578 31.7853 10.6208 31.7483C10.0412 31.2044 9.36141 30.7785 8.61926 30.4944C7.61679 30.1179 6.53439 30.0058 5.47609 30.1687C5.4225 30.177 5.3678 30.1747 5.31512 30.1618C5.26243 30.149 5.2128 30.1259 5.16904 30.0938C5.12528 30.0618 5.08826 30.0214 5.06009 29.975C5.03192 29.9287 5.01315 29.8772 5.00486 29.8236C4.99656 29.77 4.99891 29.7153 5.01175 29.6626C5.0246 29.6099 5.0477 29.5602 5.07972 29.5164C5.11175 29.4726 5.15209 29.4356 5.19842 29.4074C5.24476 29.3792 5.29619 29.3605 5.34978 29.3522C6.54873 29.1655 7.77556 29.2928 8.91074 29.7216C9.75552 30.0429 10.5283 30.5286 11.1843 31.1505C11.2447 31.2071 11.2866 31.2806 11.3047 31.3614C11.3229 31.4421 11.3163 31.5265 11.286 31.6035C11.2556 31.6805 11.2028 31.7466 11.1344 31.7932C11.0661 31.8398 10.9853 31.8649 10.9025 31.865V31.865Z" fill="#515151"/>
<path d="M11.0384 33.353H10.9315C10.1689 33.1574 9.38998 33.0321 8.60453 32.9786C7.62089 32.9105 6.63265 32.9594 5.66054 33.1244C5.55231 33.1419 5.4416 33.1155 5.35278 33.0512C5.26395 32.9869 5.20427 32.8899 5.18688 32.7816C5.16949 32.6733 5.1958 32.5625 5.26003 32.4736C5.32426 32.3846 5.42114 32.3249 5.52937 32.3075C6.57084 32.1342 7.62902 32.0836 8.68226 32.1568C9.52026 32.2157 10.3512 32.3508 11.1647 32.5604C11.2607 32.5865 11.344 32.6465 11.3993 32.7293C11.4547 32.812 11.4783 32.912 11.4659 33.0107C11.4535 33.1095 11.4059 33.2005 11.3318 33.267C11.2577 33.3334 11.1622 33.3709 11.0627 33.3725L11.0384 33.353Z" fill="#515151"/>
<path d="M51.0984 33.0705C51.0423 33.0705 50.9868 33.0593 50.9351 33.0376C50.8834 33.0159 50.8365 32.9841 50.7972 32.9441C50.7201 32.8667 50.6768 32.7618 50.6768 32.6525C50.6768 32.5432 50.7201 32.4383 50.7972 32.3609C51.4533 31.7389 52.226 31.2533 53.0708 30.9319C54.2054 30.5007 55.4328 30.3734 56.6317 30.5625C56.6868 30.5707 56.7396 30.5899 56.787 30.6191C56.8345 30.6482 56.8755 30.6866 56.9077 30.732C56.94 30.7774 56.9627 30.8289 56.9745 30.8833C56.9864 30.9377 56.9871 30.9939 56.9767 31.0485C56.9691 31.1039 56.9503 31.1572 56.9214 31.205C56.8925 31.2528 56.8541 31.2941 56.8085 31.3265C56.763 31.3588 56.7113 31.3815 56.6567 31.3931C56.602 31.4046 56.5456 31.4048 56.4909 31.3936C55.4326 31.2283 54.3496 31.3405 53.3477 31.7193C52.6049 32.0022 51.9249 32.4283 51.3462 32.9733C51.2774 33.0335 51.1898 33.0679 51.0984 33.0705V33.0705Z" fill="#515151"/>
<path d="M56.5584 35.7588C56.5215 35.7653 56.4837 35.7653 56.4467 35.7588C55.497 35.4849 54.5189 35.3217 53.5319 35.2725C52.7433 35.2328 51.9526 35.2686 51.1708 35.3795C51.062 35.3943 50.9517 35.3653 50.8642 35.2987C50.7767 35.2321 50.7193 35.1335 50.7045 35.0245C50.6897 34.9156 50.7187 34.8051 50.7852 34.7176C50.8517 34.63 50.9502 34.5725 51.0591 34.5577C51.8911 34.4429 52.7319 34.4054 53.5707 34.4459C54.6189 34.4957 55.6575 34.6687 56.6653 34.9613C56.7649 34.9919 56.8493 35.0589 56.9015 35.1491C56.9538 35.2393 56.97 35.3459 56.9471 35.4476C56.9242 35.5343 56.8741 35.6114 56.8041 35.6674C56.7341 35.7235 56.648 35.7555 56.5584 35.7588V35.7588Z" fill="#515151"/>
<path d="M30.7574 15.8548C30.6822 15.8538 30.6086 15.8325 30.5445 15.7932C30.4804 15.7538 30.428 15.6979 30.3931 15.6312C30.0858 15.0515 29.8618 14.4314 29.7275 13.7892C29.555 12.9359 29.555 12.0567 29.7275 11.2034C29.7488 11.0958 29.8119 11.001 29.903 10.94C29.9941 10.8789 30.1057 10.8565 30.2133 10.8778C30.3209 10.8991 30.4156 10.9622 30.4767 11.0534C30.5377 11.1445 30.5601 11.2562 30.5388 11.3638C30.3858 12.1094 30.3858 12.8783 30.5388 13.6239C30.6553 14.1906 30.8533 14.7374 31.1266 15.2473C31.1765 15.3448 31.1861 15.458 31.1534 15.5625C31.1207 15.667 31.0483 15.7546 30.9517 15.8062C30.891 15.8357 30.8249 15.8523 30.7574 15.8548V15.8548Z" fill="#515151"/>
<path d="M33.2741 16.2048C33.1663 16.2049 33.0627 16.1627 32.9855 16.0873C32.9084 16.0119 32.8637 15.9093 32.8612 15.8014C32.8479 15.1065 32.882 14.4115 32.9632 13.7212C33.0735 12.7983 33.2537 11.8852 33.5025 10.9897C33.5321 10.8839 33.6025 10.7944 33.6982 10.7406C33.7938 10.6868 33.9069 10.6732 34.0126 10.7029C34.1182 10.7325 34.2078 10.803 34.2615 10.8987C34.3153 10.9944 34.3288 11.1075 34.2992 11.2132C34.0609 12.0671 33.8887 12.9381 33.7842 13.8184C33.7055 14.4633 33.673 15.113 33.6871 15.7626C33.6884 15.8168 33.679 15.8708 33.6594 15.9214C33.6398 15.972 33.6105 16.0183 33.573 16.0575C33.5356 16.0968 33.4908 16.1283 33.4412 16.1502C33.3915 16.1722 33.3381 16.1841 33.2839 16.1854L33.2741 16.2048Z" fill="#515151"/>
<path d="M31.2817 35.7898C31.7718 35.7609 32.152 35.4462 32.1307 35.0869C32.1095 34.7277 31.695 34.4599 31.2049 34.4889C30.7147 34.5178 30.3346 34.8326 30.3558 35.1918C30.377 35.5511 30.7915 35.8188 31.2817 35.7898Z" fill="#404040"/>
<path d="M16.2563 48.3511L18.5299 44.1129C20.5962 40.0976 22.9048 36.2118 25.4429 32.4771C26.0308 31.6363 26.5069 31.019 26.604 31.0676C26.7012 31.1162 26.1717 32.2779 25.9822 32.6715C24.1478 36.7124 22.6418 40.8945 21.4788 45.1773C21.1776 46.2855 20.7646 47.9672 20.4051 50.0766" fill="#E0E0E0"/>
<path d="M20.7645 50.1401L20.0455 50.0186C20.3321 48.3466 20.6964 46.6843 21.124 45.0853C22.2121 41.1032 23.5856 37.2048 25.2339 33.4203C22.9134 36.9236 20.784 40.5499 18.8552 44.2833L16.5768 48.5313L15.9355 48.1959L18.2091 43.9577C20.2602 39.9236 22.571 36.0271 25.127 32.2928C26.1861 30.7812 26.4192 30.5722 26.7739 30.7812C27.1285 30.9902 27.0119 31.3547 26.3221 32.7982V32.8566C24.4956 36.8712 22.9929 41.0254 21.8284 45.2797C21.4057 46.8545 21.0462 48.4924 20.7645 50.1401Z" fill="#515151"/>
<path d="M46.7843 48.3511L44.5107 44.1129C42.445 40.0983 40.138 36.2126 37.6025 32.4771C37.0099 31.6363 36.5338 31.019 36.4415 31.0676C36.3492 31.1162 36.8738 32.2779 37.0584 32.6715C38.8921 36.7132 40.3996 40.8951 41.5667 45.1773C41.8631 46.2855 42.276 47.9672 42.6355 50.0766" fill="#E0E0E0"/>
<path d="M42.2762 50.1399C41.9944 48.4922 41.6398 46.8543 41.2123 45.2795C40.0514 41.0197 38.5536 36.8591 36.7331 32.837V32.7835C36.0384 31.3254 35.9121 30.9754 36.2813 30.7616C36.6505 30.5477 36.8643 30.7616 37.9233 32.2731C40.4812 36.0063 42.7921 39.9029 44.8412 43.9381V43.9381L47.1148 48.1763L46.4735 48.5214L44.1902 44.3075C42.2736 40.5634 40.1506 36.9287 37.831 33.4202C39.4823 37.2035 40.8559 41.1021 41.941 45.0851C42.3733 46.6842 42.7328 48.3464 43.0195 50.0184L42.2762 50.1399Z" fill="#515151"/>
<path d="M28.7559 31.3502L25.841 31.1799C25.7868 31.1767 25.7337 31.1629 25.6848 31.1392C25.636 31.1155 25.5922 31.0823 25.5561 31.0417C25.5201 31.001 25.4923 30.9537 25.4745 30.9023C25.4567 30.8509 25.4492 30.7966 25.4524 30.7423C25.4556 30.688 25.4694 30.6349 25.4931 30.586C25.5168 30.537 25.5499 30.4933 25.5905 30.4571C25.6311 30.421 25.6784 30.3932 25.7297 30.3754C25.781 30.3576 25.8354 30.3501 25.8896 30.3533L28.8044 30.5235C28.914 30.5267 29.0177 30.5733 29.0929 30.6531C29.168 30.7329 29.2085 30.8393 29.2052 30.949C29.202 31.0586 29.1554 31.1624 29.0757 31.2377C28.996 31.3129 28.8897 31.3534 28.7802 31.3502H28.7559Z" fill="#2B2B2B"/>
<path d="M34.3089 31.3502C34.1994 31.3502 34.0944 31.3066 34.0169 31.2291C33.9395 31.1516 33.896 31.0464 33.896 30.9368C33.896 30.8272 33.9395 30.7221 34.0169 30.6445C34.0944 30.567 34.1994 30.5235 34.3089 30.5235L37.2238 30.3533C37.278 30.3501 37.3323 30.3576 37.3836 30.3754C37.435 30.3932 37.4823 30.421 37.5229 30.4571C37.5635 30.4933 37.5966 30.537 37.6203 30.586C37.644 30.6349 37.6578 30.688 37.661 30.7423C37.6642 30.7966 37.6567 30.8509 37.6389 30.9023C37.6211 30.9537 37.5933 31.001 37.5572 31.0417C37.5211 31.0823 37.4774 31.1155 37.4285 31.1392C37.3796 31.1629 37.3266 31.1767 37.2723 31.1799L34.3575 31.3502H34.3089Z" fill="#2B2B2B"/>
</svg>
