<svg width="72" height="72" viewBox="0 0 72 72" fill="none" xmlns="http://www.w3.org/2000/svg">
<path d="M36 72C55.8823 72 72 55.8823 72 36C72 16.1177 55.8823 0 36 0C16.1177 0 0 16.1177 0 36C0 55.8823 16.1177 72 36 72Z" fill="#F7F7F7"/>
<mask id="mask0_858_5211" style="mask-type:alpha" maskUnits="userSpaceOnUse" x="0" y="0" width="72" height="72">
<path d="M36 72C55.8823 72 72 55.8823 72 36C72 16.1177 55.8823 0 36 0C16.1177 0 0 16.1177 0 36C0 55.8823 16.1177 72 36 72Z" fill="#EFEFEF"/>
</mask>
<g mask="url(#mask0_858_5211)">
<path d="M13.8 18.3C10.8 20.4 13.8 28.6 15.6 30.5C17.5 32.4 24.3 22.2 24.3 22.2C24.3 22.2 17.5 15.7 13.8 18.3Z" fill="white"/>
<path d="M58.1001 18.2C61.1001 20.3 58.1001 28.5 56.3001 30.4C54.4001 32.3 47.6001 22.1 47.6001 22.1C47.6001 22.1 54.4001 15.6 58.1001 18.2Z" fill="white"/>
<path d="M27.3999 48.6C16.2999 52.4 14.3999 66.8 14.8999 73.5H57.1999C57.8999 58.2 51.2999 50.5 47.7999 48.6C45.5999 47 38.3999 44.7 27.3999 48.6Z" fill="#707070"/>
<path d="M57.1999 74H14.7999C14.4999 74 14.1999 73.8 14.1999 73.5C13.6999 66.4 15.8999 51.9 27.0999 48.1C31.9999 46.4 36.6999 45.7 40.8999 46.1C45.1999 46.5 47.4999 47.8 48.0999 48.2C51.7999 50.3 58.4999 58.2 57.6999 73.6C57.6999 73.7 57.4999 74 57.1999 74ZM15.3999 72.8H56.5999C57.0999 58.3 50.8999 50.9 47.4999 49C47.4999 49 47.4999 49 47.3999 49C45.1999 47.4 38.1999 45.4 27.4999 49.1C17.1999 52.7 15.0999 65.9 15.3999 72.8Z" fill="#707070"/>
<path d="M15.2 74C14.9 74 14.6 73.8 14.6 73.5C14.1 66.4 16.3 51.9 27.5 48C32.4 46.3 37.1 45.6 41.3 46C45.7 46.4 47.9 47.7 48.5 48.1C52.2 50.2 58.9 58.1 58.1 73.5C58.1 73.8 57.8 74.1 57.5 74.1C57.2 74.1 56.9 73.8 56.9 73.5C57.6 58.6 51.3 51.1 47.8 49.2C47.8 49.2 47.8 49.2 47.7 49.2C45.5 47.6 38.5 45.6 27.8 49.3C17.2 52.9 15.2 66.8 15.7 73.6C15.8 73.7 15.6 74 15.2 74C15.3 74 15.3 74 15.2 74Z" fill="#515151"/>
<path d="M16.5 32.4C16.5 32.4 16.4 32.4 16.5 32.4C16.3 32.4 16.1 32.3 16.1 32.2C13.8 29 12.8 26.2 12.4 24.4C12.3 24.1 12.5 23.8 12.8 23.7C13.1 23.6 13.4 23.8 13.5 24.1C13.9 25.7 14.7 28.2 16.6 31L24.6 23.1C20.3 18.5 15.7 17.3 14.2 18.5C13.6 19 13.2 20.1 13.2 21.6C13.2 21.9 12.9 22.2 12.6 22.2C12.3 22.2 12 21.9 12 21.6C12 19.8 12.5 18.4 13.4 17.7C15.6 15.9 21 17.6 25.7 22.8C25.9 23 25.9 23.4 25.7 23.6L16.9 32.4C16.8 32.3 16.6 32.4 16.5 32.4Z" fill="#515151"/>
<path d="M16.6 21.2C17.5 20.5 19.8 21.3 21.8 23.6C21.1 24.1 20.4 24.6 19.7 25.3C18.9 26 18.3 26.7 17.7 27.3C15.8 24.7 15.7 21.9 16.6 21.2Z" fill="#515151"/>
<path d="M55.4999 32.4C55.3999 32.4 55.1999 32.3 55.0999 32.2L46.2999 23.4C46.0999 23.2 46.0999 22.9 46.2999 22.6C50.9999 17.4 56.3999 15.8 58.5999 17.5C59.4999 18.2 59.9999 19.6 59.9999 21.4C59.9999 21.7 59.7999 22 59.3999 22C59.0999 22 58.7999 21.8 58.7999 21.4C58.7999 20 58.3999 18.8 57.7999 18.3C56.2999 17.1 51.6999 18.3 47.3999 22.9L55.3999 30.8C57.2999 28 58.1999 25.6 58.4999 23.9C58.5999 23.6 58.8999 23.4 59.1999 23.5C59.4999 23.6 59.6999 23.9 59.5999 24.2C59.1999 26 58.1999 28.9 55.8999 32C55.8999 32.3 55.6999 32.3 55.4999 32.4C55.5999 32.4 55.4999 32.4 55.4999 32.4Z" fill="#515151"/>
<path d="M55.4 21.2C54.5 20.5 52.2 21.3 50.2 23.6C50.9 24.1 51.5999 24.6 52.2999 25.3C53.0999 26 53.6999 26.7 54.2999 27.3C56.1999 24.7 56.3 21.9 55.4 21.2Z" fill="#515151"/>
<path d="M58.4001 35.5C58.4001 40 56.0001 44.2 52.0001 47.3C48.0001 50.4 42.4001 52.3 36.1001 52.4C29.9001 52.5 24.2001 50.6 20.2001 47.6C16.1001 44.6 13.7001 40.5 13.6001 35.9C13.6001 31.4 16.0001 27.2 20.0001 24.1C24.0001 21 29.6001 19.1 35.9001 19C42.1001 18.9 47.8001 20.8 51.8001 23.8C55.9001 26.8 58.4001 31 58.4001 35.5Z" fill="#BCBCBC"/>
<path d="M34 19.9C33.9 19.9 33.8 19.9 33.7 19.8C33.4 19.6 33.3 19.2 33.5 18.9C34.1 17.9 35.4 16.7 36.2 16.1C36.5 15.9 36.9 16 37.1 16.3C37.3 16.6 37.2 17 36.9 17.2C36.2 17.7 35 18.8 34.5 19.6C34.4 19.8 34.2 19.9 34 19.9Z" fill="#515151"/>
<path d="M36.5 19.8C36.4 19.8 36.2 19.7001 36.1 19.6001C35.8 19.4001 35.8 19.0001 36 18.7001C36.7 17.8001 38.2 16.8 39.1 16.3C39.4 16.1 39.8 16.3001 40 16.6001C40.2 16.9001 40 17.3001 39.7 17.5001C38.9 17.9001 37.6 18.8001 37 19.5001C36.9 19.7001 36.7 19.8 36.5 19.8Z" fill="#515151"/>
<path d="M35.9 52.9001C29.8 52.9001 24.1 51.1001 19.8 47.9001C15.4 44.7001 13 40.3001 13 35.7001C13 31.1 15.3 26.7 19.6 23.4C22.5 20.9 27.5 18.9 32.3 18.5C32.7 18.5 33 18.7 33 19.1C33 19.5 32.8 19.8 32.4 19.8C27.9 20.2 23.1 22.1 20.4 24.4C16.4 27.5 14.2 31.5 14.3 35.6C14.3 39.8 16.6 43.8001 20.6 46.7001C24.8 49.8001 30.3 51.4001 36.2 51.4001C42.1 51.4001 47.6 49.6001 51.7 46.4001C55.7 43.3001 57.9 39.3001 57.8 35.2001C57.8 31.0001 55.5 27 51.5 24.1C48.3 21.7 43.1 19.8001 39 19.6C38.6 19.6 38.4 19.3 38.4 18.9C38.4 18.5 38.7 18.3 39.1 18.3C43.5 18.6 48.9 20.6 52.3 23.1C56.7 26.3 59.1 30.7 59.1 35.3C59.1 39.9 56.8 44.3 52.5 47.6C48 51 42.3 52.9001 36.1 52.9001C36 52.9001 35.9 52.9001 35.9 52.9001Z" fill="#515151"/>
<path d="M43.7999 38.6C43.3999 37.5 41.3999 37.8 39.0999 38.1C38.0999 38.2 36.9999 38.4 36.2999 38.3C35.7999 38.3 35.2999 38.2 34.7999 38.2C30.4999 37.9 27.2999 37.6 26.5999 40C26.3999 40.7 26.5999 41.2 26.7999 41.4C27.2999 42 28.3999 42.2 29.7999 42.2C31.2999 42.2 33.1999 41.9 35.0999 41.6C35.3999 41.5 35.6999 41.5 35.8999 41.5C36.3999 41.4 37.3999 41.6 38.3999 41.8C40.1999 42.1 41.9999 42.4 42.7999 41.9C43.9999 41.1 44.2999 39.9 43.7999 38.6Z" fill="white"/>
<path d="M35.6001 38.9C36.5001 38.9 37.3001 38.4 37.2001 37.9C37.2001 37.4 36.5001 36.9 35.5001 36.9C34.6001 36.9 33.8001 37.4 33.9001 37.9C34.0001 38.4 34.7001 38.9 35.6001 38.9Z" fill="#515151"/>
<path d="M39.9 35.6C39.8 35.6 39.7 35.6 39.7 35.5L38 34.6C37.8 34.5 37.7 34.2 37.8 33.9C37.9 33.7 38.2 33.6 38.5 33.7L40.1 34.6C40.3 34.7 40.4 35 40.3 35.3C40.2 35.5 40 35.6 39.9 35.6Z" fill="#515151"/>
<path d="M30.5999 35.6C30.3999 35.6 30.2999 35.5 30.1999 35.4C30.0999 35.2 30.0999 34.9 30.3999 34.7L31.9999 33.8C32.1999 33.7 32.4999 33.7 32.6999 34C32.7999 34.2 32.7999 34.5 32.4999 34.7L30.8999 35.6C30.7999 35.6 30.6999 35.6 30.5999 35.6Z" fill="#515151"/>
<path d="M50.2999 65.8C48.8999 65.7 47.1999 65.6 45.9999 65.8C45.1999 65.9 45.9999 69.8 43.5999 69.6C41.2999 69.4 41.5999 67.1 41.5999 65.7C39.1999 65.6 36.8999 65.3 36.8999 61.2C36.8999 55.2 44.2999 56.2 50.2999 56.6" fill="white"/>
<path d="M43.8 70.3C43.7 70.3 43.6 70.3 43.6 70.3C41 70.1 41 67.7 41 66.3C38.9 66.1 36.3 65.6 36.3 61.2C36.3 59.6 36.8 58.3 37.8 57.4C40.1 55.2 44.6 55.5 49 55.8C49.5 55.8 49.9001 55.9 50.4001 55.9C50.8001 55.9 51 56.2 51 56.6C51 57 50.7 57.2 50.3 57.2C49.8 57.2 49.4001 57.1 48.9001 57.1C45.0001 56.8 40.6001 56.6 38.7001 58.4C38.0001 59.1 37.6 60 37.6 61.2C37.6 64.7 39.1001 64.9 41.7001 65.1C42.0001 65.1 42.3 65.4 42.3 65.7C42.3 65.8 42.3 66 42.3 66.2C42.3 68.1 42.5001 68.9 43.7001 69C44.5001 69.1 44.7 68.5 45 67C45.1 66.2 45.3 65.4 46 65.2C47.2 65 48.8001 65.1 50.4001 65.1C50.8001 65.1 51 65.4 51 65.8C51 66.2 50.7 66.4 50.3 66.4C49.3 66.3 47.5001 66.3 46.4001 66.4C46.3001 66.6 46.3 66.9 46.3 67.1C46.1 68.3 45.7 70.3 43.8 70.3Z" fill="#515151"/>
</g>
</svg>
