<svg width="62" height="62" viewBox="0 0 62 62" fill="none" xmlns="http://www.w3.org/2000/svg">
<circle cx="31" cy="31" r="31" fill="#FFE9B1"/>
<path d="M12.3184 24.1195L25.1397 14.7189C23.3583 13.547 21.4071 12.6564 19.3547 12.0782C16.641 11.3145 13.7566 10.4938 12.0422 11.9888C10.6203 13.1913 10.6203 15.3363 10.6122 17.2782C10.6145 19.6637 11.2003 22.0124 12.3184 24.1195Z" fill="#EFE8DF"/>
<path d="M12.2209 24.7289L11.9934 24.3145C10.8307 22.1507 10.217 19.7346 10.206 17.2782C10.206 15.2714 10.206 12.9964 11.7741 11.672C13.6997 10.047 16.7872 10.9083 19.509 11.672C21.6028 12.2613 23.5926 13.1713 25.4078 14.3695L25.9035 14.6945L12.2209 24.7289ZM14.6584 11.5664C13.8078 11.5157 12.9676 11.7755 12.2941 12.2976C11.0185 13.3864 11.0103 15.3607 11.0103 17.2782C11.014 19.4368 11.5203 21.5649 12.4891 23.4939L24.4084 14.7432C22.7988 13.7528 21.0598 12.99 19.241 12.4764C17.7592 11.9763 16.2189 11.6704 14.6584 11.5664Z" fill="#5B3820"/>
<path d="M14.8534 21.1864L21.6134 16.2383C20.6767 15.6168 19.6487 15.1452 18.5666 14.8407C17.1366 14.4426 15.609 14.0282 14.6909 14.792C13.9353 15.4257 13.9353 16.5551 13.9353 17.587C13.9431 18.8437 14.2583 20.0794 14.8534 21.1864Z" fill="#A8693F"/>
<path d="M14.7153 21.8039L14.4959 21.3813C13.8663 20.215 13.5316 18.9124 13.5209 17.587C13.5209 16.482 13.521 15.2388 14.4228 14.4832C15.5116 13.5488 17.1934 14.0282 18.6722 14.4426C19.7956 14.7613 20.8641 15.249 21.841 15.8889L22.3366 16.2139L14.7153 21.8039ZM16.0722 14.7676C15.6723 14.7445 15.2773 14.8656 14.9591 15.1089C14.3497 15.6207 14.3497 16.6201 14.3497 17.5464C14.3514 18.5735 14.5759 19.5881 15.0078 20.5201L20.8741 16.222C20.1077 15.78 19.2888 15.436 18.4366 15.1982C17.6699 14.9549 16.8754 14.8102 16.0722 14.7676Z" fill="#5B3820"/>
<path d="M51.4566 25.5414L39.0334 15.6207C40.8602 14.5106 42.847 13.6885 44.9241 13.1832C47.6703 12.5332 50.6116 11.8345 52.2366 13.3945C53.6097 14.662 53.5203 16.7988 53.4391 18.7488C53.3465 21.1415 52.6656 23.4745 51.4566 25.5414Z" fill="#EFE8DF"/>
<path d="M51.5784 26.1589L38.3184 15.5964L38.8303 15.2876C40.699 14.1743 42.7264 13.3524 44.8428 12.8501C47.5891 12.2001 50.7172 11.4608 52.5697 13.167C54.0809 14.5645 53.9834 16.8314 53.9022 18.8545C53.7857 21.3062 53.0686 23.6918 51.814 25.8014L51.5784 26.1589ZM39.7728 15.6695L51.3428 24.9158C52.3925 23.029 52.9852 20.9225 53.0735 18.7652C53.1547 16.8477 53.2359 14.8652 52.009 13.7358C50.4734 12.322 47.7109 12.9801 45.0297 13.6139C43.1912 14.0541 41.4222 14.7459 39.7728 15.6695Z" fill="#5B3820"/>
<path d="M49.0516 22.5026L42.5028 17.2782C43.4658 16.698 44.5128 16.2704 45.6066 16.0107C47.0528 15.6695 48.5884 15.3039 49.4822 16.1245C50.2053 16.7907 50.1566 17.9201 50.116 18.9438C50.0565 20.1991 49.6911 21.4208 49.0516 22.5026Z" fill="#A8693F"/>
<path d="M49.1653 23.1201L41.7797 17.2295L42.2916 16.9207C43.3009 16.3195 44.3972 15.8782 45.5416 15.6126C47.0366 15.2551 48.7347 14.8489 49.7909 15.8239C50.6522 16.6364 50.6034 17.8632 50.5547 18.9601C50.4902 20.2848 50.1025 21.5735 49.4253 22.7139L49.1653 23.1201ZM43.2422 17.3432L48.9297 21.8851C49.4121 20.9729 49.6894 19.9663 49.7422 18.9358C49.7422 17.9689 49.8234 16.9695 49.2466 16.4332C48.5153 15.767 47.1097 16.1001 45.7447 16.4332C44.8771 16.6352 44.0369 16.9407 43.2422 17.3432Z" fill="#5B3820"/>
<path d="M45.306 18.237C39.7972 14.0445 33.541 13.9551 31.4935 13.9551C29.446 13.9551 23.1491 14.0364 17.6241 18.237C10.6935 23.502 5.75347 34.6251 10.1735 42.8801C14.8697 51.6632 27.1954 51.6632 31.4772 51.6632C35.7591 51.6632 48.0766 51.6632 52.7728 42.8801C57.1766 34.6251 52.2366 23.4939 45.306 18.237Z" fill="#DD925F"/>
<path d="M31.461 52.0777C27.2928 52.0777 14.6097 52.0777 9.79161 43.0752C5.37161 34.8202 10.1329 23.3964 17.356 17.8877C21.1666 14.9952 25.9116 13.5245 31.461 13.5245C37.0022 13.5245 41.7391 14.9952 45.5416 17.8877C52.7647 23.3802 57.526 34.8039 53.106 43.0752C48.3122 52.0777 35.6291 52.0777 31.461 52.0777ZM31.461 14.3696C26.0985 14.3696 21.516 15.7833 17.8597 18.562C10.9047 23.8433 6.29785 34.812 10.5472 42.6852C15.1216 51.2489 27.4391 51.2489 31.4854 51.2489C47.841 51.2489 51.286 44.8058 52.4235 42.6852C56.6403 34.8039 52.0335 23.8433 45.111 18.562C41.4547 15.7833 36.8803 14.3696 31.5178 14.3696H31.461Z" fill="#5B3820"/>
<path d="M35.5397 29.6852C36.4327 29.6852 37.1566 29.4087 37.1566 29.0677C37.1566 28.7267 36.4327 28.4502 35.5397 28.4502C34.6467 28.4502 33.9228 28.7267 33.9228 29.0677C33.9228 29.4087 34.6467 29.6852 35.5397 29.6852Z" fill="#A5683D"/>
<path d="M27.6747 29.5795C28.5677 29.5795 29.2916 29.303 29.2916 28.962C29.2916 28.6209 28.5677 28.3445 27.6747 28.3445C26.7817 28.3445 26.0578 28.6209 26.0578 28.962C26.0578 29.303 26.7817 29.5795 27.6747 29.5795Z" fill="#A5683D"/>
<path d="M31.421 37.0605C33.4547 36.9404 35.0504 35.9461 34.9851 34.8397C34.9197 33.7332 33.2181 32.9336 31.1844 33.0538C29.1507 33.1739 27.555 34.1682 27.6204 35.2746C27.6857 36.3811 29.3873 37.1806 31.421 37.0605Z" fill="#EFE8DF"/>
<path d="M30.9978 37.5013C28.9016 37.5013 27.2603 36.5832 27.1872 35.3157C27.1141 34.0482 28.8122 32.7888 31.1441 32.6588C32.1162 32.5817 33.0925 32.7435 33.9878 33.1301C34.3547 33.2567 34.6794 33.4824 34.9261 33.7821C35.1727 34.0817 35.3316 34.4438 35.3853 34.8282C35.3775 35.2184 35.2618 35.5988 35.051 35.9273C34.8402 36.2557 34.5425 36.5193 34.1909 36.6888C33.3512 37.1834 32.4022 37.4625 31.4285 37.5013H30.9978ZM31.5747 33.4388H31.1928C29.2672 33.5526 27.9428 34.4707 28.0159 35.2263C28.0891 35.982 29.4541 36.7376 31.3797 36.6238C32.2165 36.5904 33.033 36.3564 33.7603 35.9413C34.2885 35.6163 34.5728 35.2101 34.5728 34.8364C34.5728 34.4626 34.2153 34.097 33.6466 33.837C32.9908 33.5657 32.2837 33.4409 31.5747 33.4713V33.4388Z" fill="#5B3820"/>
<path d="M32.8178 34.8201C32.9072 35.0557 32.2897 35.5757 31.591 35.6326C30.8922 35.6895 29.9659 35.1451 30.0228 34.8932C30.0797 34.6413 30.8353 34.6576 31.4528 34.6413C32.0703 34.6251 32.7366 34.617 32.8178 34.8201Z" fill="#5B3820"/>
<path d="M28.7553 31.3345L25.8466 31.1639C25.7861 31.1718 25.7246 31.1662 25.6665 31.1475C25.6084 31.1288 25.5551 31.0976 25.5104 31.0559C25.4658 31.0143 25.431 30.9634 25.4083 30.9067C25.3857 30.8501 25.3759 30.7891 25.3795 30.7282C25.3832 30.6672 25.4002 30.6079 25.4295 30.5543C25.4587 30.5008 25.4995 30.4544 25.5487 30.4184C25.598 30.3824 25.6546 30.3577 25.7145 30.3462C25.7744 30.3346 25.8362 30.3364 25.8953 30.3514L28.804 30.522C28.8582 30.5251 28.9111 30.539 28.9598 30.5628C29.0085 30.5867 29.0519 30.62 29.0875 30.6609C29.1231 30.7018 29.1501 30.7494 29.167 30.8009C29.1839 30.8524 29.1904 30.9068 29.1859 30.9608C29.1776 31.0671 29.1278 31.166 29.0472 31.2359C28.9667 31.3058 28.8618 31.3412 28.7553 31.3345Z" fill="#3D2616"/>
<path d="M28.2922 32.3094L26.1878 32.1876C26.1398 32.1845 26.0928 32.1719 26.0496 32.1506C26.0064 32.1293 25.9679 32.0997 25.9362 32.0634C25.9045 32.0272 25.8802 31.985 25.8649 31.9394C25.8495 31.8938 25.8433 31.8456 25.8466 31.7975C25.8487 31.7498 25.8602 31.7031 25.8807 31.6599C25.9011 31.6168 25.9299 31.5782 25.9655 31.5464C26.0011 31.5146 26.0428 31.4902 26.0879 31.4747C26.1331 31.4593 26.1808 31.453 26.2285 31.4563L28.3328 31.5863C28.3809 31.5884 28.428 31.5999 28.4716 31.6202C28.5151 31.6406 28.5543 31.6693 28.5867 31.7048C28.6192 31.7403 28.6443 31.7818 28.6607 31.827C28.6771 31.8722 28.6844 31.9202 28.6822 31.9682C28.6739 32.0644 28.6287 32.1537 28.556 32.2174C28.4832 32.281 28.3887 32.314 28.2922 32.3094Z" fill="#A5683D"/>
<path d="M34.3047 31.3344C34.1997 31.3367 34.0978 31.2982 34.0205 31.227C33.9433 31.1558 33.8966 31.0574 33.8903 30.9525C33.8858 30.8431 33.9239 30.7362 33.9967 30.6543C34.0694 30.5725 34.1712 30.5221 34.2803 30.5138L37.1891 30.3432C37.2435 30.3399 37.2981 30.3474 37.3496 30.3652C37.4011 30.383 37.4487 30.4108 37.4894 30.4471C37.5302 30.4833 37.5634 30.5272 37.5871 30.5763C37.6109 30.6254 37.6247 30.6787 37.6278 30.7331C37.6311 30.7872 37.6236 30.8413 37.6056 30.8924C37.5877 30.9435 37.5598 30.9904 37.5235 31.0305C37.4871 31.0707 37.4431 31.1031 37.3941 31.126C37.345 31.1489 37.2919 31.1617 37.2378 31.1638L34.3291 31.3344H34.3047Z" fill="#3D2616"/>
<path d="M34.7678 32.3095C34.6755 32.3079 34.587 32.2721 34.5195 32.2091C34.452 32.1461 34.4102 32.0603 34.4022 31.9683C34.3977 31.8726 34.431 31.7791 34.4948 31.7076C34.5586 31.6362 34.6479 31.5927 34.7434 31.5864L36.856 31.4564C36.9529 31.4564 37.0459 31.495 37.1145 31.5635C37.183 31.6321 37.2216 31.7251 37.2216 31.8221C37.2216 31.919 37.183 32.012 37.1145 32.0806C37.0459 32.1491 36.9529 32.1877 36.856 32.1877L34.7516 32.3095H34.7678Z" fill="#A5683D"/>
<path d="M10.8966 31.8464C10.7942 31.8488 10.695 31.8109 10.6204 31.7408C9.9453 31.0933 9.13023 30.61 8.23836 30.3283C7.34648 30.0465 6.40172 29.9737 5.47723 30.1158C5.4238 30.125 5.36903 30.1235 5.3162 30.1112C5.26338 30.099 5.21353 30.0763 5.16961 30.0445C5.12569 30.0127 5.08862 29.9724 5.06051 29.9261C5.0324 29.8797 5.01384 29.8282 5.00596 29.7745C4.99671 29.7211 4.99824 29.6664 5.01047 29.6135C5.02271 29.5607 5.04542 29.5109 5.07722 29.467C5.10903 29.423 5.14928 29.3859 5.19565 29.3578C5.24202 29.3297 5.29355 29.3111 5.3472 29.3033C6.39221 29.1324 7.46258 29.2056 8.47461 29.5171C9.48663 29.8286 10.4129 30.37 11.1809 31.0989C11.2424 31.1547 11.2853 31.2279 11.3038 31.3088C11.3224 31.3897 11.3158 31.4743 11.2848 31.5513C11.2538 31.6283 11.2 31.694 11.1306 31.7395C11.0612 31.785 10.9795 31.8081 10.8966 31.8058V31.8464Z" fill="#6D4833"/>
<path d="M11.0347 33.3414H10.9291C9.2092 32.8987 7.4157 32.8212 5.66407 33.1138C5.55578 33.1284 5.44601 33.1012 5.357 33.0379C5.26799 32.9745 5.20643 32.8797 5.18472 32.7726C5.16813 32.664 5.19446 32.5532 5.25817 32.4638C5.32187 32.3743 5.41792 32.3131 5.52596 32.2933C6.55953 32.1242 7.60887 32.0724 8.65407 32.1389C9.49362 32.1969 10.326 32.3329 11.1403 32.5451C11.2455 32.5737 11.3352 32.6426 11.39 32.7369C11.4448 32.8312 11.4602 32.9433 11.4329 33.0489C11.4079 33.1346 11.3553 33.2097 11.2833 33.2626C11.2114 33.3154 11.124 33.3431 11.0347 33.3414Z" fill="#6D4833"/>
<path d="M51.091 33.0571C51.0346 33.0574 50.9787 33.0461 50.927 33.0237C50.8752 33.0013 50.8286 32.9684 50.7903 32.927C50.7129 32.8494 50.6694 32.7442 50.6694 32.6346C50.6694 32.5249 50.7129 32.4197 50.7903 32.3421C51.5605 31.6167 52.4872 31.0782 53.4988 30.7682C54.5104 30.4583 55.5797 30.3852 56.6241 30.5546C56.6777 30.5624 56.7293 30.5809 56.7756 30.6091C56.822 30.6372 56.8622 30.6743 56.8941 30.7182C56.9259 30.7621 56.9486 30.812 56.9608 30.8648C56.973 30.9176 56.9746 30.9724 56.9653 31.0258C56.9574 31.0795 56.9389 31.131 56.9108 31.1774C56.8827 31.2237 56.8456 31.264 56.8017 31.2958C56.7577 31.3276 56.7079 31.3503 56.6551 31.3625C56.6022 31.3748 56.5475 31.3763 56.4941 31.3671C55.4381 31.2014 54.3573 31.3134 53.3578 31.692C52.6121 31.9749 51.93 32.403 51.3509 32.9514C51.2792 33.0158 51.1873 33.0532 51.091 33.0571Z" fill="#6D4833"/>
<path d="M56.5591 35.7383C56.5216 35.7467 56.4828 35.7467 56.4453 35.7383C55.4968 35.4696 54.5211 35.3088 53.5365 35.2589C52.7496 35.2209 51.9608 35.2562 51.1803 35.3645C51.1269 35.3725 51.0724 35.3698 51.02 35.3565C50.9677 35.3432 50.9185 35.3196 50.8754 35.2871C50.8323 35.2546 50.7961 35.2137 50.7689 35.167C50.7418 35.1203 50.7242 35.0687 50.7172 35.0151C50.7091 34.9613 50.7118 34.9063 50.725 34.8534C50.7382 34.8006 50.7617 34.7508 50.7941 34.707C50.8266 34.6633 50.8674 34.6263 50.9141 34.5983C50.9609 34.5703 51.0127 34.5518 51.0666 34.5439C51.8985 34.4329 52.7386 34.3949 53.5772 34.4302C54.6254 34.4857 55.664 34.6601 56.6728 34.9501C56.725 34.965 56.7735 34.9902 56.8158 35.0241C56.8581 35.0581 56.8931 35.1001 56.9189 35.1479C56.9446 35.1956 56.9605 35.2479 56.9657 35.3019C56.9709 35.3558 56.9652 35.4103 56.9491 35.462C56.9227 35.5441 56.8705 35.6154 56.8001 35.6652C56.7298 35.715 56.6452 35.7407 56.5591 35.7383Z" fill="#6D4833"/>
<path d="M30.7541 15.8482C30.679 15.8482 30.6053 15.8278 30.5409 15.7892C30.4765 15.7506 30.4238 15.6951 30.3884 15.6289C30.0818 15.048 29.8576 14.4272 29.7222 13.7845C29.5517 12.9317 29.5517 12.0535 29.7222 11.2007C29.7455 11.0948 29.8095 11.0022 29.9004 10.9429C29.9913 10.8836 30.1017 10.8623 30.2081 10.8836C30.3145 10.9049 30.4083 10.967 30.4694 11.0567C30.5304 11.1464 30.5538 11.2565 30.5347 11.3632C30.3837 12.1086 30.3837 12.8766 30.5347 13.622C30.6509 14.1888 30.8479 14.7361 31.1197 15.247C31.1714 15.3439 31.1825 15.4575 31.1505 15.5626C31.1185 15.6678 31.046 15.7559 30.949 15.8076C30.8881 15.8362 30.8213 15.8501 30.7541 15.8482Z" fill="#6D4833"/>
<path d="M33.2728 16.1977C33.1657 16.1978 33.0627 16.1564 32.9854 16.0821C32.9082 16.0079 32.8627 15.9066 32.8585 15.7996C32.8434 15.1048 32.876 14.4098 32.956 13.7196C33.0707 12.7975 33.2526 11.8851 33.5003 10.9896C33.5134 10.937 33.537 10.8877 33.5698 10.8446C33.6026 10.8015 33.6438 10.7656 33.6909 10.7389C33.7381 10.7123 33.7902 10.6956 33.844 10.6898C33.8979 10.684 33.9523 10.6892 34.0041 10.7052C34.1093 10.7338 34.199 10.8027 34.2538 10.897C34.3085 10.9913 34.3239 11.1034 34.2965 11.209C34.057 12.0638 33.8832 12.9357 33.7766 13.817C33.7033 14.467 33.6734 15.1212 33.6872 15.7752C33.6883 15.8296 33.6786 15.8837 33.6588 15.9344C33.6389 15.9851 33.6093 16.0314 33.5716 16.0706C33.5339 16.1099 33.4888 16.1412 33.4389 16.1631C33.3891 16.1849 33.3353 16.1967 33.2809 16.1977H33.2728Z" fill="#6D4833"/>
</svg>
