<svg width="72" height="72" viewBox="0 0 72 72" fill="none" xmlns="http://www.w3.org/2000/svg">
<path d="M36 72C55.8823 72 72 55.8823 72 36C72 16.1177 55.8823 0 36 0C16.1177 0 0 16.1177 0 36C0 55.8823 16.1177 72 36 72Z" fill="#F7F7F7"/>
<mask id="mask0_858_5210" style="mask-type:alpha" maskUnits="userSpaceOnUse" x="0" y="0" width="72" height="72">
<path d="M36 72C55.8823 72 72 55.8823 72 36C72 16.1177 55.8823 0 36 0C16.1177 0 0 16.1177 0 36C0 55.8823 16.1177 72 36 72Z" fill="#EFEFEF"/>
</mask>
<g mask="url(#mask0_858_5210)">
<path d="M13.9001 16.3C10.9001 18.4 13.9001 26.6 15.7001 28.5C17.5001 30.4 24.4001 20.2 24.4001 20.2C24.4001 20.2 17.7001 13.7 13.9001 16.3Z" fill="white"/>
<path d="M58.1001 16.2C61.1001 18.3 58.1001 26.5 56.3001 28.4C54.4001 30.3 47.6001 20.1 47.6001 20.1C47.6001 20.1 54.4001 13.6 58.1001 16.2Z" fill="white"/>
<path d="M27.4001 46.7C16.5001 50.5 14.6001 64.7 15.0001 71.4H57.0001C57.7001 56.2 51.1001 48.6 47.7001 46.7C45.5001 45.2 38.4001 43 27.4001 46.7Z" fill="#707070"/>
<path d="M57 72H15C14.7 72 14.5 71.8 14.4 71.5C14 64.4 16.1 50 27.3 46.2C32.2 44.5 36.8 43.8 40.9 44.2C45.2 44.5 47.4 45.9 48 46.3C51.6 48.3 58.3 56.2 57.5 71.5C57.5 71.7 57.3 72 57 72ZM15.6 70.8H56.4C56.9 56.4 50.8 49.1 47.4 47.2C47.4 47.2 47.4 47.2 47.3 47.2C45.1 45.6 38.2 43.6 27.6 47.3C17.4 50.8 15.3 63.9 15.6 70.8Z" fill="#707070"/>
<path d="M15.1999 72C14.8999 72 14.5999 71.8 14.5999 71.5C14.0999 64.4 16.1999 50.1 27.3999 46.2C32.2999 44.5 36.8999 43.8 40.9999 44.2C45.2999 44.5 47.4999 45.9 48.0999 46.3C51.6999 48.3 58.3999 56.2 57.5999 71.5C57.5999 71.8 57.2999 72.1 56.9999 72.1C56.6999 72.1 56.3999 71.8 56.3999 71.5C57.0999 56.7 50.7999 49.3 47.3999 47.4C47.3999 47.4 47.3999 47.4 47.2999 47.4C45.0999 45.8 38.1999 43.8 27.5999 47.5C17.0999 51.1 15.1999 64.8 15.5999 71.6C15.7999 71.7 15.5999 72 15.1999 72Z" fill="#515151"/>
<path d="M16.5 30.4C16.5 30.4 16.4 30.4 16.5 30.4C16.3 30.4 16.1 30.3 16.1 30.2C13.8 27 12.8 24.2 12.4 22.4C12.3 22.1 12.5 21.8 12.8 21.7C13.1 21.6 13.4 21.8 13.5 22.1C13.9 23.7 14.7 26.2 16.6 29L24.6 21.1C20.3 16.5 15.7 15.3 14.2 16.5C13.6 17 13.2 18.1 13.2 19.6C13.2 19.9 12.9 20.2 12.6 20.2C12.3 20.2 12 19.9 12 19.6C12 17.8 12.5 16.4 13.4 15.7C15.6 13.9 21 15.5 25.7 20.8C25.9 21 25.9 21.4 25.7 21.6L16.9 30.4C16.8 30.3 16.6 30.4 16.5 30.4Z" fill="#515151"/>
<path d="M16.6 19.2C17.5 18.5 19.8 19.3 21.8 21.6C21.1 22.1 20.4 22.6 19.7 23.3C18.9 24 18.3 24.7 17.7 25.3C15.8 22.7 15.7 19.9 16.6 19.2Z" fill="#515151"/>
<path d="M55.4999 30.4C55.3999 30.4 55.1999 30.3 55.0999 30.2L46.2999 21.4C46.0999 21.2 46.0999 20.9 46.2999 20.6C50.9999 15.4 56.3999 13.7 58.5999 15.5C59.4999 16.2 59.9999 17.6 59.9999 19.4C59.9999 19.7 59.7999 20 59.3999 20C59.0999 20 58.7999 19.8 58.7999 19.4C58.7999 18 58.3999 16.8 57.7999 16.3C56.2999 15.1 51.6999 16.3 47.3999 20.9L55.3999 28.8C57.2999 26 58.1999 23.5 58.4999 21.9C58.5999 21.6 58.8999 21.4 59.1999 21.5C59.4999 21.6 59.6999 21.9 59.5999 22.2C59.1999 24 58.1999 26.9 55.8999 30C55.8999 30.3 55.6999 30.4 55.4999 30.4C55.5999 30.4 55.4999 30.4 55.4999 30.4Z" fill="#515151"/>
<path d="M55.4 19.2C54.5 18.5 52.2 19.3 50.2 21.6C50.9 22.1 51.5999 22.6 52.2999 23.3C53.0999 24 53.6999 24.7 54.2999 25.3C56.1999 22.7 56.3 19.9 55.4 19.2Z" fill="#515151"/>
<path d="M58.4001 33.5C58.4001 38 56.0001 42.2 52.0001 45.3C48.0001 48.4 42.4001 50.3 36.1001 50.4C29.9001 50.5 24.2001 48.6 20.2001 45.6C16.1001 42.6 13.7001 38.4 13.6001 33.9C13.6001 29.4 16.0001 25.2 20.0001 22.1C24.0001 19 29.6001 17.1 35.9001 17C42.1001 16.9 47.8001 18.8 51.8001 21.8C55.9001 24.9 58.4001 29 58.4001 33.5Z" fill="#BCBCBC"/>
<path d="M34 17.9C33.9 17.9 33.8 17.9 33.7 17.8C33.4 17.6 33.3 17.2 33.5 16.9C34.1 15.9 35.4 14.7 36.2 14.1C36.5 13.9 36.9 14 37.1 14.3C37.3 14.6 37.2 15 36.9 15.2C36.2 15.7 35 16.8 34.5 17.6C34.4 17.8 34.2 17.9 34 17.9Z" fill="#515151"/>
<path d="M36.5 17.8C36.4 17.8 36.2 17.7 36.1 17.6C35.8 17.4 35.8 17.0001 36 16.7001C36.7 15.8001 38.2 14.8 39.1 14.3C39.4 14.1 39.8 14.3 40 14.6C40.2 14.9 40 15.3 39.7 15.5C38.9 15.9 37.6 16.8 37 17.6C36.9 17.8 36.7 17.8 36.5 17.8Z" fill="#515151"/>
<path d="M35.9 51C29.8 51 24.1 49.2001 19.8 46C15.4 42.8 13 38.4 13 33.8C13 29.2 15.3 24.8 19.6 21.5C22.5 19 27.5 17 32.3 16.5C32.7 16.5 33 16.7 33 17.1C33 17.5 32.8 17.8 32.4 17.8C27.9 18.2 23.1 20.1 20.4 22.5C16.4 25.6 14.2 29.6 14.3 33.8C14.3 38 16.6 42 20.6 45C24.8 48.1 30.3 49.8 36.2 49.7001C42.1 49.7001 47.6 47.9001 51.7 44.7001C55.7 41.6 57.9 37.6001 57.8 33.4001C57.8 29.2001 55.5 25.2001 51.5 22.2001C48.3 19.8001 43.1 17.9 39 17.6C38.6 17.6 38.4 17.3 38.4 16.9C38.4 16.5 38.7 16.3 39.1 16.3C43.5 16.6 48.9 18.6 52.3 21.1C56.7 24.3 59.1 28.7 59.1 33.3C59.1 37.9 56.8 42.3 52.5 45.6C48 49.1 42.3 51 36.1 51C36 51 35.9 51 35.9 51Z" fill="#515151"/>
<path d="M30.7999 31.6C30.1999 31.6 29.7 32.1 29.7 32.7C29.7 33.3 30.1999 33.8 30.7999 33.8C31.3999 33.8 31.9 33.3 31.9 32.7C31.9 32.1 31.3999 31.6 30.7999 31.6Z" fill="#515151"/>
<path d="M30.8001 33.9C30.5001 33.9 30.2001 33.8 30.0001 33.6C29.8001 33.4 29.7001 33.1 29.6001 32.8C29.6001 32.5 29.7001 32.2 29.9001 32C30.1001 31.8 30.4001 31.7 30.7001 31.6C31.0001 31.6 31.3001 31.7 31.5001 31.9C31.7001 32.1 31.8001 32.4 31.9001 32.7C32.0001 33.3 31.5001 33.8 30.8001 33.9ZM30.8001 31.7C30.5001 31.7 30.3001 31.8 30.1001 32C29.9001 32.2 29.8001 32.4 29.8001 32.7C29.8001 33 29.9001 33.2 30.1001 33.4C30.3001 33.6 30.5001 33.7 30.8001 33.7C31.3001 33.7 31.8001 33.2 31.8001 32.7C31.8001 32.4 31.7001 32.2 31.5001 32C31.3001 31.8 31.1001 31.7 30.8001 31.7Z" fill="#515151"/>
<path d="M40.2001 31.6C39.6001 31.6 39.1001 32.1 39.1001 32.7C39.1001 33.3 39.6001 33.8 40.2001 33.8C40.8001 33.8 41.3001 33.3 41.3001 32.7C41.3001 32.1 40.8001 31.6 40.2001 31.6Z" fill="#515151"/>
<path d="M40.2 33.9C39.6 33.9 39 33.4 39 32.7C39 32.1 39.5 31.5 40.2 31.5C40.8 31.5 41.4 32 41.4 32.7C41.4 33 41.3 33.3 41.1 33.5C40.9 33.7 40.6 33.9 40.2 33.9ZM40.2 31.7C39.7 31.7 39.2 32.2 39.2 32.7C39.2 33.2 39.6 33.7 40.2 33.7C40.5 33.7 40.7 33.6 40.9 33.4C41.1 33.2 41.2 33 41.2 32.7C41.2 32.1 40.8 31.7 40.2 31.7Z" fill="#515151"/>
<path d="M43.7999 36.6C43.3999 35.5 41.3999 35.8 39.0999 36.1C38.0999 36.2 36.9999 36.4 36.2999 36.3C35.7999 36.3 35.2999 36.2 34.7999 36.2C30.4999 35.9 27.2999 35.6 26.5999 38C26.3999 38.7 26.5999 39.2 26.7999 39.4C27.2999 40 28.3999 40.2 29.7999 40.2C31.2999 40.2 33.1999 39.9 35.0999 39.6C35.3999 39.5 35.6999 39.5 35.8999 39.5C36.3999 39.4 37.3999 39.6 38.3999 39.8C40.1999 40.1 41.9999 40.4 42.7999 39.9C43.9999 39.2 44.3999 37.9 43.7999 36.6Z" fill="white"/>
<path d="M35.6001 36.9C36.5001 36.9 37.3001 36.4 37.2001 35.9C37.2001 35.3 36.5001 34.9 35.5001 34.9C34.6001 34.9 33.8001 35.4 33.9001 35.9C34.0001 36.4 34.7001 36.9 35.6001 36.9Z" fill="#515151"/>
</g>
</svg>
