<svg width="120" height="120" viewBox="0 0 120 120" fill="none" xmlns="http://www.w3.org/2000/svg">
<path d="M100 15H30C24.5 15 20 19.5 20 25V65C20 76.05 28.95 85 40 85H70C81.05 85 90 76.05 90 65V50H100C105.5 50 110 45.5 110 40V25C110 19.5 105.5 15 100 15ZM100 40H90V25H100V40ZM15 105H95C97.75 105 100 102.75 100 100C100 97.25 97.75 95 95 95H15C12.25 95 10 97.25 10 100C10 102.75 12.25 105 15 105Z" fill="#515151"/>
<circle cx="39.75" cy="42.75" r="3.75" fill="#333333"/>
<circle cx="59.25" cy="42.75" r="3.75" fill="#333333"/>
<line x1="42.5" y1="56.5" x2="56.5" y2="56.5" stroke="#333333" stroke-width="4" stroke-linecap="round"/>
</svg>
