<svg width="375" height="56" viewBox="0 0 375 56" fill="none" xmlns="http://www.w3.org/2000/svg">
<rect width="375" height="56" fill="white"/>
<path d="M158.714 27.225V25.95H156.599V20.61H155.054V34.155H156.599V27.225H158.714ZM150.854 24.54V23.235H153.719V21.96H146.354V23.235H149.309V24.54C149.309 26.775 147.944 29.34 145.859 30.345L146.744 31.575C148.319 30.81 149.504 29.19 150.104 27.3C150.719 29.055 151.874 30.51 153.389 31.23L154.244 30.015C152.189 29.055 150.854 26.625 150.854 24.54ZM159.988 26.025L160.543 27.24C162.778 26.895 164.593 25.8 165.433 24.3C166.288 25.815 168.103 26.88 170.338 27.24L170.893 26.025C168.328 25.665 166.393 24.225 166.318 22.62H170.413V21.375H160.438V22.62H164.563C164.488 24.225 162.553 25.665 159.988 26.025ZM171.553 29.475L171.568 28.23H159.313V29.475H164.623V34.17H166.168V29.475H171.553ZM185.946 25.71V21.09H176.811V25.71H185.946ZM184.431 22.32V24.48H178.326V22.32H184.431ZM182.136 28.08H187.521V26.835H175.251V28.08H180.591V29.505H176.736V33.99H186.186V32.76H178.281V30.75H186.066V29.505H182.136V28.08ZM199.34 25.755V24.495H191.585V21.09H190.04V25.755H199.34ZM200.75 27.375H188.45V28.62H200.75V27.375ZM191.495 32.61V29.865H189.95V33.855H199.415V32.61H191.495ZM215.578 27.6V20.61H214.018V27.6H215.578ZM212.068 27.39L212.758 26.205C210.718 25.605 209.503 24.135 209.458 22.56H212.353V21.315H204.943V22.56H207.883C207.838 24.24 206.623 25.845 204.523 26.475L205.258 27.69C206.953 27.165 208.093 26.07 208.693 24.69C209.308 25.95 210.448 26.925 212.068 27.39ZM215.983 32.835H208.243V31.635H215.578V28.215H206.698V29.385H214.048V30.525H206.728V34.035H215.983V32.835ZM228.297 26.1V21.21H219.162V26.1H228.297ZM226.782 22.44V24.87H220.677V22.44H226.782ZM229.887 27.435H217.602V28.68H223.092V31.215H224.637V28.68H229.887V27.435ZM220.647 32.64V29.985H219.102V33.9H228.522V32.64H220.647Z" fill="#333333"/>
<path d="M32.6196 18.9896C32.1296 18.4996 31.3396 18.4996 30.8496 18.9896L22.5396 27.2996C22.1496 27.6896 22.1496 28.3196 22.5396 28.7096L30.8496 37.0196C31.3396 37.5096 32.1296 37.5096 32.6196 37.0196C33.1096 36.5296 33.1096 35.7396 32.6196 35.2496L25.3796 27.9996L32.6296 20.7496C33.1096 20.2696 33.1096 19.4696 32.6196 18.9896Z" fill="#333333"/>
</svg>
