<svg width="363" height="210" viewBox="0 0 363 210" fill="none" xmlns="http://www.w3.org/2000/svg">
<g clip-path="url(#clip0_389_1806)">
<path d="M34.6573 177.475C51.1101 177.475 64.4477 173.69 64.4477 169.02C64.4477 164.351 51.1101 160.566 34.6573 160.566C18.2046 160.566 4.86694 164.351 4.86694 169.02C4.86694 173.69 18.2046 177.475 34.6573 177.475Z" fill="#959595"/>
<path fill-rule="evenodd" clip-rule="evenodd" d="M20.196 163.779V167.26C20.196 168.632 26.6687 169.746 34.6574 169.746C42.6461 169.746 49.1188 168.632 49.1188 167.26V163.779H20.196Z" fill="#F6F6F6" stroke="#C4C4C4" stroke-width="3.5" stroke-linecap="round" stroke-linejoin="round"/>
<path d="M34.6574 167.618C52.8342 167.618 67.5695 163.436 67.5695 158.278C67.5695 153.12 52.8342 148.938 34.6574 148.938C16.4806 148.938 1.74536 153.12 1.74536 158.278C1.74536 163.436 16.4806 167.618 34.6574 167.618Z" fill="#F6F6F6" stroke="#C4C4C4" stroke-width="3.5" stroke-linecap="round" stroke-linejoin="round"/>
<path d="M279.493 210C295.946 210 309.283 206.215 309.283 201.546C309.283 196.876 295.946 193.091 279.493 193.091C263.04 193.091 249.703 196.876 249.703 201.546C249.703 206.215 263.04 210 279.493 210Z" fill="#959595"/>
<path fill-rule="evenodd" clip-rule="evenodd" d="M265.032 196.304V199.785C265.032 201.158 271.504 202.272 279.493 202.272C287.482 202.272 293.954 201.158 293.954 199.785V196.304H265.032Z" fill="#F6F6F6" stroke="#C4C4C4" stroke-width="3.5" stroke-linecap="round" stroke-linejoin="round"/>
<path d="M279.493 200.143C297.67 200.143 312.405 195.962 312.405 190.803C312.405 185.645 297.67 181.464 279.493 181.464C261.316 181.464 246.581 185.645 246.581 190.803C246.581 195.962 261.316 200.143 279.493 200.143Z" fill="#F6F6F6" stroke="#C4C4C4" stroke-width="3.5" stroke-linecap="round" stroke-linejoin="round"/>
<path d="M167.193 138.007C167.592 137.44 168.43 136.645 169.856 135.67C171.422 134.596 173.447 133.472 175.71 132.358C180.228 130.13 185.534 128.051 189.633 126.589C191.877 125.793 193.054 123.306 192.186 121.069L185.744 104.448C184.926 102.339 182.532 101.176 180.318 102.061C173.486 104.806 164.321 109.749 156.502 114.842C152.592 117.398 148.972 120.014 146.139 122.451C143.387 124.808 141.093 127.235 140.185 129.404C139.198 131.791 138.929 133.949 139.248 135.859C139.567 137.779 140.455 139.3 141.552 140.464C141.851 140.782 142.14 141.379 142.22 142.026C142.3 142.692 142.12 143.02 142.04 143.12C140.175 145.129 138.709 147.188 137.911 148.481C137.622 148.958 137.423 149.496 137.353 150.062C137.173 151.545 137.253 152.887 137.772 153.991C138.33 155.205 139.318 155.921 140.445 156.19C141.462 156.438 142.479 156.289 143.287 156.06C144.115 155.831 144.903 155.473 145.541 155.105L144.544 153.375L145.541 155.105C145.741 154.986 145.92 154.867 146.07 154.737L156.252 146.442C156.252 146.442 156.352 146.382 156.462 146.392C156.582 146.392 156.711 146.452 156.811 146.561C157.918 147.655 159.354 148.859 160.9 149.665C162.386 150.45 164.401 151.087 166.375 150.271C167.752 149.704 168.5 148.59 168.839 147.437C169.158 146.343 169.138 145.159 169.008 144.075C168.739 141.946 167.941 139.649 167.223 137.987L167.193 138.007Z" stroke="#7A6F64" stroke-width="3.5" stroke-linecap="round" stroke-linejoin="round"/>
<path d="M282.346 154.16C284.809 120.402 260.384 102.031 246.92 96.6997C246.511 96.5405 246.082 96.4609 245.644 96.4609H188.456C187.878 96.4609 187.3 96.6002 186.781 96.8687C156.941 112.584 155.714 140.534 159.254 154.807C159.623 156.309 161.03 157.294 162.596 157.294H278.835C280.66 157.294 282.216 155.951 282.346 154.16Z" fill="#7A6F64"/>
<path d="M74.5208 156.428L361.255 156.926" stroke="#7A6F64" stroke-width="3.5" stroke-linecap="round" stroke-linejoin="round"/>
<path d="M262.498 174.77L278.785 168.105C279.244 167.916 279.762 167.916 280.211 168.105L296.049 174.76C296.737 175.048 297.186 175.724 297.186 176.47V186.576C297.186 187.312 296.757 187.968 296.089 188.267L280.251 195.339C279.772 195.548 279.224 195.558 278.745 195.339L262.459 188.257C261.78 187.959 261.342 187.292 261.342 186.556V176.48C261.342 175.724 261.8 175.048 262.498 174.76V174.77Z" fill="#64584D" stroke="#64584D" stroke-width="0.93" stroke-linecap="round" stroke-linejoin="round"/>
<path d="M279.493 183.145L294.962 176.719C295.58 176.46 296.248 176.918 296.248 177.574V187.183C296.248 187.551 296.029 187.879 295.7 188.028L279.493 195.21L262.808 187.561C262.478 187.412 262.269 187.083 262.269 186.715V177.545C262.269 176.888 262.937 176.441 263.546 176.679L279.493 183.125V183.145Z" fill="#3C3634"/>
<path d="M279.493 183.135L263.546 176.689C262.937 176.441 262.269 176.888 262.269 177.555V186.725C262.269 187.093 262.478 187.421 262.808 187.571L279.493 195.22M279.493 183.145L294.962 176.719C295.58 176.46 296.248 176.918 296.248 177.574V187.183C296.248 187.551 296.029 187.879 295.7 188.028L279.493 195.21V183.145ZM279.493 183.135V195.21V183.135Z" stroke="#3B3634" stroke-width="0.93" stroke-linecap="round" stroke-linejoin="round"/>
<path d="M279.144 186.715L263.556 180.409C262.947 180.161 262.279 180.608 262.279 181.275V183.463C262.279 183.831 262.498 184.169 262.838 184.318L279.134 191.34C279.373 191.44 279.643 191.44 279.882 191.34L295.72 184.318C296.059 184.169 296.268 183.841 296.268 183.473V181.294C296.268 180.628 295.59 180.18 294.982 180.439L279.862 186.725C279.633 186.815 279.383 186.825 279.154 186.725L279.144 186.715Z" fill="#CAB7A6"/>
<path d="M277.307 172.177C277.679 171.686 277.283 170.762 276.421 170.113C275.56 169.463 274.56 169.335 274.188 169.826C273.816 170.317 274.213 171.241 275.074 171.89C275.936 172.539 276.935 172.668 277.307 172.177Z" fill="#809D58"/>
<path d="M277.749 171.459C278.087 171.324 278.16 170.718 277.913 170.107C277.666 169.495 277.192 169.109 276.855 169.245C276.518 169.38 276.445 169.986 276.692 170.597C276.939 171.209 277.412 171.595 277.749 171.459Z" fill="#809D58"/>
<path d="M275.888 173.462C276.802 173.437 277.534 173.078 277.523 172.661C277.511 172.244 276.761 171.926 275.847 171.95C274.933 171.975 274.201 172.334 274.213 172.751C274.224 173.168 274.974 173.487 275.888 173.462Z" fill="#809D58"/>
<path d="M284.071 174.113C284.958 175.416 283.911 177.157 282.345 177.007L277.239 176.5C275.883 176.361 275.125 174.869 275.823 173.705L278.057 169.975C278.755 168.811 280.431 168.762 281.199 169.886L284.071 174.123V174.113Z" fill="#E96262"/>
<path d="M27.7972 161.732C34.4068 161.691 39.7495 159.208 39.7304 156.187C39.7113 153.165 34.3377 150.75 27.728 150.791C21.1184 150.832 15.7757 153.315 15.7948 156.336C15.8139 159.357 21.1875 161.773 27.7972 161.732Z" fill="#D0C552"/>
<path d="M27.782 157.754C34.3916 157.712 39.7343 155.23 39.7152 152.208C39.6962 149.187 34.3225 146.771 27.7129 146.813C21.1033 146.854 15.7606 149.337 15.7797 152.358C15.7988 155.379 21.1724 157.795 27.782 157.754Z" fill="#FFF7DF"/>
<path d="M27.7469 153.775C34.3565 153.734 39.6992 151.251 39.6801 148.23C39.661 145.209 34.2874 142.793 27.6777 142.834C21.0681 142.876 15.7254 145.358 15.7445 148.38C15.7636 151.401 21.1372 153.817 27.7469 153.775Z" fill="#D0C552"/>
<path d="M28.0162 148.927C34.6249 148.809 39.9386 146.265 39.8846 143.244C39.8307 140.224 34.4296 137.87 27.8209 137.987C21.2122 138.105 15.8985 140.649 15.9524 143.669C16.0063 146.69 21.4074 149.044 28.0162 148.927Z" fill="#60251F"/>
<path d="M27.9559 144.951C34.5646 144.834 39.8782 142.29 39.8241 139.269C39.77 136.248 34.3688 133.894 27.7601 134.011C21.1514 134.128 15.8378 136.672 15.8919 139.693C15.9459 142.714 21.3472 145.068 27.9559 144.951Z" fill="#CDAC78"/>
<path d="M27.8846 140.974C34.4933 140.857 39.8069 138.313 39.7528 135.292C39.6988 132.271 34.2975 129.917 27.6888 130.034C21.0801 130.151 15.7665 132.695 15.8206 135.716C15.8746 138.737 21.2759 141.091 27.8846 140.974Z" fill="#60251F"/>
<path d="M44.7558 161.904C47.7226 161.293 49.089 155.782 47.8078 149.596C46.5265 143.409 43.0827 138.889 40.1159 139.5C37.149 140.111 35.7826 145.622 37.0639 151.809C38.3451 157.995 41.7889 162.515 44.7558 161.904Z" fill="#ED657F"/>
<path d="M48.6508 161.104C51.6176 160.493 52.9841 154.982 51.7028 148.796C50.4215 142.609 46.9777 138.089 44.0109 138.7C41.044 139.311 39.6776 144.822 40.9589 151.009C42.2402 157.196 45.6839 161.715 48.6508 161.104Z" fill="white"/>
<path d="M52.5553 160.293C55.5222 159.681 56.8886 154.171 55.6073 147.984C54.326 141.797 50.8823 137.277 47.9154 137.889C44.9486 138.5 43.5821 144.01 44.8634 150.197C46.1447 156.384 49.5885 160.904 52.5553 160.293Z" fill="#ED657F"/>
<path d="M228.27 120.621H239.789" stroke="#7A6F64" stroke-width="3.5" stroke-linecap="round" stroke-linejoin="round"/>
<path d="M71.5688 111.59H140.375C143.517 111.59 146.369 113.43 147.656 116.294L168.171 160.685C169.148 162.804 171.272 164.157 173.606 164.157H208.682C210.338 164.157 211.674 165.49 211.674 167.141V170.015C211.674 171.666 210.338 172.999 208.682 172.999H100.661C97.6292 172.999 94.8666 171.288 93.5202 168.583L67.9984 117.339C66.6819 114.693 68.6067 111.59 71.5688 111.59Z" fill="#E4E4E4" stroke="#C4C4C4" stroke-width="3.85" stroke-linecap="round" stroke-linejoin="round"/>
<path d="M107.623 137.64C108.55 137.172 110.236 137.968 111.273 138.604C112.529 137.868 114.145 137.421 115.9 137.391C117.526 137.371 119.032 137.709 120.259 138.306C121.156 137.5 122.463 136.685 123.321 136.993C123.64 137.092 123.809 137.52 123.869 138.067C123.979 139.122 123.68 140.653 123.161 141.24C123.291 141.618 123.37 142.006 123.38 142.414C123.42 145.249 120.149 147.596 116.06 147.656C111.971 147.715 108.63 145.467 108.59 142.623C108.59 142.215 108.65 141.827 108.769 141.449C107.822 140.136 106.675 138.107 107.623 137.63V137.64Z" fill="#C3C3C3"/>
<path d="M152.213 49.6629C161.479 43.0584 175.371 31.62 179.261 24.4386C172.409 14.333 150.638 -2.08863 141.642 5.73925C135.488 11.1004 136.545 44.5802 152.213 49.6629Z" fill="white"/>
<path d="M138.56 13.6068C136.695 25.6719 141.023 46.4302 152.213 49.6628C161.479 43.0584 175.371 31.6199 179.261 24.4386C173.197 15.7453 154.009 0.019954 143.706 4.44614" stroke="#7A6F64" stroke-width="3.5" stroke-linecap="round" stroke-linejoin="round"/>
<path d="M153.669 15.3573C157.988 13.8455 166.445 20.8179 169.457 24.1599C167.832 26.8554 160.571 33.2908 156.881 35.6581C152.263 31.1822 148.483 17.1676 153.669 15.3474V15.3573Z" fill="#64584D"/>
<path d="M296.069 8.26554C285.318 4.40631 266.199 15.2778 257.731 21.4048C260.175 28.1684 275.663 43.6054 283.104 50.4883C292.927 41.6857 301.574 23.3842 300.587 14.0047C300.587 14.0047 300.198 9.65805 296.069 8.26554Z" fill="white"/>
<path d="M296.069 8.26554C285.318 4.40631 266.199 15.2778 257.731 21.4048C260.175 28.1684 275.663 43.6054 283.104 50.4883C292.927 41.6857 301.564 25.6221 300.587 14.0047" stroke="#7A6F64" stroke-width="3.5" stroke-linecap="round" stroke-linejoin="round"/>
<path d="M282.505 18.5304C278.596 16.1532 268.862 21.206 265.221 23.8418C266.249 26.8158 271.993 34.6238 275.105 37.7171C280.55 34.3055 287.203 21.385 282.515 18.5304H282.505Z" fill="#64584D"/>
<path d="M216.531 6.06738C255.457 6.06738 287.013 28.437 287.013 56.0385C287.013 83.64 260.893 106.248 217.02 106.248C176.788 106.248 144.923 85.2314 146.05 56.0385C147.117 28.4569 177.605 6.06738 216.531 6.06738Z" fill="#F8AD63"/>
<path d="M170.355 18.5105C177.566 13.6864 190.631 8.32528 204.404 6.80347" stroke="#7A6F64" stroke-width="3.5" stroke-linecap="round" stroke-linejoin="round"/>
<path d="M175.651 97.784C158.636 89.6378 146.02 76.1007 146.02 56.5359C146.02 50.6078 147.446 45.4158 150.129 40.0845" stroke="#7A6F64" stroke-width="3.5" stroke-linecap="round" stroke-linejoin="round"/>
<path d="M284.829 42.969C286.335 47.2062 287.233 51.7418 287.013 56.4962C286.106 76.3096 274.596 89.8269 257.861 98.0128" stroke="#7A6F64" stroke-width="3.5" stroke-linecap="round" stroke-linejoin="round"/>
<path d="M233.925 7.59912C246.003 9.70777 255.477 13.8952 263.885 19.0177" stroke="#7A6F64" stroke-width="3.5" stroke-linecap="round" stroke-linejoin="round"/>
<path d="M213.101 7.51963C214.507 5.53033 217.549 2.86467 219.384 1.74072" stroke="#7A6F64" stroke-width="3.5" stroke-linecap="round" stroke-linejoin="round"/>
<path d="M193.546 24.8982C193.771 22.7455 191.156 20.7095 187.704 20.3508C184.253 19.992 181.272 21.4463 181.047 23.599C180.823 25.7517 183.438 27.7876 186.889 28.1464C190.341 28.5051 193.321 27.0509 193.546 24.8982Z" fill="white"/>
<path d="M222.286 23.6429C222.196 21.4845 219.314 19.8434 215.853 19.9826C212.393 20.1219 209.65 21.9918 209.74 24.1502C209.829 26.3086 212.712 27.9497 216.172 27.8105C219.643 27.6712 222.376 25.8013 222.286 23.6429Z" fill="white"/>
<path d="M184.098 92.8604C175.621 81.1534 191.798 71.8236 200.185 70.9284C204.972 70.4212 211.894 74.4296 217.569 81.8596C223.244 89.2896 210.677 96.849 204.554 99.0372C199.846 100.718 192.356 104.249 184.098 92.8505V92.8604Z" fill="white" stroke="white" stroke-width="3.85" stroke-linecap="round"/>
<path d="M201.472 82.6554C205.421 82.6554 208.623 80.3843 208.623 77.5827C208.623 74.7811 205.421 72.51 201.472 72.51C197.522 72.51 194.321 74.7811 194.321 77.5827C194.321 80.3843 197.522 82.6554 201.472 82.6554Z" fill="#64584D"/>
<path d="M186.881 57.7693V66.6117" stroke="#64584D" stroke-width="7.1" stroke-linecap="round"/>
<path d="M215.963 57.7693V66.6117" stroke="#64584D" stroke-width="7.1" stroke-linecap="round"/>
<path d="M222.515 8.1561C223.922 6.16681 226.963 3.50115 228.799 2.3772" stroke="#7A6F64" stroke-width="3.5" stroke-linecap="round" stroke-linejoin="round"/>
<path d="M250.56 120.621H224.091C221.987 120.621 220.341 122.451 220.59 124.54L224.819 161.063C225.168 164.077 227.721 166.345 230.763 166.345H243.908C246.95 166.345 249.503 164.077 249.852 161.063L254.081 124.54C254.32 122.451 252.685 120.621 250.58 120.621H250.56Z" fill="white"/>
<path d="M232.034 97.9519L230.061 98.2445C229.516 98.3254 229.14 98.8313 229.221 99.3747L234.895 137.419C234.976 137.963 235.483 138.338 236.028 138.257L238.001 137.964C238.546 137.883 238.922 137.377 238.841 136.834L233.167 98.7894C233.086 98.246 232.578 97.8711 232.034 97.9519Z" fill="#C89B73"/>
<path d="M245.404 133.452H229.187C228.599 133.452 228.13 133.969 228.2 134.556L230.773 158.298C230.853 159.054 231.501 159.631 232.259 159.631H242.342C243.11 159.631 243.748 159.054 243.828 158.298L246.401 134.556C246.461 133.969 246.002 133.452 245.414 133.452H245.404Z" fill="#64584D" stroke="#64584D" stroke-width="4.56" stroke-linecap="round" stroke-linejoin="round"/>
<path d="M250.56 120.621H224.091C221.987 120.621 220.341 122.451 220.59 124.54L224.819 161.063C225.168 164.077 227.721 166.345 230.763 166.345H243.908C246.95 166.345 249.503 164.077 249.852 161.063L254.081 124.54C254.32 122.451 252.685 120.621 250.58 120.621H250.56Z" stroke="#7A6F64" stroke-width="3.5" stroke-linecap="round" stroke-linejoin="round"/>
<path d="M253.333 131.88C253.333 131.88 239.63 129.384 238.233 140.355C236.987 150.192 249.972 152.937 258.27 153.743C259.786 153.892 261.152 152.867 261.471 151.385L265.231 133.641C265.231 133.641 266.488 129.294 261.531 127.593C258.699 126.619 254.809 126.29 253.323 131.88H253.333Z" fill="white" stroke="#7A6F64" stroke-width="3.15" stroke-linecap="round" stroke-linejoin="round"/>
</g>
<defs>
<clipPath id="clip0_389_1806">
<rect width="363" height="210" fill="white"/>
</clipPath>
</defs>
</svg>
