<svg width="220" height="200" viewBox="0 0 220 200" fill="none" xmlns="http://www.w3.org/2000/svg">
<path d="M78.2012 21.4637C78.2012 21.4637 98.3959 2.36466 106.136 7.28328C115.682 13.3685 102.108 42.9748 102.108 42.9748L78.2012 21.4637Z" fill="white"/>
<path d="M22.717 16.7265C31.5296 5.55711 42.021 -0.859163 47.2943 1.74203C53.1904 4.65063 54.7511 19.9267 46.6243 38.2375L22.717 16.7265Z" fill="white"/>
<path d="M60.6234 14.6927C60.3293 14.6951 60.0408 14.6122 59.7929 14.4539C59.5449 14.2957 59.3481 14.069 59.2264 13.8013C59.1046 13.5336 59.063 13.2363 59.1067 12.9454C59.1504 12.6545 59.2775 12.3826 59.4726 12.1625C61.6864 9.83372 64.2699 7.88682 67.1185 6.40044C67.2997 6.31297 67.4963 6.26204 67.6971 6.25055C67.8979 6.23906 68.0991 6.26724 68.289 6.33348C68.4789 6.39972 68.654 6.50273 68.8041 6.63661C68.9542 6.7705 69.0765 6.93264 69.164 7.11379C69.2515 7.29494 69.3024 7.49154 69.3139 7.69237C69.3254 7.89321 69.2972 8.09433 69.231 8.28427C69.1647 8.47421 69.0617 8.64925 68.9278 8.79938C68.7939 8.94951 68.6318 9.07181 68.4506 9.15927C65.9721 10.4702 63.7184 12.1678 61.7743 14.1882C61.6298 14.3498 61.4522 14.4785 61.2537 14.5656C61.0551 14.6526 60.8402 14.696 60.6234 14.6927Z" fill="#515151"/>
<path d="M67.2841 15.5678C67.0648 15.5651 66.8486 15.5168 66.649 15.4259C66.4495 15.335 66.2712 15.2034 66.1254 15.0396C65.8709 14.7276 65.7454 14.33 65.7747 13.9284C65.804 13.5268 65.9859 13.1516 66.283 12.8799C68.798 10.8828 71.6267 9.31657 74.6541 8.24501C74.8474 8.17438 75.0529 8.14348 75.2584 8.15416C75.4639 8.16484 75.6651 8.21688 75.85 8.30716C76.0349 8.39744 76.1997 8.52411 76.3344 8.67957C76.4692 8.83504 76.5712 9.01611 76.6344 9.21194C76.6976 9.40776 76.7205 9.61432 76.702 9.81924C76.6834 10.0242 76.6237 10.2232 76.5264 10.4045C76.4291 10.5858 76.2962 10.7456 76.1356 10.8743C75.9751 11.003 75.7902 11.098 75.5921 11.1536C72.9566 12.1037 70.4899 13.4688 68.2852 15.1973C68.0047 15.4334 67.6507 15.5644 67.2841 15.5678Z" fill="#515151"/>
<path d="M101.005 43.5265C100.639 43.5267 100.288 43.3822 100.028 43.1245L78.2012 21.4637C77.9502 21.2145 77.8046 20.8784 77.7943 20.5249C77.784 20.1714 77.9099 19.8274 78.146 19.564C89.6859 6.65268 103.212 2.64842 108.611 7.01527C110.819 8.80457 112.056 12.2492 112.08 16.7185C112.084 16.901 112.052 17.0824 111.985 17.2524C111.919 17.4224 111.819 17.5775 111.693 17.7087C111.566 17.84 111.414 17.9447 111.246 18.017C111.079 18.0892 110.899 18.1274 110.716 18.1294C110.352 18.1236 110.004 17.9779 109.744 17.7226C109.485 17.4673 109.333 17.1219 109.321 16.7579C109.321 13.1872 108.407 10.452 106.869 9.18292C103.165 6.18761 91.7116 9.09622 81.0862 20.4626L100.792 40.0583C104.475 34.9725 107.114 29.2071 108.556 23.0954C108.636 22.7379 108.854 22.4266 109.163 22.23C109.472 22.0334 109.846 21.9676 110.204 22.047C110.561 22.1264 110.872 22.3446 111.069 22.6536C111.266 22.9625 111.332 23.3369 111.252 23.6944C109.586 30.7043 106.456 37.2827 102.069 42.9984C101.95 43.1555 101.8 43.2858 101.627 43.3808C101.455 43.4759 101.264 43.5336 101.068 43.5502L101.005 43.5265Z" fill="#515151"/>
<path d="M100.627 15.9697C98.4431 14.2671 92.5944 16.1746 87.8413 21.9918C91.587 24.6097 94.9944 27.6809 97.9859 31.1354C102.731 24.5063 102.865 17.7275 100.627 15.9697Z" fill="#515151"/>
<path d="M45.505 38.0641C45.2428 38.0654 44.9856 37.9916 44.7641 37.8512L19.8399 21.913C19.6845 21.8126 19.5507 21.682 19.4464 21.529C19.3422 21.3761 19.2696 21.2038 19.233 21.0223C19.1936 20.8406 19.1929 20.6527 19.2309 20.4707C19.2689 20.2887 19.3448 20.1168 19.4537 19.9661C29.2752 5.82506 42.7068 -2.89287 48.792 0.890683C51.2355 2.36469 52.812 5.66741 53.4111 10.0973C53.4389 10.279 53.4302 10.4645 53.3854 10.6428C53.3405 10.8211 53.2605 10.9886 53.15 11.1355C53.0395 11.2825 52.9008 11.4058 52.7419 11.4984C52.583 11.5909 52.4073 11.6507 52.225 11.6744C52.0427 11.698 51.8575 11.685 51.6803 11.636C51.503 11.5871 51.3374 11.5032 51.1931 11.3893C51.0488 11.2754 50.9287 11.1339 50.8398 10.9729C50.751 10.8119 50.6953 10.6348 50.6759 10.452C50.2187 6.90495 48.9969 4.28011 47.2943 3.23175C43.2901 0.709387 31.7818 7.63801 22.5436 20.3681L45.0084 34.7298C48.086 29.2022 50.0314 23.1167 50.731 16.8289C50.7393 16.6421 50.7855 16.459 50.8668 16.2906C50.9481 16.1222 51.0627 15.9721 51.2038 15.8494C51.3449 15.7267 51.5094 15.634 51.6874 15.5768C51.8654 15.5197 52.0532 15.4993 52.2393 15.5169C52.4254 15.5346 52.606 15.5899 52.7701 15.6795C52.9342 15.7691 53.0784 15.8911 53.1939 16.0381C53.3094 16.1852 53.3938 16.3541 53.4419 16.5348C53.4901 16.7154 53.5011 16.904 53.4741 17.089C52.6744 24.2517 50.3668 31.1638 46.7031 37.3704C46.6104 37.5325 46.4857 37.674 46.3367 37.7865C46.1877 37.8989 46.0174 37.9799 45.8361 38.0246C45.7274 38.0494 45.6164 38.0627 45.505 38.0641Z" fill="#515151"/>
<path d="M41.9502 10.7436C39.5855 9.32473 34.0047 11.9259 30.0005 18.2712C31.9461 19.309 33.8281 20.4618 35.6364 21.7237C37.5662 23.0725 39.4091 24.5415 41.1541 26.1221C45.0795 18.957 44.3937 12.2176 41.9502 10.7436Z" fill="#515151"/>
<path d="M10.7044 129.169C7.95345 114.98 15.6467 98.6245 28.5738 90.1982L29.4645 88.6217C58.0067 95.9366 84.1683 84.98 93.6903 78.5874L96.1417 79.4781C110.771 77.1607 117.227 87.0216 119.474 92.2239C129.043 114.358 112.277 124.274 107.752 124.802C115.422 135.837 103.023 150.908 96.1417 157.53C96.1417 157.53 109.81 157.971 123.123 157.53C136.436 157.088 145.083 158.081 145.643 163.323C146.55 171.781 108.698 176.148 76.9796 172.719C66.496 182.966 20.3209 203.91 17.4202 196.776C15.292 191.534 34.4777 172.341 47.8857 164.372C41.5325 163.465 30.8912 148.189 27.2338 139.014C17.5463 139.96 12.9903 135.017 10.7044 129.169Z" fill="#776F66"/>
<path d="M60.0403 12.6118C64.0893 12.9498 68.0872 13.7431 71.9585 14.9765C99.8307 23.8994 109.644 39.9479 110.314 52.0238C110.984 64.0996 99.6099 75.2138 84.2235 83.9159C68.8371 92.6181 18.2163 96.3544 5.5178 70.705C-4.65049 50.2108 8.56829 31.3876 16.4507 24.5457C17.0024 23.2136 36.8582 10.6018 60.0403 12.6118Z" fill="#EEB070"/>
<path d="M104.166 176.195C92.9335 176.195 82.3711 175.407 76.6958 174.437L77.2476 171.048C92.1532 173.554 133.268 174.39 142.403 166.318C142.861 165.981 143.234 165.542 143.492 165.036C143.751 164.53 143.888 163.97 143.893 163.402C143.783 160.604 140.401 160.328 132.748 160.344H131.329C123.738 160.344 104.426 159.634 95.8579 158.767L96.1968 155.323C104.521 156.111 123.982 156.844 131.329 156.844H132.732C140.125 156.844 147.093 156.844 147.354 163.221C147.378 164.306 147.149 165.382 146.687 166.364C146.225 167.346 145.541 168.207 144.689 168.88C138.833 174.035 123.557 175.604 111.772 176.014C109.25 176.148 106.688 176.195 104.166 176.195Z" fill="#515151"/>
<path d="M45.2056 166.634C44.8524 166.633 44.5081 166.523 44.2203 166.319C33.248 158.641 26.8791 145.296 25.0503 139.321C24.9836 139.103 24.9605 138.873 24.9824 138.646C25.0043 138.419 25.0707 138.198 25.178 137.996C25.2852 137.795 25.4311 137.616 25.6073 137.471C25.7836 137.326 25.9867 137.216 26.2051 137.15C26.4235 137.083 26.6529 137.06 26.8803 137.082C27.1076 137.104 27.3284 137.17 27.5301 137.277C27.7317 137.385 27.9103 137.53 28.0555 137.707C28.2008 137.883 28.3099 138.086 28.3767 138.304C30.0951 143.893 36.0305 156.347 46.2225 163.481C46.5237 163.693 46.7498 163.995 46.8679 164.343C46.986 164.692 46.99 165.069 46.8794 165.421C46.7688 165.772 46.5492 166.079 46.2526 166.297C45.9559 166.515 45.5975 166.633 45.2293 166.634H45.2056Z" fill="#515151"/>
<path d="M20.8252 200C18.3265 200 16.4347 199.385 15.5913 197.84C11.6501 190.58 29.7796 175.58 66.9687 148.654L72.0371 144.981C72.4082 144.708 72.8724 144.594 73.3277 144.663C73.783 144.733 74.1921 144.98 74.4649 145.351C74.7377 145.722 74.8519 146.187 74.7825 146.642C74.713 147.097 74.4655 147.506 74.0944 147.779L69.026 151.452C58.1483 159.335 44.5906 169.132 34.1386 177.976C17.5855 191.96 18.3738 195.594 18.6575 196.185C19.2251 197.162 26.9971 197.194 45.702 188.57C73.1879 175.896 114.113 148.126 106.925 127.561C106.795 127.133 106.836 126.671 107.039 126.273C107.242 125.874 107.59 125.569 108.013 125.422C108.435 125.274 108.897 125.296 109.304 125.481C109.711 125.667 110.03 126.002 110.196 126.418C118.417 149.962 74.4412 179.624 44.7719 192.788C37.8354 195.854 27.2966 200 20.8252 200Z" fill="#515151"/>
<path d="M52.5362 92.5552C45.8591 92.4967 39.1997 91.8584 32.6331 90.6476C28.6919 89.9776 18.6655 87.5971 10.389 79.8645C2.59332 72.5733 -0.930112 62.7755 0.204953 51.5273C1.32536 40.4677 6.69456 30.2747 15.1815 23.0955C17.7619 20.8637 20.6436 19.0063 23.7418 17.5778C33.4297 12.7888 44.1367 10.4271 54.9403 10.6965H56.1305C56.5936 10.7111 57.0319 10.9091 57.349 11.2469C57.666 11.5847 57.836 12.0346 57.8213 12.4976C57.8067 12.9607 57.6087 13.3989 57.2709 13.716C56.9332 14.0331 56.4832 14.203 56.0202 14.1884H54.8851C44.8824 13.9385 34.9614 16.0475 25.9252 20.3445C25.8135 20.4279 25.6917 20.4968 25.5626 20.5495C22.5932 21.8719 19.8381 23.6308 17.3886 25.7676C9.60579 32.3661 4.68162 41.7229 3.64956 51.8741C2.53026 62.9568 7.50405 82.8756 33.2164 87.2345C44.3621 89.1263 78.2643 94.8726 102.053 68.2143C108.359 59.9378 109.148 55.6025 108.493 49.667C107.201 38.3085 96.8589 29.6064 90.8131 25.4208C88.1271 23.5641 85.3021 21.9171 82.3632 20.4943H82.308L82.2449 20.4549C79.465 18.9821 76.5376 17.8064 73.5112 16.9472C73.0712 16.8187 72.7002 16.5205 72.4799 16.1185C72.2597 15.7164 72.2082 15.2433 72.3367 14.8032C72.4653 14.3632 72.7634 13.9922 73.1655 13.7719C73.5676 13.5517 74.0407 13.5002 74.4808 13.6287C77.7407 14.5464 80.8952 15.804 83.8923 17.3808C86.9831 18.8805 89.9531 20.6172 92.7758 22.5753C99.3182 27.0919 110.488 36.5586 111.93 49.2729C112.718 56.0439 111.796 61.1675 104.765 70.3662L104.686 70.4687C88.543 88.5903 68.1276 92.5552 52.5362 92.5552Z" fill="#515151"/>
<path d="M28.2662 43.5976C29.7463 43.5976 30.9462 42.3977 30.9462 40.9176C30.9462 39.4374 29.7463 38.2375 28.2662 38.2375C26.7861 38.2375 25.5862 39.4374 25.5862 40.9176C25.5862 42.3977 26.7861 43.5976 28.2662 43.5976Z" fill="#515151"/>
<path d="M52.347 43.5976C53.8271 43.5976 55.027 42.3977 55.027 40.9176C55.027 39.4374 53.8271 38.2375 52.347 38.2375C50.8669 38.2375 49.667 39.4374 49.667 40.9176C49.667 42.3977 50.8669 43.5976 52.347 43.5976Z" fill="#515151"/>
<path d="M95.8341 111.828C95.4437 111.828 95.0617 111.715 94.7343 111.502C94.4069 111.289 94.1482 110.986 93.9896 110.63C90.5844 102.857 92.6654 79.8409 92.7521 78.8635C92.7618 78.59 92.8272 78.3215 92.9444 78.0742C93.0615 77.827 93.2279 77.6063 93.4333 77.4256C93.6388 77.2449 93.8789 77.108 94.1391 77.0234C94.3993 76.9388 94.674 76.9081 94.9464 76.9334C95.2188 76.9586 95.4832 77.0392 95.7234 77.1703C95.9636 77.3013 96.1745 77.4799 96.3432 77.6953C96.5119 77.9107 96.6349 78.1583 96.7046 78.4228C96.7742 78.6874 96.7892 78.9634 96.7485 79.2339C95.8972 88.4248 95.4479 103.945 97.6707 109.014C97.8829 109.502 97.8934 110.054 97.6999 110.551C97.5065 111.047 97.1249 111.446 96.6381 111.662C96.3839 111.771 96.1105 111.827 95.8341 111.828Z" fill="#515151"/>
<path d="M32.0893 125.054C31.7335 125.055 31.3839 124.962 31.0764 124.783C30.7688 124.604 30.5144 124.347 30.3394 124.037C26.6662 117.519 24.0335 97.9387 27.6278 88.5665C27.7177 88.3127 27.8576 88.0796 28.0393 87.881C28.221 87.6823 28.4408 87.5222 28.6855 87.4101C28.9303 87.298 29.195 87.2362 29.4641 87.2284C29.7332 87.2206 30.0011 87.2669 30.252 87.3646C30.5028 87.4623 30.7315 87.6094 30.9244 87.7971C31.1173 87.9849 31.2706 88.2095 31.375 88.4576C31.4795 88.7057 31.533 88.9723 31.5325 89.2415C31.532 89.5107 31.4774 89.777 31.372 90.0247C28.219 98.12 30.6704 116.407 33.8392 122.027C34.0116 122.332 34.101 122.677 34.0983 123.028C34.0956 123.378 34.001 123.722 33.8238 124.025C33.6467 124.327 33.3932 124.578 33.0888 124.751C32.7844 124.925 32.4398 125.016 32.0893 125.015V125.054Z" fill="#515151"/>
<path d="M171.166 75.1033H127.372C126.849 75.1033 126.348 74.8957 125.978 74.5261C125.609 74.1566 125.401 73.6553 125.401 73.1327C125.401 72.6101 125.609 72.1088 125.978 71.7393C126.348 71.3697 126.849 71.1621 127.372 71.1621H171.166C171.689 71.1621 172.19 71.3697 172.56 71.7393C172.929 72.1088 173.137 72.6101 173.137 73.1327C173.137 73.6553 172.929 74.1566 172.56 74.5261C172.19 74.8957 171.689 75.1033 171.166 75.1033Z" fill="#515151"/>
<path d="M196.327 59.055H152.524C152.002 59.055 151.5 58.8474 151.131 58.4778C150.761 58.1082 150.554 57.607 150.554 57.0844C150.554 56.5617 150.761 56.0605 151.131 55.6909C151.5 55.3214 152.002 55.1138 152.524 55.1138H196.327C196.849 55.1138 197.351 55.3214 197.72 55.6909C198.09 56.0605 198.297 56.5617 198.297 57.0844C198.297 57.607 198.09 58.1082 197.72 58.4778C197.351 58.8474 196.849 59.055 196.327 59.055Z" fill="#515151"/>
<path d="M217.089 123.273H152.524C152.002 123.273 151.5 123.065 151.131 122.696C150.761 122.326 150.554 121.825 150.554 121.302C150.554 120.78 150.761 120.278 151.131 119.909C151.5 119.539 152.002 119.332 152.524 119.332H217.089C217.612 119.332 218.113 119.539 218.482 119.909C218.852 120.278 219.06 120.78 219.06 121.302C219.06 121.825 218.852 122.326 218.482 122.696C218.113 123.065 217.612 123.273 217.089 123.273Z" fill="#515151"/>
<path d="M25.5547 140.519C24.7644 140.52 23.9747 140.473 23.19 140.377C15.5756 139.447 8.04006 133.717 8.37112 122.997C8.94653 104.213 18.1847 95.7001 28.416 87.9517C28.5954 87.7959 28.8048 87.6786 29.0313 87.6071C29.2578 87.5356 29.4966 87.5113 29.7329 87.5359C29.9692 87.5605 30.1979 87.6334 30.4048 87.75C30.6118 87.8667 30.7926 88.0246 30.936 88.214C31.0794 88.4033 31.1823 88.6202 31.2384 88.851C31.2946 89.0818 31.3027 89.3217 31.2623 89.5558C31.2218 89.7899 31.1338 90.0132 31.0035 90.2118C30.8732 90.4104 30.7035 90.5802 30.5049 90.7105C20.9672 97.9387 12.3754 105.845 11.8315 123.107C11.5477 132.219 17.9955 136.255 23.6078 136.941C28.3845 137.524 33.713 135.837 34.6431 131.494C35.0924 129.437 34.919 127.876 34.1308 126.859C33.1455 125.582 31.2774 125.235 29.8743 125.172C29.4685 125.155 29.0816 124.996 28.7817 124.722C28.4819 124.448 28.2882 124.077 28.2348 123.675C28.1875 123.257 28.1717 122.8 28.1638 122.311C28.1165 119.702 27.7855 119.402 27.0997 119.355C24.8926 119.245 24.3172 122.059 24.1753 123.761C24.1179 124.204 23.8919 124.608 23.5443 124.888C23.1968 125.168 22.7545 125.304 22.3096 125.266C21.8647 125.229 21.4515 125.021 21.1559 124.686C20.8603 124.352 20.7052 123.916 20.7228 123.47C21.1327 118.591 23.6393 115.682 27.3046 115.903C31.2458 116.131 31.569 119.915 31.6163 121.878C33.6727 122.122 35.5558 123.15 36.8739 124.747C38.3085 126.607 38.6947 129.121 38.0326 132.219C36.9921 137.248 31.8922 140.519 25.5547 140.519Z" fill="#515151"/>
<path d="M102.306 127.34C99.6401 127.442 97.034 126.535 95.0066 124.802C91.0654 121.176 90.7422 117.976 91.16 115.926C91.4607 114.728 92.005 113.604 92.759 112.625C93.513 111.646 94.4606 110.832 95.5426 110.235C94.9948 109.144 94.7062 107.941 94.6992 106.72C94.6755 105.99 94.8034 105.262 95.0747 104.584C95.346 103.906 95.7549 103.291 96.2757 102.779C96.7535 102.325 97.3257 101.984 97.9513 101.778C98.5768 101.572 99.2402 101.507 99.8937 101.588C103.094 101.982 105.719 105.466 106.696 106.948C106.926 107.332 106.999 107.789 106.9 108.225C106.801 108.661 106.537 109.042 106.164 109.289C105.791 109.535 105.337 109.627 104.897 109.546C104.457 109.466 104.065 109.218 103.803 108.856C102.408 106.743 100.65 105.167 99.4759 105.025C99.3204 105.003 99.1618 105.018 99.0136 105.071C98.8654 105.123 98.732 105.21 98.6246 105.325C98.2875 105.72 98.1204 106.233 98.1596 106.751C98.1645 107.833 98.585 108.871 99.334 109.652C99.5537 109.854 99.7173 110.109 99.8088 110.393C99.9004 110.677 99.9168 110.98 99.8565 111.272C99.7961 111.564 99.6611 111.836 99.4645 112.06C99.268 112.285 99.0166 112.454 98.735 112.553C97.0008 113.168 94.9435 114.712 94.5494 116.644C94.1159 118.772 95.8343 120.884 97.3556 122.28C99.7203 124.439 104.331 124.439 108.872 122.28C114.831 119.442 120.955 112.671 120.293 102.187C119.868 95.2981 117.369 89.875 112.884 86.0757C108.091 82.1771 101.976 80.2845 95.8185 80.7945C95.585 80.8323 95.3463 80.8219 95.1171 80.764C94.8878 80.706 94.6728 80.6019 94.4852 80.4578C94.2977 80.3137 94.1416 80.1328 94.0266 79.9262C93.9115 79.7196 93.84 79.4916 93.8163 79.2563C93.7926 79.0211 93.8173 78.7834 93.8888 78.558C93.9604 78.3326 94.0773 78.1242 94.2323 77.9457C94.3873 77.7671 94.5773 77.6221 94.7904 77.5197C95.0035 77.4172 95.2354 77.3595 95.4717 77.3499C102.566 76.727 109.622 78.9119 115.122 83.4351C120.356 87.8729 123.257 94.1079 123.754 101.967C124.542 114.176 117.337 122.075 110.354 125.401C107.847 126.632 105.098 127.294 102.306 127.34Z" fill="#515151"/>
<path d="M26.8712 60.2924C28.6211 54.6802 36.9607 55.9965 49.2887 56.8872C54.0182 57.2262 65.2742 54.018 66.4802 56.8872C67.0574 58.0639 67.1677 59.4154 66.7889 60.6701C66.4102 61.9247 65.5705 62.9895 64.4387 63.6503C61.7429 65.4239 51.614 62.2078 48.2561 62.6493C44.7012 63.1143 24.6799 67.3077 26.8712 60.2924Z" fill="#FFFFFD"/>
<path d="M33.6894 65.3449C30.3157 65.3449 27.6909 64.8168 26.4454 63.3822C26.055 62.9188 25.7968 62.3585 25.6983 61.7605C25.5998 61.1626 25.6646 60.5491 25.8858 59.9849C27.7066 54.1677 35.2422 54.7589 45.6706 55.5786C46.8608 55.6732 48.0905 55.7678 49.3596 55.8545C51.6074 55.8605 53.8517 55.6732 56.0675 55.2949C61.5852 54.5618 66.354 53.9312 67.426 56.4851C68.0975 57.8812 68.2224 59.478 67.776 60.9615C67.3297 62.445 66.3444 63.7078 65.014 64.5015C63.0592 65.81 58.8894 65.1006 54.4674 64.3439C52.1026 63.934 49.5803 63.5083 48.39 63.666C47.9801 63.7211 47.3417 63.8236 46.5377 63.9576C42.2965 64.7467 38.0012 65.2105 33.6894 65.3449ZM27.8485 60.6155C27.5884 61.451 27.8485 61.8373 27.9983 62.0501C30.1975 64.5882 42.2418 62.6018 46.1987 61.9476C47.0343 61.8057 47.6964 61.7033 48.122 61.6402C49.6197 61.4431 52.0632 61.8609 54.8142 62.3338C58.1011 62.8935 62.5941 63.666 63.8711 62.8147C64.7994 62.2803 65.4886 61.4115 65.7978 60.3859C66.1069 59.3603 66.0127 58.2554 65.5342 57.297C65.0692 56.1935 59.3939 56.9423 56.3434 57.3522C53.9999 57.7502 51.6262 57.9428 49.2492 57.9276L45.5445 57.6438C34.7771 56.7531 29.1176 56.5403 27.8485 60.5997V60.6155Z" fill="white"/>
<path d="M40.082 57.1945C42.546 57.1945 44.5435 55.8958 44.5435 54.2938C44.5435 52.6918 42.546 51.3931 40.082 51.3931C37.6181 51.3931 35.6206 52.6918 35.6206 54.2938C35.6206 55.8958 37.6181 57.1945 40.082 57.1945Z" fill="#515151"/>
</svg>
