<svg width="118" height="39" viewBox="0 0 118 39" fill="none" xmlns="http://www.w3.org/2000/svg">
<path d="M11.9926 30.3943C9.9216 30.3943 8.05527 29.9678 6.39364 29.1146C4.75609 28.2372 3.46772 27.0306 2.52854 25.495C1.61343 23.9593 1.15588 22.2165 1.15588 20.2665C1.15588 18.3165 1.61343 16.5737 2.52854 15.0381C3.46772 13.5025 4.75609 12.3081 6.39364 11.455C8.05527 10.5775 9.9216 10.1387 11.9926 10.1387C14.0396 10.1387 15.8216 10.5775 17.3387 11.455C18.88 12.3081 19.9998 13.539 20.6981 15.1478L16.3273 17.5243C15.3159 15.7206 13.8589 14.8187 11.9565 14.8187C10.4875 14.8187 9.27139 15.3062 8.30813 16.2812C7.34486 17.2562 6.86323 18.5846 6.86323 20.2665C6.86323 21.9484 7.34486 23.2768 8.30813 24.2518C9.27139 25.2268 10.4875 25.7143 11.9565 25.7143C13.883 25.7143 15.34 24.8125 16.3273 23.0087L20.6981 25.4218C19.9998 26.9818 18.88 28.2006 17.3387 29.0781C15.8216 29.9556 14.0396 30.3943 11.9926 30.3943Z" fill="white"/>
<path d="M43.4186 10.4312V30.1018H38.0363V27.835C36.6396 29.5412 34.6168 30.3943 31.9678 30.3943C30.1376 30.3943 28.4759 29.98 26.9829 29.1512C25.5139 28.3225 24.358 27.1403 23.5151 25.6046C22.6723 24.069 22.2508 22.2896 22.2508 20.2665C22.2508 18.2434 22.6723 16.464 23.5151 14.9284C24.358 13.3928 25.5139 12.2106 26.9829 11.3818C28.4759 10.5531 30.1376 10.1387 31.9678 10.1387C34.4482 10.1387 36.3868 10.9309 37.7835 12.5153V10.4312H43.4186ZM32.9431 25.7143C34.3639 25.7143 35.5439 25.2268 36.4831 24.2518C37.4223 23.2525 37.8919 21.924 37.8919 20.2665C37.8919 18.609 37.4223 17.2928 36.4831 16.3178C35.5439 15.3184 34.3639 14.8187 32.9431 14.8187C31.4982 14.8187 30.3061 15.3184 29.367 16.3178C28.4278 17.2928 27.9582 18.609 27.9582 20.2665C27.9582 21.924 28.4278 23.2525 29.367 24.2518C30.3061 25.2268 31.4982 25.7143 32.9431 25.7143Z" fill="white"/>
<path d="M54.1264 10.87H59.1113V15.2575H54.2708V30.1018H48.6357V9.99246C48.6357 7.74996 49.2859 5.97059 50.5864 4.65434C51.9108 3.33809 53.7651 2.67996 56.1492 2.67996C56.9921 2.67996 57.7868 2.77746 58.5333 2.97246C59.3039 3.14309 59.9421 3.39902 60.4478 3.74027L58.9668 7.87184C58.3166 7.40871 57.558 7.17715 56.6911 7.17715C54.9813 7.17715 54.1264 8.12777 54.1264 10.029V10.87Z" fill="white"/>
<path d="M71.477 25.824C72.4884 25.824 73.3794 25.6778 74.1501 25.3853C74.9447 25.0684 75.6792 24.5809 76.3535 23.9228L79.3517 27.2134C77.5215 29.334 74.8484 30.3943 71.3325 30.3943C69.1411 30.3943 67.2025 29.9678 65.5168 29.1146C63.8311 28.2372 62.5307 27.0306 61.6156 25.495C60.7005 23.9593 60.2429 22.2165 60.2429 20.2665C60.2429 18.3409 60.6884 16.6103 61.5794 15.0746C62.4945 13.5146 63.7347 12.3081 65.3 11.455C66.8894 10.5775 68.6715 10.1387 70.6462 10.1387C72.5005 10.1387 74.1862 10.5409 75.7033 11.3453C77.2205 12.1253 78.4245 13.2709 79.3156 14.7821C80.2307 16.269 80.6882 18.0362 80.6882 20.0837L66.3115 22.899C66.7209 23.874 67.359 24.6053 68.226 25.0928C69.117 25.5803 70.2007 25.824 71.477 25.824ZM70.6462 14.4531C69.2254 14.4531 68.0694 14.9162 67.1784 15.8425C66.2874 16.7687 65.8178 18.0484 65.7696 19.6815L75.2337 17.8168C74.9688 16.7931 74.427 15.9765 73.6082 15.3671C72.7894 14.7578 71.8021 14.4531 70.6462 14.4531Z" fill="white"/>
<path d="M84.476 10.4312H90.1111V30.1018H84.476V10.4312ZM87.2935 7.68902C86.258 7.68902 85.4152 7.38434 84.765 6.77496C84.1148 6.16559 83.7897 5.40996 83.7897 4.50809C83.7897 3.60621 84.1148 2.85059 84.765 2.24121C85.4152 1.63184 86.258 1.32715 87.2935 1.32715C88.3291 1.32715 89.1719 1.61965 89.8221 2.20465C90.4723 2.78965 90.7974 3.5209 90.7974 4.3984C90.7974 5.34902 90.4723 6.14121 89.8221 6.77496C89.1719 7.38434 88.3291 7.68902 87.2935 7.68902Z" fill="white"/>
<path d="M107.153 10.1387C109.561 10.1387 111.5 10.87 112.969 12.3325C114.462 13.795 115.208 15.9643 115.208 18.8406V30.1018H109.573V19.7181C109.573 18.1581 109.236 17.0003 108.562 16.2446C107.887 15.4646 106.912 15.0746 105.636 15.0746C104.215 15.0746 103.083 15.5256 102.24 16.4275C101.397 17.305 100.976 18.6212 100.976 20.3762V30.1018H95.341V10.4312H100.723V12.7346C101.47 11.9059 102.397 11.2721 103.505 10.8334C104.612 10.3703 105.828 10.1387 107.153 10.1387Z" fill="white"/>
</svg>
