<svg width="40" height="40" viewBox="0 0 40 40" fill="none" xmlns="http://www.w3.org/2000/svg">
<circle cx="20" cy="20" r="20" fill="#FFF0E6"/>
<g clip-path="url(#clip0_1230_4982)">
<path d="M33.3412 10.5509C35.159 11.8457 33.366 16.836 32.2559 18.0119C31.1458 19.1878 27.0164 12.9495 27.0164 12.9495C27.0164 12.9495 31.0982 8.95183 33.3412 10.5509V10.5509Z" fill="white"/>
<path d="M6.66077 10.5801C4.84303 11.875 6.63597 16.8652 7.74607 18.0411C8.85617 19.217 12.9857 12.9787 12.9857 12.9787C12.9857 12.9787 8.90385 8.98107 6.66077 10.5801V10.5801Z" fill="white"/>
<path d="M8.30678 19.2834C8.30678 19.2834 8.28962 19.2834 8.28199 19.2834C8.18471 19.2756 8.09697 19.2268 8.03975 19.1469C6.63591 17.2182 6.05607 15.4846 5.81574 14.3692C5.77568 14.1859 5.89013 14.0025 6.06942 13.9616C6.24871 13.9206 6.42801 14.0377 6.46806 14.221C6.68169 15.2096 7.17952 16.7171 8.34874 18.4175L13.1267 13.5696C10.5537 10.7596 7.78416 10.038 6.88578 10.781C6.51384 11.0891 6.29831 11.7717 6.29258 12.655C6.29258 12.8423 6.1419 12.9944 5.95879 12.9944H5.95688C5.77187 12.9924 5.625 12.8384 5.625 12.6511C5.63263 11.5455 5.93018 10.6933 6.46616 10.2506C7.77271 9.17026 11.0458 10.1589 13.8382 13.3551C13.9565 13.4897 13.9507 13.6964 13.8248 13.8251L8.54139 19.1839C8.47845 19.2483 8.39452 19.2834 8.30678 19.2834V19.2834Z" fill="#515151"/>
<path d="M8.39843 12.4659C8.92486 12.0447 10.3401 12.5166 11.4903 13.9558C11.0993 14.2366 10.6739 14.572 10.2371 14.9737C9.76793 15.4027 9.37119 15.8259 9.03549 16.2198C7.88725 14.5798 7.85482 12.9027 8.39843 12.4679V12.4659Z" fill="#515151"/>
<path d="M31.6951 19.2834C31.6073 19.2834 31.5234 19.2483 31.4605 19.1839L26.1789 13.8251C26.053 13.6964 26.0473 13.4916 26.1656 13.3551C28.958 10.1589 32.2311 9.17026 33.5376 10.2506C34.0717 10.6933 34.3711 11.5455 34.3788 12.6492C34.3788 12.8384 34.2319 12.9924 34.0469 12.9924C33.8638 12.9983 33.7131 12.8423 33.7112 12.6531C33.7055 11.7697 33.4899 11.0872 33.118 10.7791C32.2196 10.0361 29.4501 10.7576 26.8789 13.5696L31.6569 18.4175C32.8262 16.7171 33.324 15.2096 33.5376 14.221C33.5777 14.0377 33.7551 13.9206 33.9344 13.9616C34.1137 14.0025 34.2281 14.1839 34.188 14.3672C33.9477 15.4827 33.3679 17.2163 31.9659 19.143C31.9087 19.2229 31.8191 19.2717 31.7237 19.2795C31.7161 19.2795 31.7065 19.2795 31.6989 19.2795L31.6951 19.2834Z" fill="#515151"/>
<path d="M31.6036 12.4659C31.0772 12.0447 29.6619 12.5166 28.5117 13.9558C28.9027 14.2366 29.3281 14.572 29.7649 14.9737C30.2341 15.4027 30.6308 15.8259 30.9665 16.2198C32.1148 14.5798 32.1472 12.9027 31.6036 12.4679V12.4659Z" fill="#515151"/>
<path d="M33.3583 21.2334C33.3774 23.983 31.9488 26.5259 29.5455 28.4058C27.1441 30.2857 23.7947 31.4772 20.0715 31.5084C16.3464 31.5396 12.9836 30.4046 10.5555 28.5657C8.12554 26.7268 6.66257 24.2073 6.6435 21.4577C6.62443 18.708 8.05306 16.1651 10.4564 14.2853C12.8578 12.4054 16.2071 11.2139 19.9303 11.1827C23.6555 11.1515 27.0182 12.2864 29.4463 14.1254C31.8763 15.9662 33.3392 18.4838 33.3583 21.2334V21.2334Z" fill="#EEB070"/>
<path d="M20.2872 31.875C16.6727 31.875 13.2756 30.8064 10.7026 28.8582C8.1028 26.8887 6.65891 24.258 6.63984 21.4479C6.62077 18.6437 8.02269 15.9916 10.5881 13.9791C12.3086 12.4366 15.2727 11.2529 18.1471 10.9663C18.3512 10.9468 18.5324 11.0989 18.5515 11.3056C18.5705 11.5142 18.4218 11.6995 18.2196 11.719C15.5263 11.9881 12.6538 13.127 11.0688 14.5544L11.0497 14.57C8.66548 16.4343 7.36274 18.8758 7.38181 21.4401C7.39898 24.0045 8.73606 26.4226 11.1451 28.2459C13.6266 30.1258 16.9206 31.1437 20.4379 31.1145C23.9494 31.0852 27.2358 30.0107 29.6906 28.0899C32.0748 26.2256 33.3775 23.7841 33.3585 21.2198C33.3413 18.6554 32.0042 16.2373 29.5952 14.414C27.6726 12.9573 24.5998 11.8165 22.1221 11.641C21.918 11.6273 21.7635 11.446 21.7787 11.2373C21.794 11.0287 21.9695 10.8707 22.1736 10.8863C24.7772 11.0716 28.0102 12.2728 30.0358 13.8075C32.6356 15.7771 34.0795 18.4078 34.0985 21.2178C34.1176 24.0259 32.7119 26.682 30.1388 28.6944C27.5581 30.7147 24.1134 31.8438 20.4436 31.875C20.3921 31.875 20.3406 31.875 20.2891 31.875H20.2872Z" fill="#515151"/>
<path d="M25.0325 21.6098C24.7655 20.9623 23.5829 21.1222 22.2153 21.3095C21.5935 21.3933 20.9507 21.4811 20.5521 21.4518C20.2355 21.4284 19.9303 21.405 19.6365 21.3797C17.0482 21.173 15.179 21.0228 14.7288 22.4971C14.5991 22.9222 14.7326 23.201 14.8681 23.359C15.1771 23.7217 15.8275 23.8563 16.6648 23.8563C17.5747 23.8563 18.7019 23.6983 19.8521 23.5052C20.0504 23.4721 20.2087 23.4448 20.3117 23.4311C20.6074 23.3921 21.2235 23.4994 21.8186 23.6027C22.9134 23.7939 23.9491 23.9752 24.4336 23.6437C25.1355 23.164 25.3606 22.4034 25.0325 21.6098V21.6098Z" fill="white"/>
<path d="M20.1587 21.7996C20.7044 21.7953 21.1447 21.5203 21.1422 21.1854C21.1397 20.8504 20.6953 20.5824 20.1496 20.5867C19.604 20.5909 19.1637 20.8659 19.1662 21.2009C19.1687 21.5358 19.6131 21.8039 20.1587 21.7996Z" fill="#515151"/>
<path d="M19.2456 11.7073C19.1769 11.7073 19.1083 11.6878 19.0453 11.6469C18.8737 11.5337 18.8241 11.2997 18.9347 11.1242C19.3047 10.5373 20.0753 9.77868 20.5636 9.43936C20.7334 9.32236 20.9622 9.36721 21.0786 9.54077C21.193 9.71432 21.1492 9.94833 20.9794 10.0673C20.5617 10.3579 19.8636 11.0462 19.5584 11.5357C19.4878 11.6488 19.3677 11.7093 19.2475 11.7093L19.2456 11.7073Z" fill="#515151"/>
<path d="M20.699 11.6819C20.6132 11.6819 20.5274 11.6527 20.4587 11.5903C20.3042 11.4538 20.287 11.2159 20.4187 11.056C20.865 10.5256 21.7309 9.88593 22.2612 9.61877C22.4443 9.52711 22.6656 9.60316 22.7571 9.79037C22.8468 9.97758 22.7724 10.2038 22.5893 10.2974C22.1353 10.5256 21.3514 11.1086 20.9813 11.5493C20.9089 11.6371 20.8039 11.6819 20.701 11.6819H20.699Z" fill="#515151"/>
<path d="M17.2008 17.6667C16.8136 17.6706 16.5008 17.9943 16.5027 18.3902C16.5027 18.5833 16.579 18.7627 16.7125 18.8972C16.8441 19.0298 17.0196 19.1039 17.2065 19.1039H17.2122C17.5994 19.1 17.9123 18.7763 17.9103 18.3805C17.9103 18.1874 17.834 18.008 17.7005 17.8734C17.567 17.7389 17.3896 17.6648 17.2008 17.6667Z" fill="#515151"/>
<path d="M22.5949 17.6667H22.5892C22.202 17.6706 21.8892 17.9943 21.8911 18.3921C21.8911 18.5832 21.9674 18.7646 22.1009 18.8991C22.2325 19.0317 22.408 19.1058 22.5949 19.1058H22.6007C22.7876 19.1058 22.965 19.0278 23.0966 18.8913C23.2282 18.7548 23.3007 18.5735 23.2988 18.3804C23.295 17.9865 22.9802 17.6667 22.5949 17.6667V17.6667Z" fill="#515151"/>
</g>
<defs>
<clipPath id="clip0_1230_4982">
<rect width="28.75" height="22.5" fill="white" transform="translate(5.625 9.375)"/>
</clipPath>
</defs>
</svg>
