<svg width="91" height="91" viewBox="0 0 91 91" fill="none" xmlns="http://www.w3.org/2000/svg">
<path d="M45.3333 45.3333C57.8567 45.3333 68 35.19 68 22.6667C68 10.1433 57.8567 0 45.3333 0C32.81 0 22.6667 10.1433 22.6667 22.6667C22.6667 35.19 32.81 45.3333 45.3333 45.3333ZM45.3333 56.6667C30.2033 56.6667 0 64.26 0 79.3333V85C0 88.1167 2.55 90.6667 5.66667 90.6667H85C88.1167 90.6667 90.6667 88.1167 90.6667 85V79.3333C90.6667 64.26 60.4633 56.6667 45.3333 56.6667Z" fill="#515151"/>
<circle cx="38.0348" cy="19.4904" r="3.00505" fill="#333333"/>
<circle cx="53.6608" cy="19.4904" r="3.00505" fill="#333333"/>
<line x1="40.6362" y1="30.1113" x2="51.0605" y2="30.1113" stroke="#333333" stroke-width="4" stroke-linecap="round"/>
</svg>
