<svg width="90" height="90" viewBox="0 0 90 90" fill="none" xmlns="http://www.w3.org/2000/svg">
<path d="M81 0H9C4.05 0 0.045 4.05 0.045 9L0 90L18 72H81C85.95 72 90 67.95 90 63V9C90 4.05 85.95 0 81 0ZM67.5 54H22.5C20.025 54 18 51.975 18 49.5C18 47.025 20.025 45 22.5 45H67.5C69.975 45 72 47.025 72 49.5C72 51.975 69.975 54 67.5 54ZM67.5 40.5H22.5C20.025 40.5 18 38.475 18 36C18 33.525 20.025 31.5 22.5 31.5H67.5C69.975 31.5 72 33.525 72 36C72 38.475 69.975 40.5 67.5 40.5ZM67.5 27H22.5C20.025 27 18 24.975 18 22.5C18 20.025 20.025 18 22.5 18H67.5C69.975 18 72 20.025 72 22.5C72 24.975 69.975 27 67.5 27Z" fill="#515151"/>
<rect y="12.5996" width="90" height="47.7" fill="#515151"/>
<circle cx="34.75" cy="27.75" r="3.75" fill="#333333"/>
<circle cx="54.25" cy="27.75" r="3.75" fill="#333333"/>
<line x1="37.5" y1="41.5" x2="51.5" y2="41.5" stroke="#333333" stroke-width="4" stroke-linecap="round"/>
</svg>
