<svg width="24" height="22" viewBox="0 0 24 22" fill="none" xmlns="http://www.w3.org/2000/svg">
<path d="M12 15.6666C13.933 15.6666 15.5 14.0996 15.5 12.1666C15.5 10.2336 13.933 8.66663 12 8.66663C10.067 8.66663 8.5 10.2336 8.5 12.1666C8.5 14.0996 10.067 15.6666 12 15.6666Z" fill="#646464"/>
<path d="M21.3335 2.83333H17.6352L16.1885 1.25833C15.7568 0.78 15.1268 0.5 14.4735 0.5H9.52683C8.8735 0.5 8.2435 0.78 7.80016 1.25833L6.36516 2.83333H2.66683C1.3835 2.83333 0.333496 3.88333 0.333496 5.16667V19.1667C0.333496 20.45 1.3835 21.5 2.66683 21.5H21.3335C22.6168 21.5 23.6668 20.45 23.6668 19.1667V5.16667C23.6668 3.88333 22.6168 2.83333 21.3335 2.83333ZM12.0002 18C8.78016 18 6.16683 15.3867 6.16683 12.1667C6.16683 8.94667 8.78016 6.33333 12.0002 6.33333C15.2202 6.33333 17.8335 8.94667 17.8335 12.1667C17.8335 15.3867 15.2202 18 12.0002 18Z" fill="#646464"/>
</svg>
