<svg width="72" height="72" viewBox="0 0 72 72" fill="none" xmlns="http://www.w3.org/2000/svg">
<circle cx="36" cy="36" r="36" fill="#FFF7E0"/>
<mask id="mask0_762_5992" style="mask-type:alpha" maskUnits="userSpaceOnUse" x="0" y="0" width="72" height="72">
<circle cx="36" cy="36" r="36" fill="#EFEFEF"/>
</mask>
<g mask="url(#mask0_762_5992)">
<g clip-path="url(#clip0_762_5992)">
<path d="M13.7866 18.2695C10.7517 20.386 13.7452 28.5428 15.5985 30.4649C17.4519 32.387 24.3464 22.1901 24.3464 22.1901C24.3464 22.1901 17.5315 15.6557 13.7866 18.2695Z" fill="white"/>
<path d="M58.1179 18.2217C61.1527 20.3382 58.1593 28.495 56.3059 30.4171C54.4526 32.3392 47.5581 22.1423 47.5581 22.1423C47.5581 22.1423 54.3729 15.6079 58.1179 18.2217Z" fill="white"/>
<path d="M27.3621 48.5541C16.3055 52.3568 14.4044 66.7102 14.8343 73.4103H57.1627C57.911 58.0784 51.2363 50.4475 47.8034 48.5509C45.5966 46.9667 38.4155 44.745 27.3589 48.5509L27.3621 48.5541Z" fill="#776F66"/>
<path d="M57.1626 73.9841H14.8342C14.5317 73.9841 14.2833 73.7482 14.261 73.4486C13.8024 66.3436 15.9137 51.8851 27.1709 48.009C32.1069 46.3101 36.7404 45.6184 40.9439 45.9595C45.2939 46.3101 47.4976 47.6361 48.1059 48.0664C51.7808 50.1192 58.481 58.037 57.7294 73.439C57.7135 73.745 57.4619 73.9841 57.1562 73.9841H57.1626ZM15.3787 72.8366H56.6148C57.1626 58.3175 50.9369 50.9384 47.5295 49.0545C47.5104 49.045 47.4912 49.0322 47.4721 49.0195C45.2653 47.4353 38.2594 45.4112 27.5499 49.096C17.2162 52.6532 15.0762 65.8719 15.3819 72.8398L15.3787 72.8366Z" fill="#776F66"/>
<path d="M15.2419 74C14.9362 74 14.6783 73.7609 14.656 73.4518C14.1974 66.3436 16.3087 51.8755 27.5755 47.9995C32.5115 46.3005 37.1481 45.6088 41.3548 45.9499C45.7081 46.3005 47.9117 47.6265 48.5232 48.06C52.2013 50.116 58.9078 58.0369 58.1531 73.4454C58.1372 73.7705 57.8474 74.0128 57.5385 74.0032C57.2137 73.9873 56.9653 73.7131 56.9812 73.388C57.7073 58.5151 51.3765 50.9798 47.9245 49.0705C47.9054 49.0577 47.8863 49.0481 47.8672 49.0322C45.6603 47.448 38.6608 45.4271 27.9545 49.1119C17.3564 52.7584 15.3852 66.5795 15.8247 73.3784C15.847 73.7004 15.6018 73.9809 15.277 74.0032C15.2642 74.0032 15.2515 74.0032 15.2387 74.0032L15.2419 74Z" fill="#515151"/>
<path d="M16.4774 32.3551C16.4774 32.3551 16.4487 32.3551 16.436 32.3551C16.2736 32.3423 16.1271 32.2626 16.0316 32.132C13.691 28.9795 12.7197 26.1458 12.3185 24.3225C12.2516 24.0229 12.4426 23.7233 12.742 23.6595C13.0413 23.5926 13.3407 23.7839 13.4044 24.0835C13.761 25.6996 14.5922 28.1635 16.5443 30.9398L24.5215 23.0157C20.2288 18.4225 15.6049 17.2431 14.105 18.4575C13.484 18.9611 13.1241 20.0768 13.1146 21.5207C13.1146 21.8267 12.863 22.0754 12.5573 22.0754H12.5541C12.2452 22.0722 12 21.8203 12 21.5112C12.0127 19.707 12.5095 18.3141 13.4044 17.5905C15.5826 15.8246 21.0472 17.4407 25.7125 22.665C25.9099 22.885 25.9004 23.2229 25.6902 23.4332L16.8691 32.1925C16.764 32.2977 16.6239 32.3551 16.4774 32.3551Z" fill="#515151"/>
<path d="M16.6304 21.2115C17.5093 20.523 19.8722 21.2944 21.7924 23.6468C21.1396 24.1058 20.4295 24.654 19.7002 25.3107C18.9168 26.0119 18.2545 26.7036 17.694 27.3475C15.7769 24.6668 15.7228 21.9255 16.6304 21.2147V21.2115Z" fill="#515151"/>
<path d="M55.5257 32.3551C55.3792 32.3551 55.2391 32.2977 55.134 32.1925L46.3161 23.4332C46.1059 23.2229 46.0964 22.8882 46.2938 22.665C50.9527 17.4407 56.4173 15.8246 58.5987 17.5905C59.4904 18.3141 59.9903 19.707 60.0031 21.5112C60.0031 21.8203 59.7579 22.069 59.449 22.0722H59.4458C59.1401 22.0722 58.8917 21.8235 58.8885 21.5175C58.879 20.0736 58.5191 18.958 57.8981 18.4543C56.4014 17.2399 51.7743 18.4193 47.4816 23.0157L55.4588 30.9398C57.4077 28.1603 58.2421 25.6964 58.5987 24.0835C58.6656 23.7839 58.9617 23.5894 59.2611 23.6595C59.5604 23.7265 59.7515 24.0229 59.6846 24.3225C59.2834 26.1458 58.3153 28.9795 55.9747 32.1288C55.8791 32.2595 55.7295 32.3391 55.5703 32.3519C55.5575 32.3519 55.5416 32.3519 55.5289 32.3519L55.5257 32.3551Z" fill="#515151"/>
<path d="M55.3728 21.2115C54.4938 20.523 52.1309 21.2944 50.2107 23.6468C50.8635 24.1058 51.5737 24.654 52.3029 25.3107C53.0863 26.0119 53.7487 26.7036 54.3091 27.3475C56.2262 24.6668 56.2804 21.9255 55.3728 21.2147V21.2115Z" fill="#515151"/>
<path d="M58.3918 35.4693C58.4236 39.9796 56.0289 44.1489 52.0037 47.2344C47.9785 50.3167 42.3706 52.2707 36.1321 52.3217C29.8937 52.3727 24.2571 50.5112 20.1905 47.4958C16.1207 44.4772 13.6686 40.3462 13.6368 35.8391C13.6049 31.3287 15.9997 27.1595 20.0249 24.0739C24.0501 20.9916 29.658 19.0377 35.8965 18.9867C42.1349 18.9357 47.7715 20.7972 51.8381 23.8126C55.9079 26.8311 58.3599 30.9622 58.3918 35.4693Z" fill="#EEB070"/>
<path d="M33.9731 19.8696C33.8552 19.8696 33.7342 19.8377 33.6259 19.7676C33.3266 19.5764 33.2406 19.1779 33.4317 18.8815C34.0527 17.9157 35.3456 16.6694 36.1672 16.1115C36.4601 15.9107 36.8582 15.9904 37.0588 16.2837C37.2563 16.5769 37.1798 16.9754 36.8869 17.1762C36.1895 17.6511 35.0239 18.7795 34.5112 19.5764C34.3902 19.7676 34.1832 19.8696 33.9699 19.8696H33.9731Z" fill="#515151"/>
<path d="M36.5462 19.825C36.3997 19.825 36.25 19.774 36.129 19.6688C35.8615 19.4393 35.8297 19.0313 36.0621 18.7636C36.8105 17.8934 38.2658 16.8383 39.1543 16.4016C39.4727 16.2454 39.8581 16.3761 40.0141 16.6949C40.1701 17.0136 40.0396 17.3993 39.7211 17.5555C38.9632 17.9284 37.6544 18.8847 37.0366 19.6019C36.9092 19.7485 36.7309 19.825 36.5494 19.825H36.5462Z" fill="#515151"/>
<path d="M35.8519 52.9401C29.7918 52.9401 24.0947 51.187 19.7829 47.9867C15.4233 44.7546 13.0031 40.4323 12.9681 35.82C12.9362 31.214 15.2864 26.8599 19.5919 23.5544C22.477 21.0203 27.448 19.0791 32.2662 18.6106C32.6228 18.5723 32.9317 18.8337 32.9668 19.1875C33.0018 19.5413 32.7439 19.8537 32.3904 19.8888C27.8843 20.3286 23.0757 22.1965 20.423 24.533C20.4103 24.5425 20.4007 24.5521 20.388 24.5617C16.401 27.6153 14.2228 31.6124 14.2514 35.8104C14.2801 40.0083 16.5156 43.9672 20.5472 46.9571C24.6998 50.0363 30.2154 51.697 36.1003 51.6555C41.9789 51.6077 47.4785 49.8482 51.5866 46.6989C55.5735 43.6453 57.7517 39.6482 57.7231 35.4502C57.6944 31.2522 55.4589 27.2934 51.4273 24.3035C48.2078 21.916 43.0648 20.0481 38.9218 19.7581C38.5683 19.7326 38.3008 19.4266 38.3263 19.0728C38.3518 18.7189 38.6543 18.4576 39.011 18.4767C43.3769 18.7827 48.7937 20.7526 52.1916 23.2707C56.5544 26.506 58.9714 30.8251 59.0064 35.4375C59.0383 40.0498 56.6818 44.4103 52.3668 47.7158C48.039 51.0308 42.2655 52.8859 36.1131 52.9369C36.0271 52.9369 35.9411 52.9369 35.8551 52.9369L35.8519 52.9401Z" fill="#515151"/>
<path d="M43.8037 38.5517C43.3547 37.4902 41.3772 37.7548 39.0843 38.0576C38.043 38.1947 36.9698 38.3381 36.2979 38.2903C35.7692 38.252 35.2565 38.2106 34.7629 38.1723C30.4288 37.8313 27.2953 37.5858 26.5406 40.0052C26.324 40.7032 26.5469 41.159 26.773 41.4172C27.2921 42.0133 28.3812 42.2332 29.7824 42.2332C31.3046 42.2332 33.1962 41.975 35.1196 41.6563C35.454 41.6021 35.7183 41.5575 35.8903 41.5352C36.3839 41.4682 37.4156 41.6467 38.4156 41.8189C40.2498 42.1344 41.9854 42.4277 42.7974 41.8858C43.9757 41.0985 44.3483 39.8522 43.8037 38.5517Z" fill="white"/>
<path d="M35.635 38.8634C36.5495 38.8564 37.2875 38.4055 37.2833 37.8562C37.2791 37.307 36.5343 36.8674 35.6198 36.8745C34.7052 36.8815 33.9673 37.3324 33.9715 37.8817C33.9757 38.4309 34.7205 38.8705 35.635 38.8634Z" fill="#515151"/>
<path d="M39.8613 35.5745C39.7817 35.5745 39.6989 35.5554 39.6257 35.5107L38.0111 34.5864C37.7818 34.4557 37.7022 34.1624 37.8328 33.9329C37.9634 33.7034 38.2563 33.6237 38.4856 33.7544L40.1002 34.6788C40.3294 34.8095 40.4091 35.1027 40.2785 35.3322C40.1893 35.4852 40.0301 35.5745 39.8645 35.5745H39.8613Z" fill="#515151"/>
<path d="M30.6389 35.5745C30.4733 35.5745 30.3109 35.4884 30.2249 35.3322C30.0943 35.1027 30.1739 34.8095 30.4032 34.6788L32.0178 33.7544C32.247 33.6237 32.5368 33.7034 32.6706 33.9329C32.8012 34.1624 32.7215 34.4557 32.4923 34.5864L30.8777 35.5107C30.8045 35.5522 30.7217 35.5745 30.6421 35.5745H30.6389Z" fill="#515151"/>
<path d="M50.3095 65.8336C48.9433 65.7603 47.2269 65.6806 46.055 65.8751C45.2589 66.0089 46.0359 69.8403 43.6348 69.6427C41.2973 69.4514 41.6158 67.1086 41.6158 65.7093C39.2274 65.5754 36.9314 65.3587 36.9346 61.1767C36.9409 55.2192 44.2971 56.1946 50.3095 56.5388" fill="white"/>
<path d="M43.8226 70.2929C43.743 70.2929 43.6634 70.2898 43.5806 70.2834C40.982 70.0698 40.9311 67.7111 40.9598 66.3117C38.8198 66.1587 36.2849 65.6169 36.2881 61.1735C36.2881 59.5829 36.7817 58.3143 37.7498 57.4058C40.0681 55.2319 44.5742 55.522 48.9306 55.8025C49.4082 55.8344 49.8795 55.8631 50.3445 55.8918C50.7011 55.9109 50.9718 56.2169 50.9527 56.5739C50.9336 56.9309 50.6375 57.205 50.2712 57.1827C49.8031 57.1572 49.3286 57.1253 48.8478 57.0934C44.9531 56.8416 40.5426 56.5579 38.6319 58.3493C37.9249 59.0123 37.581 59.9367 37.5778 61.1735C37.5746 64.6574 39.1223 64.9188 41.6508 65.059C41.9915 65.0782 42.259 65.3619 42.259 65.7029C42.259 65.8495 42.2558 66.0089 42.2527 66.1747C42.2113 68.0394 42.4087 68.8904 43.6857 68.9924C44.4914 69.0562 44.7207 68.4569 44.9468 66.9939C45.0773 66.1524 45.2015 65.3587 45.9467 65.2312C47.1409 65.0304 48.7745 65.0973 50.3413 65.1802C50.698 65.1993 50.9686 65.5021 50.9495 65.8591C50.9304 66.2161 50.6215 66.4839 50.2712 66.4679C49.2235 66.4105 47.5103 66.3213 46.3543 66.4711C46.3033 66.6464 46.2588 66.9492 46.2206 67.1883C46.0518 68.2848 45.7397 70.2834 43.8226 70.2834V70.2929Z" fill="#515151"/>
</g>
</g>
<defs>
<clipPath id="clip0_762_5992">
<rect width="48" height="58" fill="white" transform="translate(12 16)"/>
</clipPath>
</defs>
</svg>
