<svg width="62" height="62" viewBox="0 0 62 62" fill="none" xmlns="http://www.w3.org/2000/svg">
<circle cx="31" cy="31" r="31" fill="#FFE9B1"/>
<path d="M12.28 24.1287L25.1093 14.728C23.3249 13.5563 21.3711 12.6657 19.3162 12.0874C16.6106 11.3236 13.7181 10.503 12.0037 11.998C10.5818 13.2005 10.5818 15.3455 10.5818 17.2874C10.5773 19.6727 11.1606 22.0223 12.28 24.1287Z" fill="#EFE8DF"/>
<path d="M12.1419 24.738L11.9225 24.3237C10.7576 22.1604 10.141 19.7444 10.1268 17.2874C10.1268 15.2805 10.1269 13.0055 11.695 11.6812C13.6206 10.0562 16.7081 10.9174 19.43 11.6812C21.5256 12.272 23.5179 13.1818 25.3369 14.3787L25.8325 14.7036L12.1419 24.738ZM14.5794 11.5755C13.7289 11.5264 12.8892 11.786 12.215 12.3068C10.9393 13.3955 10.9393 15.3699 10.9393 17.2874C10.9447 19.4484 11.4509 21.5787 12.4181 23.5112L24.3618 14.7524C22.7493 13.762 21.0076 12.9991 19.1862 12.4855C17.7019 11.9848 16.1587 11.6789 14.5956 11.5755H14.5794Z" fill="#5B3820"/>
<path d="M14.8231 21.1955L21.575 16.2474C20.6382 15.6259 19.6102 15.1544 18.5281 14.8499C17.0981 14.4518 15.5787 14.0374 14.6525 14.8011C13.905 15.4349 13.905 16.5643 13.8969 17.5961C13.9028 18.8541 14.2211 20.0909 14.8231 21.1955Z" fill="#A8693F"/>
<path d="M14.6769 21.8129L14.4575 21.3904C13.8307 20.2233 13.4987 18.9207 13.4906 17.596C13.4906 16.491 13.4906 15.2479 14.3844 14.4923C15.4731 13.566 17.155 14.0373 18.6337 14.4516C19.7583 14.7672 20.8272 15.2551 21.8025 15.8979L22.2981 16.231L14.6769 21.8129ZM16.0419 14.7767C15.6395 14.7537 15.242 14.8747 14.9206 15.1179C14.3112 15.6298 14.3112 16.6291 14.3112 17.5554C14.313 18.5826 14.5375 19.5971 14.9694 20.5291L20.8356 16.231C20.0692 15.789 19.2503 15.4451 18.3981 15.2073C17.6341 14.9648 16.8423 14.8201 16.0419 14.7767Z" fill="#5B3820"/>
<path d="M51.4262 25.5505L39.0031 15.6298C40.8299 14.5197 42.8167 13.6975 44.8937 13.1923C47.64 12.5423 50.5812 11.8436 52.2469 13.4036C53.62 14.6711 53.5306 16.8079 53.4493 18.7579C53.3421 21.1537 52.6473 23.4864 51.4262 25.5505Z" fill="#EFE8DF"/>
<path d="M51.54 26.168L38.28 15.6055L38.7918 15.2967C40.6605 14.1834 42.688 13.3615 44.8044 12.8592C47.5587 12.2092 50.6787 11.4699 52.5312 13.1761C54.0424 14.5736 53.945 16.8405 53.8637 18.8636C53.7472 21.3153 53.0301 23.7009 51.7756 25.8105L51.54 26.168ZM39.7343 15.6786L51.3044 24.9249C52.3521 23.0369 52.9473 20.9314 53.0431 18.7743C53.1162 16.8568 53.1974 14.8743 51.9706 13.7449C50.4349 12.3311 47.6725 12.9892 44.9912 13.623C43.1527 14.0632 41.3838 14.755 39.7343 15.6786Z" fill="#5B3820"/>
<path d="M49.0456 22.5117L42.4969 17.2874C43.4621 16.7059 44.512 16.2783 45.6087 16.0199C47.0469 15.6786 48.5906 15.313 49.4763 16.1336C50.1994 16.7999 50.1506 17.9292 50.11 18.953C50.0545 20.2089 49.6888 21.4316 49.0456 22.5117Z" fill="#A8693F"/>
<path d="M49.1268 23.1293L41.7331 17.2386L42.2368 16.9299C43.2467 16.3298 44.3428 15.8886 45.4868 15.6218C46.9818 15.2643 48.6799 14.858 49.7362 15.833C50.5974 16.6455 50.5487 17.8724 50.5 18.9693C50.4406 20.2937 50.0555 21.583 49.3787 22.723L49.1268 23.1293ZM43.2037 17.3524L48.8912 21.8943C49.3658 20.979 49.6427 19.9741 49.7037 18.9449C49.7037 17.978 49.7768 16.9786 49.2 16.4424C48.4687 15.768 47.0631 16.1093 45.6981 16.4424C44.8322 16.6412 43.9943 16.9469 43.2037 17.3524Z" fill="#5B3820"/>
<path d="M45.2756 18.2461C39.7587 14.0536 33.5024 13.9643 31.4631 13.9643C29.4237 13.9643 23.1187 14.0455 17.5937 18.2461C10.6631 23.5111 5.72308 34.6343 10.1431 42.8893C14.8393 51.6724 27.2056 51.6724 31.4469 51.6724C35.6881 51.6724 48.0462 51.6724 52.7506 42.8893C57.1706 34.6343 52.1981 23.5111 45.2756 18.2461Z" fill="#DD925F"/>
<path d="M31.4224 52.0868C27.2543 52.0868 14.5712 52.0868 9.75307 43.0843C5.33307 34.8293 10.1024 23.4055 17.3174 17.8968C21.1281 15.0043 25.8731 13.5336 31.4143 13.5336C36.9556 13.5336 41.6924 15.0043 45.4949 17.8968C52.7181 23.3893 57.4793 34.813 53.0593 43.0843C48.2737 52.0868 35.5906 52.0868 31.4224 52.0868ZM31.4224 14.3787C26.0599 14.3787 21.4856 15.7924 17.8293 18.5711C10.8743 23.8524 6.26745 34.8211 10.5168 42.6943C15.0993 51.258 27.4087 51.258 31.4549 51.258C47.8105 51.258 51.2556 44.8149 52.3931 42.6943C56.6099 34.8049 52.0031 23.8524 45.0806 18.5711C41.4243 15.7924 36.85 14.3787 31.4956 14.3787H31.4224Z" fill="#5B3820"/>
<path d="M37.1153 29.3173C37.166 28.9801 36.4912 28.5991 35.6082 28.4663C34.7251 28.3336 33.9682 28.4993 33.9175 28.8366C33.8668 29.1738 34.5415 29.5548 35.4246 29.6876C36.3076 29.8203 37.0646 29.6546 37.1153 29.3173Z" fill="#A5683D"/>
<path d="M27.7559 29.5802C28.6294 29.3943 29.2799 28.9733 29.2089 28.6397C29.138 28.3062 28.3724 28.1864 27.499 28.3722C26.6255 28.558 25.975 28.9791 26.0459 29.3126C26.1169 29.6462 26.8825 29.766 27.7559 29.5802Z" fill="#A5683D"/>
<path d="M31.3186 37.0701C33.1462 36.9622 34.5748 35.9777 34.5095 34.8713C34.4441 33.7649 32.9096 32.9554 31.082 33.0633C29.2543 33.1713 27.8257 34.1558 27.891 35.2622C27.9564 36.3686 29.491 37.1781 31.3186 37.0701Z" fill="#EFE8DF"/>
<path d="M30.9756 37.5105C30.1978 37.5231 29.4284 37.3475 28.7331 36.9986C28.3905 36.853 28.0927 36.6191 27.87 36.3208C27.6473 36.0225 27.5078 35.6704 27.4656 35.3005C27.3844 33.9437 28.9525 32.7899 31.0406 32.668C31.9335 32.5955 32.8293 32.7669 33.6325 33.1637C33.9751 33.3093 34.2729 33.5432 34.4956 33.8415C34.7183 34.1399 34.8578 34.4919 34.9 34.8618C34.9813 36.2186 33.4131 37.3724 31.325 37.4943L30.9756 37.5105ZM31.3981 33.448H31.0894C29.5212 33.5374 28.2375 34.3499 28.2862 35.2111C28.3285 35.4339 28.4247 35.6429 28.5663 35.8199C28.7079 35.9969 28.8907 36.1366 29.0987 36.2268C29.7667 36.5537 30.5106 36.694 31.2518 36.633C32.82 36.5355 34.1037 35.7311 34.055 34.8699C34.0127 34.6472 33.9166 34.4382 33.7749 34.2611C33.6333 34.0841 33.4505 33.9444 33.2425 33.8543C32.6664 33.5841 32.034 33.4559 31.3981 33.4805V33.448Z" fill="#5B3820"/>
<path d="M28.2537 32.3187L26.1494 32.1968C26.1013 32.1937 26.0544 32.1812 26.0112 32.1599C25.968 32.1386 25.9294 32.1089 25.8977 32.0727C25.866 32.0365 25.8418 31.9943 25.8264 31.9487C25.811 31.903 25.8048 31.8548 25.8081 31.8068C25.8144 31.7112 25.8579 31.6219 25.9293 31.5581C26.0008 31.4943 26.0943 31.4611 26.19 31.4655L28.3025 31.5956C28.3891 31.6086 28.4681 31.6522 28.5252 31.7186C28.5824 31.7849 28.6138 31.8695 28.6138 31.9571C28.6138 32.0446 28.5824 32.1293 28.5252 32.1957C28.4681 32.262 28.3891 32.3056 28.3025 32.3187H28.2537Z" fill="#A5683D"/>
<path d="M34.7293 32.3186C34.6373 32.3187 34.5487 32.2833 34.4821 32.2197C34.4155 32.1561 34.376 32.0693 34.3718 31.9773C34.3673 31.9295 34.3728 31.8812 34.3878 31.8356C34.4028 31.7899 34.4271 31.7478 34.4592 31.712C34.4912 31.6761 34.5303 31.6473 34.574 31.6272C34.6176 31.6072 34.665 31.5964 34.7131 31.5955L36.8175 31.4655C36.9135 31.4629 37.0069 31.4966 37.0792 31.5598C37.1515 31.6231 37.1973 31.7112 37.2074 31.8067C37.2119 31.9045 37.1778 32.0002 37.1125 32.0731C37.0471 32.146 36.9558 32.1905 36.8581 32.1967L34.7537 32.3186H34.7293Z" fill="#A5683D"/>
<path d="M10.8581 31.8637C10.7524 31.8627 10.651 31.8221 10.5737 31.7499C9.99466 31.2015 9.31251 30.7735 8.56683 30.4905C7.56741 30.1115 6.48649 29.9996 5.43059 30.1656C5.32933 30.1695 5.23013 30.1362 5.15174 30.072C5.07336 30.0078 5.02121 29.917 5.0052 29.8169C4.98919 29.7169 5.01043 29.6145 5.06486 29.529C5.11929 29.4435 5.20312 29.3809 5.30057 29.3531C6.34558 29.1822 7.41595 29.2554 8.42798 29.5669C9.44 29.8784 10.3663 30.4198 11.1344 31.1487C11.2118 31.2263 11.2552 31.3316 11.2552 31.4412C11.2552 31.5509 11.2118 31.656 11.1344 31.7337C11.0608 31.8087 10.9628 31.8548 10.8581 31.8637Z" fill="#6D4833"/>
<path d="M10.9962 33.3505H10.8987C9.17615 32.9074 7.37991 32.8299 5.62559 33.123C5.52171 33.1351 5.4171 33.1075 5.33271 33.0458C5.24832 32.984 5.19039 32.8926 5.17059 32.7899C5.154 32.6813 5.18033 32.5705 5.24404 32.481C5.30774 32.3915 5.40379 32.3303 5.51183 32.3105C6.54811 32.1412 7.60022 32.0894 8.64812 32.1561C9.47127 32.2172 10.2871 32.3532 11.0856 32.5623C11.1809 32.5897 11.2631 32.6504 11.3175 32.7333C11.3718 32.8161 11.3947 32.9157 11.3819 33.014C11.3691 33.1123 11.3216 33.2027 11.2478 33.2689C11.1741 33.3351 11.0791 33.3727 10.98 33.3748L10.9962 33.3505Z" fill="#6D4833"/>
<path d="M51.0606 33.0661C51.0041 33.067 50.9481 33.0558 50.8963 33.0334C50.8444 33.011 50.798 32.9778 50.7599 32.9361C50.7206 32.8982 50.6894 32.8527 50.668 32.8025C50.6466 32.7522 50.6356 32.6982 50.6356 32.6436C50.6356 32.589 50.6466 32.5349 50.668 32.4847C50.6894 32.4344 50.7206 32.389 50.7599 32.3511C51.4189 31.7381 52.1881 31.2556 53.0269 30.9292C54.1639 30.4996 55.3932 30.3735 56.5937 30.5636C56.6473 30.5715 56.6989 30.59 56.7452 30.6181C56.7916 30.6462 56.8319 30.6833 56.8637 30.7272C56.8955 30.7712 56.9182 30.821 56.9304 30.8738C56.9427 30.9267 56.9442 30.9814 56.935 31.0349C56.917 31.1422 56.8575 31.2382 56.7693 31.3021C56.6811 31.366 56.5713 31.3925 56.4637 31.3761C55.4078 31.2101 54.3269 31.3221 53.3275 31.7011C52.5818 31.984 51.8996 32.4121 51.3206 32.9605C51.25 33.0267 51.1573 33.0644 51.0606 33.0661Z" fill="#6D4833"/>
<path d="M56.5206 35.7475C56.4831 35.7559 56.4443 35.7559 56.4068 35.7475C55.4584 35.4788 54.4826 35.318 53.4981 35.2681C52.7111 35.2302 51.9223 35.2656 51.1418 35.3737C51.0421 35.3734 50.9458 35.3372 50.8706 35.2716C50.7955 35.206 50.7464 35.1156 50.7326 35.0168C50.7188 34.918 50.741 34.8176 50.7953 34.7339C50.8496 34.6502 50.9322 34.5889 51.0281 34.5612C51.86 34.4502 52.7001 34.4121 53.5387 34.4474C54.587 34.5026 55.6256 34.677 56.6343 34.9674C56.7421 34.9825 56.8394 35.0398 56.9049 35.1266C56.9704 35.2135 56.9988 35.3228 56.9837 35.4306C56.9686 35.5383 56.9113 35.6357 56.8245 35.7012C56.7376 35.7667 56.6283 35.795 56.5206 35.7799V35.7475Z" fill="#6D4833"/>
<path d="M30.7237 15.8573C30.6484 15.8582 30.5743 15.8382 30.5098 15.7995C30.4452 15.7607 30.3927 15.7048 30.3581 15.638C30.0468 15.0592 29.8223 14.4377 29.6918 13.7936C29.5213 12.9408 29.5213 12.0626 29.6918 11.2098C29.7153 11.1031 29.7792 11.0097 29.8701 10.9491C29.961 10.8885 30.0718 10.8654 30.1793 10.8848C30.2332 10.8945 30.2845 10.9149 30.3303 10.9449C30.3761 10.9749 30.4153 11.0138 30.4456 11.0594C30.476 11.1049 30.4969 11.156 30.5069 11.2098C30.517 11.2636 30.5161 11.3189 30.5043 11.3723C30.3533 12.1177 30.3533 12.8857 30.5043 13.6311C30.6229 14.1972 30.8199 14.7442 31.0893 15.2561C31.1161 15.3038 31.1329 15.3565 31.1387 15.4109C31.1446 15.4653 31.1394 15.5204 31.1235 15.5727C31.1075 15.6251 31.0812 15.6737 31.046 15.7156C31.0108 15.7575 30.9675 15.7919 30.9187 15.8167C30.8586 15.8476 30.7912 15.8616 30.7237 15.8573Z" fill="#6D4833"/>
<path d="M33.2343 16.2068C33.1272 16.2068 33.0242 16.1654 32.947 16.0912C32.8697 16.0169 32.8242 15.9157 32.82 15.8086C32.8037 15.1136 32.839 14.4184 32.9256 13.7286C33.0336 12.8061 33.2129 11.8934 33.4619 10.9986C33.4909 10.8909 33.5616 10.7991 33.6584 10.7435C33.7551 10.6878 33.8701 10.673 33.9778 10.7021C34.0855 10.7311 34.1773 10.8018 34.2329 10.8986C34.2886 10.9953 34.3034 11.1103 34.2744 11.218C34.0387 12.0738 33.8649 12.9454 33.7543 13.8261C33.6811 14.4761 33.6512 15.1303 33.665 15.7842C33.6661 15.8387 33.6564 15.8927 33.6366 15.9434C33.6167 15.9941 33.5871 16.0404 33.5494 16.0797C33.5117 16.1189 33.4665 16.1503 33.4167 16.1721C33.3668 16.1939 33.3132 16.2057 33.2587 16.2068H33.2343Z" fill="#6D4833"/>
<path d="M31.2501 35.7718C31.7383 35.743 32.117 35.4291 32.0958 35.0707C32.0746 34.7124 31.6617 34.4453 31.1734 34.4741C30.6851 34.5029 30.3065 34.8168 30.3276 35.1752C30.3488 35.5335 30.7618 35.8006 31.2501 35.7718Z" fill="#5B3820"/>
<path d="M16.2206 48.3411C16.9735 46.9273 17.7319 45.5163 18.4956 44.1079C20.5583 40.0924 22.8647 36.2068 25.4019 32.4729C25.995 31.6604 26.4662 31.0104 26.5637 31.0673C26.6612 31.1242 26.1331 32.2779 25.9381 32.6923C24.1022 36.7253 22.5915 40.8986 21.4206 45.1723C21.12 46.2773 20.7137 47.9592 20.3481 50.0473" fill="#CCE8EA"/>
<path d="M20.7219 50.1287L20.0069 50.0068C20.2912 48.3331 20.6569 46.6756 21.0875 45.0749C22.1718 41.0934 23.5458 37.1966 25.1987 33.4156C22.87 36.9109 20.7405 40.535 18.8206 44.2706L16.5456 48.5118L15.9037 48.1706L18.1787 43.9374C20.2521 39.9098 22.5665 36.0108 25.1093 32.2618C26.1737 30.7587 26.4012 30.5474 26.7343 30.7506C27.0675 30.9537 26.97 31.3274 26.2793 32.7737V32.8306C24.4567 36.8487 22.957 41.0055 21.7944 45.2618C21.3637 46.8462 21.0062 48.4793 20.7219 50.1287Z" fill="#6D4833"/>
<path d="M46.7462 48.3411L44.4712 44.1079C42.4041 40.0932 40.0951 36.2077 37.5569 32.4729C36.9719 31.6604 36.4925 31.0104 36.4031 31.0673C36.3137 31.1242 36.8338 32.2779 37.0206 32.6923C38.8522 36.7337 40.3574 40.9152 41.5219 45.1967C41.8225 46.3017 42.2369 47.9836 42.5944 50.0717" fill="#CCE8EA"/>
<path d="M42.2368 50.1287C41.9524 48.5037 41.5949 46.838 41.1724 45.2537C40.0128 40.9975 38.5158 36.8406 36.6956 32.8224V32.7574C36.0049 31.3193 35.8831 30.9617 36.2487 30.7424C36.6143 30.523 36.8337 30.7424 37.8737 32.2537C40.4176 36.0035 42.7347 39.9024 44.8124 43.9293L47.0793 48.1624L46.4374 48.5037L44.1624 44.2705C42.2384 40.5346 40.1091 36.908 37.7843 33.4074C39.4337 37.1898 40.8077 41.0864 41.8956 45.0667C42.3262 46.6917 42.7081 48.3168 42.9762 49.9986L42.2368 50.1287Z" fill="#6D4833"/>
<path d="M28.7331 31.3517L25.8243 31.1811C25.7702 31.179 25.7171 31.1661 25.6681 31.1432C25.619 31.1204 25.5751 31.0879 25.5387 31.0478C25.5024 31.0077 25.4744 30.9607 25.4565 30.9097C25.4386 30.8586 25.4311 30.8044 25.4343 30.7504C25.4375 30.696 25.4513 30.6427 25.475 30.5936C25.4988 30.5445 25.532 30.5006 25.5728 30.4643C25.6135 30.4281 25.661 30.4003 25.7126 30.3825C25.7641 30.3646 25.8186 30.3571 25.8731 30.3604L28.7818 30.531C28.891 30.5394 28.9927 30.5898 29.0655 30.6716C29.1383 30.7535 29.1764 30.8604 29.1718 30.9698C29.1635 31.0783 29.1128 31.1792 29.0307 31.2506C28.9486 31.3221 28.8417 31.3584 28.7331 31.3517Z" fill="#3D2616"/>
<path d="M34.2662 31.3516C34.1724 31.3328 34.0879 31.282 34.0273 31.208C33.9666 31.1339 33.9335 31.0411 33.9335 30.9454C33.9335 30.8497 33.9666 30.7569 34.0273 30.6829C34.0879 30.6088 34.1724 30.558 34.2662 30.5391L37.1831 30.3685C37.2371 30.3653 37.2912 30.3728 37.3423 30.3907C37.3934 30.4086 37.4403 30.4366 37.4805 30.4729C37.5206 30.5093 37.553 30.5532 37.5759 30.6023C37.5988 30.6513 37.6116 30.7044 37.6137 30.7585C37.6181 30.8121 37.6117 30.8661 37.5947 30.9171C37.5777 30.9682 37.5505 31.0152 37.5148 31.0555C37.4791 31.0957 37.4357 31.1283 37.387 31.1513C37.3384 31.1743 37.2856 31.1872 37.2319 31.1892L34.315 31.3598L34.2662 31.3516Z" fill="#3D2616"/>
</svg>
