<svg width="62" height="62" viewBox="0 0 62 62" fill="none" xmlns="http://www.w3.org/2000/svg">
<circle cx="31" cy="31" r="31" fill="#FFE9B1"/>
<path d="M12.2799 24.1177L25.1012 14.7171C23.3168 13.5454 21.3629 12.6548 19.3081 12.0765C16.6024 11.3127 13.7099 10.4921 11.9549 11.9871C10.5331 13.1896 10.5331 15.3346 10.5331 17.2764C10.5479 19.6653 11.1476 22.0142 12.2799 24.1177Z" fill="#EFE8DF"/>
<path d="M12.1337 24.7271L11.9143 24.3127C10.7419 22.1524 10.1248 19.7345 10.1187 17.2765C10.1187 15.2696 10.1187 12.9946 11.6868 11.6702C13.6124 10.0452 16.7 10.9065 19.4218 11.6702C21.518 12.2596 23.5105 13.1695 25.3287 14.3677L25.8243 14.6927L12.1337 24.7271ZM14.5712 11.5646C13.7207 11.5154 12.8811 11.7751 12.2068 12.2958C10.9312 13.3846 10.9312 15.359 10.9312 17.2765C10.9303 19.4382 11.4368 21.57 12.4099 23.5002L24.3537 14.7415C22.7467 13.7496 21.0105 12.984 19.1943 12.4665C17.7044 11.9671 16.1557 11.6639 14.5874 11.5646H14.5712Z" fill="#5B3820"/>
<path d="M14.8149 21.1846L21.5668 16.2365C20.63 15.615 19.602 15.1435 18.5199 14.839C17.0899 14.4408 15.5706 14.0265 14.6443 14.7902C13.8968 15.424 13.8968 16.5533 13.8968 17.5852C13.8965 18.843 14.2122 20.0806 14.8149 21.1846Z" fill="#A8693F"/>
<path d="M14.6687 21.802L14.4818 21.4039C13.855 20.2369 13.5231 18.9343 13.5149 17.6096C13.5149 16.5046 13.5149 15.2614 14.4087 14.5058C15.5055 13.5796 17.1793 14.0508 18.6662 14.4652C19.7865 14.7856 20.852 15.2731 21.8268 15.9114L22.3225 16.2446L14.6687 21.802ZM16.0337 14.7658C15.6313 14.7429 15.2339 14.8638 14.9125 15.107C14.3112 15.6189 14.3031 16.6183 14.3031 17.5445C14.3084 18.5722 14.5356 19.5866 14.9693 20.5183L20.8274 16.2202C20.061 15.7782 19.2421 15.4342 18.3899 15.1964C17.6259 14.9539 16.8341 14.8093 16.0337 14.7658Z" fill="#5B3820"/>
<path d="M51.4181 25.5396L38.9949 15.619C40.8247 14.509 42.8142 13.6869 44.8937 13.1815C47.6318 12.5315 50.5812 11.8327 52.2062 13.3927C53.5793 14.6602 53.4899 16.7971 53.4087 18.7471C53.3113 21.1401 52.6278 23.4726 51.4181 25.5396Z" fill="#EFE8DF"/>
<path d="M51.5318 26.1571L38.2719 15.5946L38.7837 15.2859C40.6523 14.1725 42.6798 13.3506 44.7962 12.8484C47.5506 12.1984 50.6706 11.459 52.5231 13.1653C54.0343 14.5628 53.9368 16.8296 53.8556 18.8528C53.7391 21.3045 53.022 23.69 51.7675 25.7996L51.5318 26.1571ZM39.7262 15.6678L51.2962 24.914C52.344 23.026 52.9392 20.9205 53.035 18.7634C53.1081 16.8459 53.1893 14.8634 51.9625 13.734C50.435 12.3203 47.6643 12.9784 44.9831 13.6121C43.1446 14.0523 41.3756 14.7441 39.7262 15.6678Z" fill="#5B3820"/>
<path d="M49.0049 22.5008L42.4562 17.2764C43.4221 16.6964 44.4718 16.2689 45.5681 16.0089C47.0062 15.6677 48.55 15.3021 49.4356 16.1227C50.1587 16.789 50.1181 17.9183 50.0693 18.9421C50.0138 20.198 49.6481 21.4206 49.0049 22.5008Z" fill="#A8693F"/>
<path d="M49.1187 23.1183L41.7412 17.2277L42.2449 16.919C43.2548 16.3189 44.3509 15.8777 45.4949 15.6108C46.9899 15.2533 48.6881 14.8471 49.7443 15.8221C50.6056 16.6346 50.5568 17.8615 50.5081 18.9583C50.4488 20.2828 50.0636 21.5721 49.3868 22.7121L49.1187 23.1183ZM43.1956 17.3415L48.8831 21.8834C49.3614 20.9695 49.6385 19.9638 49.6956 18.934C49.6956 17.9671 49.7768 16.9677 49.1918 16.4315C48.4606 15.7571 47.0549 16.0983 45.6899 16.4315C44.824 16.6303 43.9862 16.936 43.1956 17.3415Z" fill="#5B3820"/>
<path d="M45.2675 18.2352C39.7587 14.0427 33.4943 13.9534 31.455 13.9534C29.4156 13.9534 23.1106 14.0346 17.5856 18.2352C10.6631 23.5002 5.71498 34.6234 10.135 42.8783C14.8312 51.6615 27.1975 51.6615 31.4387 51.6615C35.68 51.6615 48.0381 51.6615 52.7425 42.8783C57.13 34.6234 52.19 23.5002 45.2675 18.2352Z" fill="#DD925F"/>
<path d="M31.4143 52.0758C27.2462 52.0758 14.563 52.0758 9.7449 43.0733C5.3249 34.8183 10.0943 23.3946 17.3093 17.8858C21.1199 14.9933 25.8649 13.5227 31.4062 13.5227C36.9474 13.5227 41.6843 14.9933 45.4949 17.8858C52.7099 23.3783 57.4711 34.8021 53.0593 43.0733C48.2655 52.0758 35.6068 52.0758 31.4143 52.0758ZM31.4143 14.3677C26.0518 14.3677 21.4774 15.7815 17.8212 18.5602C10.8662 23.8415 6.25928 34.8102 10.5087 42.6833C15.0912 51.2471 27.4005 51.2471 31.4468 51.2471C47.8024 51.2471 51.2556 44.804 52.3849 42.6833C56.6018 34.794 51.9949 23.8415 45.0724 18.5602C41.4162 15.7815 36.8418 14.3677 31.4874 14.3677H31.4143Z" fill="#5B3820"/>
<path d="M35.5012 27.2216C36.3942 27.2216 37.1181 26.9451 37.1181 26.6041C37.1181 26.263 36.3942 25.9866 35.5012 25.9866C34.6082 25.9866 33.8843 26.263 33.8843 26.6041C33.8843 26.9451 34.6082 27.2216 35.5012 27.2216Z" fill="#A5683D"/>
<path d="M27.6281 27.2216C28.521 27.2216 29.2449 26.9451 29.2449 26.6041C29.2449 26.263 28.521 25.9866 27.6281 25.9866C26.7351 25.9866 26.0112 26.263 26.0112 26.6041C26.0112 26.9451 26.7351 27.2216 27.6281 27.2216Z" fill="#A5683D"/>
<path d="M28.2456 32.3078L26.1412 32.1859C26.0442 32.1859 25.9512 32.1474 25.8827 32.0788C25.8141 32.0102 25.7756 31.9173 25.7756 31.8203C25.7756 31.7233 25.8141 31.6303 25.8827 31.5618C25.9512 31.4932 26.0442 31.4547 26.1412 31.4547L28.2537 31.5847C28.3403 31.5977 28.4193 31.6413 28.4764 31.7077C28.5335 31.774 28.565 31.8586 28.565 31.9462C28.565 32.0337 28.5335 32.1184 28.4764 32.1848C28.4193 32.2511 28.3403 32.2948 28.2537 32.3078H28.2456Z" fill="#A5683D"/>
<path d="M34.7212 32.3077C34.6291 32.3078 34.5405 32.2724 34.4739 32.2088C34.4073 32.1453 34.3678 32.0585 34.3637 31.9665C34.3592 31.9186 34.3646 31.8704 34.3797 31.8247C34.3947 31.779 34.419 31.737 34.451 31.7011C34.4831 31.6653 34.5221 31.6364 34.5658 31.6164C34.6095 31.5963 34.6569 31.5855 34.7049 31.5846L36.8093 31.4546C36.9053 31.452 36.9988 31.4857 37.071 31.549C37.1433 31.6122 37.1891 31.7003 37.1993 31.7958C37.2039 31.8924 37.1709 31.9869 37.1072 32.0596C37.0436 32.1323 36.9543 32.1776 36.858 32.1859L34.7456 32.3077H34.7212Z" fill="#A5683D"/>
<path d="M10.858 31.8526C10.7524 31.8516 10.6509 31.811 10.5737 31.7389C9.99623 31.1924 9.31713 30.7645 8.57492 30.4795C7.57258 30.1009 6.48914 29.989 5.43055 30.1545C5.32929 30.1585 5.23008 30.1252 5.1517 30.061C5.07332 29.9967 5.02122 29.906 5.00521 29.8059C4.9892 29.7059 5.01039 29.6034 5.06482 29.5179C5.11924 29.4325 5.20313 29.3699 5.30057 29.342C6.5011 29.152 7.73045 29.278 8.86746 29.7076C9.70912 30.0319 10.4792 30.5177 11.1343 31.1376C11.2117 31.2153 11.2552 31.3205 11.2552 31.4302C11.2552 31.5398 11.2117 31.645 11.1343 31.7227C11.0608 31.7977 10.9627 31.8438 10.858 31.8526Z" fill="#6D4833"/>
<path d="M10.9881 33.3395H10.8906C9.16804 32.8964 7.3718 32.8189 5.61748 33.112C5.56357 33.1213 5.50831 33.1199 5.45497 33.1077C5.40163 33.0956 5.35126 33.073 5.30669 33.0413C5.26213 33.0096 5.22425 32.9693 5.19531 32.9229C5.16637 32.8764 5.14694 32.8248 5.13808 32.7708C5.12354 32.6625 5.15069 32.5527 5.21406 32.4637C5.27742 32.3747 5.37224 32.3131 5.47932 32.2914C6.5156 32.1222 7.56771 32.0704 8.61561 32.137C9.45241 32.1957 10.282 32.3317 11.0937 32.5433C11.189 32.5707 11.2712 32.6313 11.3256 32.7142C11.38 32.797 11.4029 32.8966 11.3901 32.9949C11.3773 33.0932 11.3297 33.1837 11.2559 33.2499C11.1822 33.3161 11.0872 33.3537 10.9881 33.3558V33.3395Z" fill="#6D4833"/>
<path d="M51.0443 33.0552C50.9879 33.0561 50.9319 33.045 50.88 33.0225C50.8282 33.0001 50.7817 32.9669 50.7437 32.9252C50.7044 32.8873 50.6731 32.8419 50.6518 32.7916C50.6304 32.7413 50.6194 32.6873 50.6194 32.6327C50.6194 32.5781 50.6304 32.524 50.6518 32.4738C50.6731 32.4235 50.7044 32.3781 50.7437 32.3402C51.4042 31.7252 52.1765 31.2426 53.0187 30.9183C54.1529 30.4886 55.3796 30.3626 56.5774 30.5527C56.6314 30.5607 56.6832 30.5792 56.7299 30.6072C56.7767 30.6352 56.8174 30.6721 56.8499 30.7159C56.8823 30.7596 56.9058 30.8094 56.919 30.8623C56.9322 30.9151 56.9349 30.9701 56.9268 31.024C56.9069 31.1304 56.847 31.2251 56.7593 31.2886C56.6716 31.3521 56.5629 31.3795 56.4555 31.3652C55.397 31.1993 54.3134 31.3112 53.3112 31.6902C52.568 31.9733 51.8886 32.4014 51.3125 32.9496C51.2379 33.0146 51.1432 33.0519 51.0443 33.0552Z" fill="#6D4833"/>
<path d="M56.5124 35.7365C56.4749 35.7444 56.4362 35.7444 56.3987 35.7365C55.4492 35.4535 54.4706 35.2791 53.4818 35.2165C52.6921 35.1784 51.9006 35.2138 51.1175 35.3221C51.0177 35.3218 50.9214 35.2856 50.8462 35.22C50.771 35.1544 50.7221 35.064 50.7082 34.9652C50.6944 34.8664 50.7166 34.7659 50.7709 34.6822C50.8252 34.5986 50.9079 34.5373 51.0037 34.5096C51.8357 34.3986 52.6757 34.3606 53.5143 34.3959C54.5626 34.451 55.6012 34.6255 56.6099 34.9159C56.7177 34.931 56.815 34.9882 56.8805 35.0751C56.9461 35.1619 56.9744 35.2713 56.9593 35.379C56.9442 35.4867 56.8869 35.5841 56.8001 35.6496C56.7132 35.7151 56.6039 35.7435 56.4962 35.7284L56.5124 35.7365Z" fill="#6D4833"/>
<path d="M30.7318 15.8465C30.6565 15.8474 30.5825 15.8274 30.5179 15.7887C30.4534 15.7499 30.4008 15.694 30.3662 15.6271C30.0549 15.0483 29.8304 14.4269 29.6999 13.7827C29.5252 12.9304 29.5252 12.0514 29.6999 11.199C29.7097 11.1448 29.7301 11.093 29.7601 11.0468C29.7901 11.0006 29.829 10.9608 29.8746 10.9298C29.9201 10.8988 29.9714 10.8772 30.0254 10.8662C30.0794 10.8552 30.135 10.8551 30.189 10.8659C30.2431 10.8768 30.2944 10.8982 30.34 10.9291C30.3857 10.96 30.4247 10.9997 30.4548 11.0458C30.4849 11.092 30.5055 11.1437 30.5154 11.1979C30.5253 11.2521 30.5243 11.3077 30.5124 11.3615C30.3614 12.1069 30.3614 12.8749 30.5124 13.6202C30.6301 14.1879 30.8299 14.7353 31.1056 15.2452C31.1309 15.2937 31.1463 15.3468 31.151 15.4013C31.1557 15.4558 31.1496 15.5107 31.133 15.5628C31.1163 15.6149 31.0896 15.6632 31.0542 15.7049C31.0188 15.7467 30.9755 15.781 30.9268 15.8059C30.8667 15.8368 30.7993 15.8508 30.7318 15.8465Z" fill="#6D4833"/>
<path d="M33.2262 16.1959C33.1191 16.1959 33.016 16.1545 32.9388 16.0803C32.8615 16.006 32.816 15.9048 32.8118 15.7977C32.7955 15.1027 32.8308 14.4075 32.9174 13.7177C33.0254 12.7952 33.2047 11.8825 33.4537 10.9877C33.4839 10.8822 33.5548 10.793 33.6508 10.7397C33.7468 10.6863 33.86 10.6733 33.9656 10.7034C34.0181 10.7164 34.0675 10.7401 34.1106 10.7728C34.1537 10.8056 34.1896 10.8468 34.2162 10.894C34.2429 10.9411 34.2595 10.9932 34.2653 11.0471C34.2711 11.1009 34.2659 11.1554 34.25 11.2071C34.013 12.0621 33.8418 12.934 33.7381 13.8152C33.6582 14.4647 33.6256 15.1191 33.6406 15.7733C33.6428 15.828 33.6339 15.8826 33.6144 15.9338C33.595 15.985 33.5654 16.0317 33.5275 16.0712C33.4895 16.1107 33.444 16.142 33.3936 16.1634C33.3432 16.1849 33.2891 16.1959 33.2343 16.1959H33.2262Z" fill="#6D4833"/>
<path d="M35.5012 31.0891C36.4031 31.0891 37.1343 30.3579 37.1343 29.4559C37.1343 28.554 36.4031 27.8228 35.5012 27.8228C34.5992 27.8228 33.8681 28.554 33.8681 29.4559C33.8681 30.3579 34.5992 31.0891 35.5012 31.0891Z" fill="#422A1F"/>
<path d="M35.355 29.6345C35.678 29.6345 35.94 29.3726 35.94 29.0495C35.94 28.7264 35.678 28.4645 35.355 28.4645C35.0319 28.4645 34.77 28.7264 34.77 29.0495C34.77 29.3726 35.0319 29.6345 35.355 29.6345Z" fill="#F2EEE7"/>
<path d="M35.9968 30.374C36.1583 30.374 36.2893 30.243 36.2893 30.0815C36.2893 29.92 36.1583 29.789 35.9968 29.789C35.8353 29.789 35.7043 29.92 35.7043 30.0815C35.7043 30.243 35.8353 30.374 35.9968 30.374Z" fill="#F2EEE7"/>
<path d="M27.6281 31.0891C28.53 31.0891 29.2612 30.3579 29.2612 29.4559C29.2612 28.554 28.53 27.8228 27.6281 27.8228C26.7261 27.8228 25.9949 28.554 25.9949 29.4559C25.9949 30.3579 26.7261 31.0891 27.6281 31.0891Z" fill="#422A1F"/>
<path d="M27.4899 29.6345C27.813 29.6345 28.0749 29.3726 28.0749 29.0495C28.0749 28.7264 27.813 28.4645 27.4899 28.4645C27.1668 28.4645 26.9049 28.7264 26.9049 29.0495C26.9049 29.3726 27.1668 29.6345 27.4899 29.6345Z" fill="#F2EEE7"/>
<path d="M28.1237 30.374C28.2852 30.374 28.4162 30.243 28.4162 30.0815C28.4162 29.92 28.2852 29.789 28.1237 29.789C27.9621 29.789 27.8312 29.92 27.8312 30.0815C27.8312 30.243 27.9621 30.374 28.1237 30.374Z" fill="#F2EEE7"/>
<path d="M31.5478 36.667C33.3754 36.5591 34.804 35.5746 34.7387 34.4682C34.6733 33.3617 33.1388 32.5523 31.3111 32.6603C29.4835 32.7682 28.0549 33.7526 28.1202 34.8591C28.1856 35.9655 29.7201 36.775 31.5478 36.667Z" fill="#EFE8DF"/>
<path d="M31.2031 37.1177C30.4279 37.1303 29.6612 36.9547 28.9687 36.6059C28.6139 36.4785 28.3042 36.2497 28.0782 35.9479C27.8521 35.6462 27.7196 35.2847 27.6971 34.9084C27.6746 34.532 27.7631 34.1573 27.9516 33.8307C28.1401 33.5042 28.4203 33.2402 28.7575 33.0715C29.5069 32.5816 30.3737 32.3011 31.2681 32.259C33.3562 32.1371 35.0543 33.0715 35.1356 34.4527C35.2168 35.8096 33.6406 36.9633 31.5525 37.0852L31.2031 37.1177ZM31.6175 33.0552H31.3168C30.5744 33.0838 29.8534 33.3111 29.2287 33.7134C29.0276 33.8234 28.8574 33.9822 28.7339 34.1754C28.6103 34.3685 28.5374 34.5896 28.5219 34.8184C28.5219 35.3384 29.05 35.6796 29.3344 35.8421C30.0046 36.1617 30.7472 36.299 31.4875 36.2402C33.0637 36.1509 34.3475 35.3384 34.2906 34.4771C34.2581 33.7134 33.0556 33.0877 31.6175 33.0877V33.0552Z" fill="#5B3820"/>
<path d="M31.4792 35.3769C31.9674 35.348 32.3461 35.0341 32.325 34.6758C32.3038 34.3174 31.8908 34.0503 31.4025 34.0791C30.9143 34.108 30.5356 34.4218 30.5568 34.7802C30.578 35.1386 30.9909 35.4057 31.4792 35.3769Z" fill="#5B3820"/>
</svg>
