<svg width="72" height="72" viewBox="0 0 72 72" fill="none" xmlns="http://www.w3.org/2000/svg">
<path d="M36 72C55.8823 72 72 55.8823 72 36C72 16.1177 55.8823 0 36 0C16.1177 0 0 16.1177 0 36C0 55.8823 16.1177 72 36 72Z" fill="#F7F7F7"/>
<mask id="mask0_858_5209" style="mask-type:alpha" maskUnits="userSpaceOnUse" x="0" y="0" width="72" height="72">
<path d="M36 72C55.8823 72 72 55.8823 72 36C72 16.1177 55.8823 0 36 0C16.1177 0 0 16.1177 0 36C0 55.8823 16.1177 72 36 72Z" fill="#EFEFEF"/>
</mask>
<g mask="url(#mask0_858_5209)">
<path d="M13.8 16C10.8 18.1 13.8 26.3 15.6 28.2C17.4 30.1 24.3 19.9 24.3 19.9C24.3 19.9 17.5 13.4 13.8 16Z" fill="white"/>
<path d="M58.2 16C61.2 18.1 58.2 26.3 56.4 28.2C54.5 30.1 47.7 19.9 47.7 19.9C47.7 19.9 54.5 13.4 58.2 16Z" fill="white"/>
<path d="M27.2001 45.9001C15.9001 49.8001 13.9001 64.5001 14.4001 71.4001H57.7001C58.5001 55.7001 51.6001 47.8001 48.1001 45.9001C45.8001 44.3001 38.5001 42.0001 27.2001 45.9001Z" fill="#707070"/>
<path d="M57.6999 72H14.2999C13.9999 72 13.6999 71.8 13.6999 71.4C13.1999 64.1 15.3999 49.3 26.8999 45.3C31.9999 43.6 36.6999 42.8 40.9999 43.2C45.4999 43.6 47.6999 44.9 48.2999 45.4C52.0999 47.5 58.8999 55.6 58.0999 71.5C58.1999 71.8 57.9999 72 57.6999 72ZM14.8999 70.8H57.0999C57.6999 55.9 51.2999 48.3 47.7999 46.4C47.7999 46.4 47.7999 46.4 47.6999 46.4C45.3999 44.8 38.2999 42.7 27.2999 46.5C16.7999 50.1 14.5999 63.7 14.8999 70.8Z" fill="#707070"/>
<path d="M14.4 72C14.1 72 13.8 71.8 13.8 71.4C13.3 64.1 15.5 49.3 27 45.3C32.1 43.6 36.8 42.8 41.1 43.2C45.6 43.6 47.8 44.9 48.4 45.4C52.2 47.5 59 55.6 58.2 71.5C58.2 71.8 57.9 72.1 57.6 72.1C57.3 72.1 57 71.8 57 71.5C57.7 56.2 51.3 48.5 47.7 46.5C47.7 46.5 47.7 46.5 47.6 46.5C45.3 44.9 38.2 42.8 27.2 46.6C16.4 50.3 14.3 64.5 14.8 71.5C15 71.7 14.7 72 14.4 72Z" fill="#515151"/>
<path d="M16.5 30.4C16.5 30.4 16.4 30.4 16.5 30.4C16.3 30.4 16.1 30.3 16.1 30.2C13.8 27 12.8 24.2 12.4 22.4C12.3 22.1 12.5 21.8 12.8 21.7C13.1 21.6 13.4 21.8 13.5 22.1C13.9 23.7 14.7 26.2 16.6 29L24.6 21C20.3 16.4 15.7 15.2 14.2 16.4C13.6 16.9 13.2 18 13.2 19.5C13.2 19.8 12.9 20.1 12.6 20.1C12.3 20.1 12 19.8 12 19.5C12 17.7 12.5 16.3 13.4 15.6C15.6 13.8 21 15.4 25.7 20.7C25.9 20.9 25.9 21.3 25.7 21.5L16.9 30.3C16.8 30.4 16.6 30.4 16.5 30.4Z" fill="#515151"/>
<path d="M16.6 19.2C17.5 18.5 19.8 19.3 21.8 21.6C21.1 22.1 20.4 22.6 19.7 23.3C18.9 24 18.3 24.7 17.7 25.3C15.8 22.7 15.7 19.9 16.6 19.2Z" fill="#515151"/>
<path d="M55.4999 30.4C55.3999 30.4 55.1999 30.3 55.0999 30.2L46.2999 21.4C46.0999 21.2 46.0999 20.9 46.2999 20.6C50.9999 15.4 56.3999 13.7 58.5999 15.5C59.4999 16.2 59.9999 17.6 59.9999 19.4C59.9999 19.7 59.7999 20 59.3999 20C59.0999 20 58.7999 19.8 58.7999 19.4C58.7999 18 58.3999 16.8 57.7999 16.3C56.2999 15.1 51.6999 16.3 47.3999 20.9L55.3999 28.9C57.2999 26.1 58.1999 23.6 58.4999 22C58.5999 21.7 58.8999 21.5 59.1999 21.6C59.4999 21.7 59.6999 22 59.5999 22.3C59.1999 24.1 58.1999 27 55.8999 30.1C55.8999 30.3 55.6999 30.4 55.4999 30.4C55.5999 30.4 55.4999 30.4 55.4999 30.4Z" fill="#515151"/>
<path d="M55.4 19.2C54.5 18.5 52.2 19.3 50.2 21.6C50.9 22.1 51.5999 22.6 52.2999 23.3C53.0999 24 53.6999 24.7 54.2999 25.3C56.1999 22.7 56.3 19.9 55.4 19.2Z" fill="#515151"/>
<path d="M58.4001 33.5C58.4001 38 56.0001 42.2 52.0001 45.3C48.0001 48.4 42.4001 50.4 36.1001 50.4C29.9001 50.5 24.2001 48.6 20.2001 45.6C16.1001 42.6 13.7001 38.4 13.6001 33.9C13.6001 29.4 16.0001 25.2 20.0001 22.1C24.0001 19 29.6001 17 35.9001 17C42.1001 16.9 47.8001 18.8 51.8001 21.8C55.9001 24.9 58.4001 29 58.4001 33.5Z" fill="#BCBCBC"/>
<path d="M34 17.9C33.9 17.9 33.8 17.9 33.7 17.8C33.4 17.6 33.3 17.2 33.5 16.9C34.1 15.9 35.4 14.7 36.2 14.1C36.5 13.9 36.9 14 37.1 14.3C37.3 14.6 37.2 15 36.9 15.2C36.2 15.7 35 16.8 34.5 17.6C34.4 17.8 34.2 17.9 34 17.9Z" fill="#515151"/>
<path d="M36.5 17.8C36.4 17.8 36.2 17.7 36.1 17.6C35.8 17.4 35.8 17.0001 36 16.7001C36.7 15.8001 38.2 14.8 39.1 14.3C39.4 14.1 39.8 14.3 40 14.6C40.2 14.9 40 15.3 39.7 15.5C38.9 15.9 37.6 16.8 37 17.6C36.9 17.8 36.7 17.8 36.5 17.8Z" fill="#515151"/>
<path d="M35.9 51.1C29.8 51.1 24.1 49.3 19.8 46.1C15.4 42.9 13 38.5 13 33.9C13 29.3 15.3 24.9 19.6 21.6C22.5 19.1 27.5 17.1 32.3 16.6C32.7 16.6 33 16.8 33 17.2C33 17.6 32.8 17.9 32.4 17.9C27.9 18.3 23.1 20.2 20.4 22.6C16.4 25.7 14.2 29.7 14.3 33.9C14.3 38.1 16.6 42.1 20.6 45.1C24.8 48.2 30.3 49.9 36.2 49.8C42.1 49.8 47.6 48 51.7 44.8C55.7 41.7 57.9 37.7 57.8 33.5C57.8 29.3 55.5 25.3 51.5 22.3C48.3 19.9 43.1 18 39 17.7C38.6 17.7 38.4 17.4 38.4 17C38.4 16.6 38.7 16.4 39.1 16.4C43.5 16.7 48.9 18.7 52.3 21.2C56.7 24.4 59.1 28.8 59.1 33.4C59.1 38 56.8 42.4 52.5 45.7C48 49.1 42.3 51 36.1 51.1C36 51.1 35.9 51.1 35.9 51.1Z" fill="#515151"/>
<path d="M30.1999 33.4C29.9999 33.4 29.7999 33.3 29.7999 33.1C29.6999 32.9 29.7999 32.6 30.0999 32.5L31.3999 32L29.9999 31.5C29.7999 31.4 29.5999 31.1 29.6999 30.9C29.7999 30.7 30.0999 30.5 30.2999 30.6L32.7999 31.5C32.9999 31.6 33.0999 31.7 33.0999 32C33.0999 32.2 32.9999 32.4 32.7999 32.5L30.2999 33.4H30.1999Z" fill="#515151"/>
<path d="M40.3 33.4C40.2 33.4 40.2 33.4 40.1 33.4L37.6 32.5C37.4 32.4 37.3 32.3 37.3 32C37.3 31.8 37.4 31.6 37.6 31.5L40.1 30.6C40.3 30.5 40.6001 30.6 40.7001 30.9C40.8001 31.1 40.7001 31.4 40.4001 31.5L39.2001 32L40.5 32.5C40.7 32.6 40.9 32.9 40.8 33.1C40.7 33.3 40.5 33.4 40.3 33.4Z" fill="#515151"/>
<path d="M35.6999 44.7C37.4999 44.7 38.8999 42.9 38.8999 40.8C38.8999 38.7 37.3999 37 35.5999 37C33.7999 37 32.3999 38.8 32.3999 40.9C32.3999 43 33.8999 44.7 35.6999 44.7Z" fill="#515151"/>
<path d="M43.8 36.5C43.4 35.7 41.7 35.8 39.1 36.1C38 36.2 37 36.3 36.3 36.3C35.8 36.3 35.3 36.2 34.8 36.2C30.3 35.9 27.4 35.7 26.6 37.7C26.4 38.2 26.6 38.6 26.7 38.8C27.2 39.4 28.3 39.6 29.8 39.6C31.3 39.6 33.2 39.4 35.1 39.1C35.4 39.1 35.7 39 35.9 39C36.4 38.9 37.4 39.1 38.5 39.2C40.6 39.5 42.1 39.7 42.8 39.3C44.2 38.6 44.2 37.4 43.8 36.5Z" fill="white"/>
<path d="M35.6001 36.9C36.5001 36.9 37.3001 36.4 37.2001 35.9C37.2001 35.3 36.5001 34.9 35.5001 34.9C34.6001 34.9 33.8001 35.4 33.9001 35.9C34.0001 36.5 34.7001 36.9 35.6001 36.9Z" fill="#515151"/>
<path d="M23.5 55.7C24.9 55.8 26.6 55.9 27.8 55.7C28.6 55.6 27.8 51.7 30.2 51.9C32.5 52.1 32.2 54.4 32.2 55.8C34.6 55.9 36.9 56.2 36.9 60.3C36.9 66.3 29.5 65.3 23.5 65" fill="white"/>
<path d="M29.2999 66C27.8999 66 26.3999 65.9 24.8999 65.8C24.3999 65.8 23.9999 65.7 23.4999 65.7C23.0999 65.7 22.8999 65.4 22.8999 65C22.8999 64.6 23.1999 64.4 23.5999 64.4C24.0999 64.4 24.4999 64.5 24.9999 64.5C28.8999 64.8 33.2999 65 35.1999 63.2C35.8999 62.5 36.2999 61.6 36.2999 60.4C36.2999 56.9 34.7999 56.6 32.1999 56.5C31.8999 56.5 31.5999 56.2 31.5999 55.9C31.5999 55.8 31.5999 55.6 31.5999 55.4C31.5999 53.5 31.3999 52.7 30.1999 52.6C29.3999 52.5 29.1999 53.1 28.8999 54.6C28.7999 55.4 28.5999 56.2 27.8999 56.4C26.6999 56.6 25.0999 56.5 23.4999 56.5C23.0999 56.5 22.8999 56.2 22.8999 55.8C22.8999 55.4 23.1999 55.2 23.5999 55.2C24.5999 55.3 26.3999 55.3 27.4999 55.2C27.5999 55 27.5999 54.7 27.5999 54.5C27.7999 53.4 28.0999 51.2 30.1999 51.4C32.7999 51.6 32.7999 54 32.7999 55.4C34.8999 55.6 37.4999 56.1 37.4999 60.6C37.4999 62.2 36.9999 63.5 35.9999 64.4C34.4999 65.6 31.9999 66 29.2999 66Z" fill="#515151"/>
</g>
</svg>
