<svg width="62" height="62" viewBox="0 0 62 62" fill="none" xmlns="http://www.w3.org/2000/svg">
<circle cx="31" cy="31" r="31" fill="#EFEFEF"/>
<path d="M12.3319 24.1431L25.1416 14.7555C23.3622 13.5814 21.4122 12.6891 19.3605 12.1101C16.652 11.348 13.7639 10.5326 12.0116 12.0179C10.5894 13.2265 10.5894 15.3671 10.5894 17.3087C10.5992 19.6955 11.1977 22.043 12.3319 24.1431V24.1431Z" fill="#E9E9E9"/>
<path d="M12.1912 24.7547L11.9679 24.3372C10.8033 22.1767 10.1882 19.7629 10.1768 17.3086C10.1768 15.304 10.1767 13.0323 11.7446 11.7072C13.6862 10.0762 16.749 10.9451 19.4721 11.7072C21.5655 12.2969 23.5549 13.2073 25.3697 14.406L25.8551 14.7312L12.1912 24.7547ZM14.6181 11.6004C13.7692 11.5525 12.9315 11.8128 12.2591 12.3333C10.9825 13.4158 10.9825 15.3962 10.9825 17.3086C10.9859 19.4638 11.4841 21.5895 12.4387 23.5217L24.3746 14.7846C22.767 13.791 21.0287 13.0264 19.21 12.5129C17.6519 12.0566 16.0258 11.6004 14.6473 11.6004H14.6181Z" fill="#404040"/>
<path d="M14.8656 21.2113L21.6175 16.2651C20.6772 15.65 19.6496 15.1804 18.5692 14.872C17.1421 14.4692 15.6228 14.042 14.686 14.8284C13.9385 15.4594 13.9385 16.5904 13.9385 17.6145C13.9473 18.8714 14.2658 20.1068 14.8656 21.2113Z" fill="#777777"/>
<path d="M14.7248 21.8278L14.5016 21.4055C13.8741 20.2397 13.5409 18.9384 13.5308 17.6145C13.5308 16.5127 13.5308 15.27 14.4239 14.5128C15.516 13.5857 17.1955 14.0566 18.676 14.4788C19.7978 14.799 20.8637 15.2902 21.8359 15.935L22.3213 16.2651L14.7248 21.8278ZM16.0839 14.7992C15.6815 14.7742 15.2835 14.8948 14.9627 15.139C14.3608 15.6535 14.3608 16.6486 14.3608 17.6145C14.3617 18.642 14.5852 19.6572 15.0161 20.59L20.8797 16.3088C20.1168 15.8671 19.3014 15.523 18.4527 15.2846C17.6931 15.0246 16.9038 14.8615 16.1034 14.7992H16.0839Z" fill="#404040"/>
<path d="M51.4404 25.5605L39.0288 15.6487C40.8582 14.5537 42.8435 13.7435 44.9167 13.246C47.6592 12.5955 50.5764 11.9063 52.2656 13.4644C53.6344 14.7264 53.547 16.8622 53.4645 18.8038C53.3551 21.1881 52.6599 23.5087 51.4404 25.5605V25.5605Z" fill="#E9E9E9"/>
<path d="M51.5375 26.1818L38.2959 15.6001L38.8056 15.2943C40.6709 14.1825 42.696 13.3639 44.8099 12.8673C47.5573 12.212 50.6784 11.4694 52.5326 13.178C54.0422 14.5711 53.9451 16.8427 53.8626 18.8426C53.756 21.2949 53.0404 23.6821 51.7802 25.7886L51.5375 26.1818ZM39.7424 15.7021L51.3045 24.9246C52.3504 23.0381 52.9437 20.9345 53.0374 18.7795C53.1199 16.8379 53.1976 14.8963 51.9695 13.7508C50.4405 12.3431 47.6738 12.9984 44.9992 13.6343C43.1647 14.0781 41.4005 14.774 39.7569 15.7021H39.7424Z" fill="#404040"/>
<path d="M49.028 22.5316L42.4897 17.3087C43.4544 16.7299 44.5021 16.3027 45.5963 16.0418C47.0525 15.6972 48.5718 15.3331 49.4795 16.1583C50.2027 16.8233 50.1542 17.9494 50.1105 18.9736C50.0472 20.2305 49.6755 21.4524 49.028 22.5316V22.5316Z" fill="#777777"/>
<path d="M49.1447 23.1481L41.7715 17.2797L42.2811 16.9739C43.2808 16.3744 44.366 15.9308 45.4993 15.6584C46.9992 15.3041 48.6932 14.9012 49.7466 15.872C50.6057 16.668 50.5572 17.9107 50.5086 19.0077C50.4452 20.3309 50.0603 21.6187 49.3874 22.7598L49.1447 23.1481ZM43.2277 17.367L48.902 21.9007C49.3759 20.9879 49.6427 19.9819 49.6835 18.9543C49.7271 17.9835 49.766 17.0127 49.1981 16.4593C48.47 15.7846 47.0672 16.1196 45.708 16.4593C44.8461 16.6554 44.0126 16.9604 43.2277 17.367Z" fill="#404040"/>
<path d="M45.2952 18.2503C39.786 14.0662 33.534 13.974 31.4711 13.974C29.4082 13.974 23.132 14.0565 17.613 18.2503C10.6912 23.5072 5.75473 34.6277 10.167 42.8794C14.8608 51.6505 27.1802 51.6505 31.4517 51.6505C35.7232 51.6505 48.0426 51.6505 52.7412 42.8794C57.1535 34.6422 52.2121 23.5218 45.2952 18.2503Z" fill="#A3A3A3"/>
<path d="M31.4517 52.0777C27.287 52.0777 14.6133 52.0777 9.80298 43.0881C5.39072 34.8363 10.1476 23.4198 17.3655 17.9348C21.171 15.0224 25.9085 13.5662 31.442 13.5662H31.4663C37.0047 13.5662 41.7373 15.0224 45.5428 17.9348C52.7607 23.4198 57.5176 34.8315 53.1004 43.0881C48.2901 52.0777 35.6164 52.0777 31.4517 52.0777ZM31.4517 14.4011C26.1123 14.4011 21.5253 15.8088 17.8606 18.5901C10.9194 23.8712 6.31297 34.8169 10.5311 42.6949C15.1326 51.2573 27.4132 51.2573 31.4517 51.2573C47.795 51.2573 51.2414 44.8161 52.3772 42.6998C56.5905 34.8218 51.9889 23.8761 45.0428 18.595C41.3878 15.8185 36.8251 14.4108 31.4517 14.406V14.4011Z" fill="#404040"/>
<path d="M35.5339 27.2398C36.4239 27.2398 37.1454 26.9638 37.1454 26.6234C37.1454 26.2829 36.4239 26.0069 35.5339 26.0069C34.6439 26.0069 33.9224 26.2829 33.9224 26.6234C33.9224 26.9638 34.6439 27.2398 35.5339 27.2398Z" fill="#767676"/>
<path d="M27.6755 27.2398C28.5655 27.2398 29.287 26.9638 29.287 26.6234C29.287 26.2829 28.5655 26.0069 27.6755 26.0069C26.7855 26.0069 26.064 26.2829 26.064 26.6234C26.064 26.9638 26.7855 27.2398 27.6755 27.2398Z" fill="#767676"/>
<path d="M28.2871 32.3267L26.1805 32.2054C26.1326 32.2023 26.0859 32.1898 26.0429 32.1686C25.9999 32.1474 25.9615 32.1179 25.9299 32.0818C25.8984 32.0457 25.8742 32.0038 25.8589 31.9583C25.8436 31.9129 25.8374 31.8649 25.8407 31.8171C25.8432 31.7694 25.8551 31.7228 25.8758 31.6798C25.8965 31.6368 25.9255 31.5984 25.9612 31.5668C25.9969 31.5352 26.0385 31.511 26.0837 31.4956C26.1288 31.4802 26.1766 31.474 26.2242 31.4773L28.3308 31.5986C28.3786 31.6017 28.4254 31.6142 28.4684 31.6354C28.5114 31.6566 28.5498 31.6861 28.5814 31.7222C28.6129 31.7583 28.6371 31.8003 28.6524 31.8457C28.6677 31.8911 28.6739 31.9391 28.6706 31.987C28.6681 32.0346 28.6562 32.0812 28.6355 32.1242C28.6148 32.1672 28.5858 32.2056 28.5501 32.2372C28.5144 32.2689 28.4727 32.2931 28.4276 32.3084C28.3824 32.3238 28.3347 32.33 28.2871 32.3267V32.3267Z" fill="#767676"/>
<path d="M34.7621 32.327C34.6692 32.3284 34.5795 32.2938 34.5116 32.2304C34.4437 32.1671 34.403 32.0799 34.398 31.9872C34.3927 31.8901 34.4259 31.7949 34.4904 31.7221C34.555 31.6494 34.6456 31.6051 34.7426 31.5989L36.8444 31.4775C36.8922 31.4747 36.9401 31.4812 36.9854 31.4969C37.0307 31.5125 37.0724 31.5369 37.1082 31.5687C37.1441 31.6005 37.1733 31.639 37.1942 31.6821C37.2152 31.7251 37.2274 31.7719 37.2303 31.8197C37.2332 31.8675 37.2266 31.9154 37.211 31.9607C37.1953 32.006 37.1709 32.0477 37.1391 32.0836C37.1074 32.1194 37.0688 32.1486 37.0257 32.1695C36.9827 32.1905 36.9359 32.2028 36.8881 32.2056L34.7815 32.327H34.7621Z" fill="#767676"/>
<path d="M10.9097 31.8705C10.8055 31.8685 10.7055 31.8289 10.6282 31.7589C10.0522 31.2105 9.37223 30.783 8.62837 30.5017C7.62924 30.1221 6.54794 30.0117 5.4927 30.1814C5.38268 30.1997 5.26989 30.1737 5.17894 30.1091C5.088 30.0445 5.02631 29.9466 5.0073 29.8367C4.99689 29.7821 4.99762 29.7259 5.00945 29.6716C5.02129 29.6173 5.04398 29.5659 5.07617 29.5206C5.10836 29.4752 5.14938 29.4369 5.19677 29.4078C5.24415 29.3787 5.29693 29.3595 5.35193 29.3513C6.39517 29.183 7.46312 29.2571 8.47317 29.5676C9.48321 29.8782 10.4083 30.4171 11.1767 31.1424C11.2154 31.1804 11.2462 31.2257 11.2672 31.2757C11.2883 31.3257 11.2991 31.3794 11.2991 31.4337C11.2991 31.4879 11.2883 31.5416 11.2672 31.5916C11.2462 31.6416 11.2154 31.687 11.1767 31.7249C11.1102 31.8065 11.0143 31.8587 10.9097 31.8705V31.8705Z" fill="#515151"/>
<path d="M11.0456 33.3559H10.9437C10.18 33.1607 9.40016 33.0356 8.61377 32.9821C7.63255 32.9166 6.64703 32.9655 5.67711 33.1278C5.56897 33.1458 5.45811 33.1201 5.3689 33.0564C5.2797 32.9927 5.21945 32.8961 5.20143 32.788C5.1834 32.6799 5.20908 32.569 5.2728 32.4798C5.33652 32.3906 5.43306 32.3303 5.5412 32.3123C7.40815 31.9986 9.32032 32.0829 11.1524 32.5598C11.2486 32.5861 11.3321 32.6464 11.3874 32.7295C11.4426 32.8126 11.4658 32.9128 11.4528 33.0118C11.4398 33.1107 11.3913 33.2016 11.3165 33.2675C11.2416 33.3335 11.1454 33.37 11.0456 33.3705V33.3559Z" fill="#515151"/>
<path d="M51.0761 33.0793C51.0196 33.0798 50.9636 33.0684 50.9117 33.0458C50.8599 33.0233 50.8134 32.99 50.7752 32.9483C50.7365 32.9103 50.7057 32.865 50.6847 32.815C50.6637 32.765 50.6528 32.7113 50.6528 32.657C50.6528 32.6028 50.6637 32.5491 50.6847 32.4991C50.7057 32.4491 50.7365 32.4038 50.7752 32.3658C51.4315 31.7457 52.2034 31.2608 53.0469 30.9387C54.1827 30.5104 55.4102 30.3833 56.6097 30.5698C56.6632 30.5781 56.7146 30.5969 56.7609 30.625C56.8072 30.6532 56.8475 30.6901 56.8795 30.7339C56.9115 30.7776 56.9346 30.8272 56.9474 30.8798C56.9603 30.9325 56.9626 30.9871 56.9543 31.0406C56.946 31.0942 56.9273 31.1456 56.8991 31.1919C56.871 31.2382 56.834 31.2785 56.7903 31.3105C56.7466 31.3425 56.697 31.3656 56.6443 31.3784C56.5917 31.3912 56.537 31.3936 56.4835 31.3853C55.4261 31.2223 54.3445 31.3343 53.343 31.7105C52.5991 31.9918 51.9191 32.4193 51.3431 32.9677C51.2696 33.0345 51.1753 33.0739 51.0761 33.0793V33.0793Z" fill="#515151"/>
<path d="M56.532 35.7586C56.4935 35.7656 56.454 35.7656 56.4155 35.7586C55.4668 35.4844 54.4894 35.3215 53.5031 35.2732C52.7152 35.2335 51.9252 35.2693 51.1441 35.38C51.0353 35.3948 50.9251 35.3658 50.8377 35.2993C50.7503 35.2329 50.6929 35.1344 50.6781 35.0256C50.6633 34.9168 50.6923 34.8067 50.7588 34.7193C50.8252 34.6319 50.9236 34.5744 51.0324 34.5596C52.9056 34.3 54.8124 34.4373 56.6291 34.9625C56.7257 34.9889 56.8095 35.0495 56.8647 35.1331C56.92 35.2167 56.9429 35.3176 56.9292 35.4168C56.9155 35.5161 56.8662 35.607 56.7904 35.6726C56.7147 35.7381 56.6176 35.7739 56.5174 35.7731L56.532 35.7586Z" fill="#515151"/>
<path d="M30.7525 15.8815C30.6772 15.881 30.6035 15.86 30.5394 15.8206C30.4752 15.7813 30.423 15.7251 30.3885 15.6582C30.0815 15.0793 29.8576 14.46 29.7235 13.8186C29.5512 12.9664 29.5512 12.0884 29.7235 11.2362C29.7447 11.1288 29.8078 11.0341 29.8988 10.9731C29.9899 10.9121 30.1014 10.8898 30.2089 10.911C30.3164 10.9323 30.411 10.9953 30.472 11.0864C30.533 11.1774 30.5553 11.2889 30.5341 11.3964C30.3836 12.1413 30.3836 12.9087 30.5341 13.6535C30.6548 14.2183 30.8524 14.7638 31.1214 15.2748C31.155 15.3376 31.1716 15.4081 31.1698 15.4793C31.168 15.5506 31.1478 15.6201 31.1112 15.6812C31.0745 15.7423 31.0227 15.7928 30.9607 15.8279C30.8987 15.863 30.8286 15.8815 30.7574 15.8815H30.7525Z" fill="#515151"/>
<path d="M33.2672 16.231C33.1594 16.231 33.0559 16.1889 32.9788 16.1136C32.9017 16.0383 32.8572 15.9359 32.8546 15.8281C32.8373 15.1342 32.8697 14.4399 32.9517 13.7506C33.0635 12.8288 33.2453 11.9169 33.4953 11.0227C33.5061 10.9665 33.5283 10.9132 33.5608 10.8661C33.5932 10.819 33.6351 10.7792 33.6837 10.7491C33.7324 10.7191 33.7867 10.6994 33.8433 10.6915C33.9 10.6836 33.9576 10.6875 34.0127 10.703C34.0677 10.7185 34.1189 10.7453 34.163 10.7817C34.2071 10.8181 34.2432 10.8632 34.269 10.9143C34.2947 10.9653 34.3096 11.0212 34.3126 11.0783C34.3156 11.1354 34.3068 11.1925 34.2865 11.246C34.0507 12.0993 33.8788 12.9689 33.772 13.8477C33.695 14.4919 33.6641 15.1407 33.6798 15.7893C33.6811 15.8435 33.6717 15.8974 33.6521 15.9479C33.6326 15.9985 33.6033 16.0447 33.5658 16.0839C33.5284 16.1231 33.4837 16.1546 33.4341 16.1765C33.3845 16.1984 33.3311 16.2103 33.2769 16.2116L33.2672 16.231Z" fill="#515151"/>
<path d="M35.5337 31.1084C36.4372 31.1084 37.1695 30.3761 37.1695 29.4726C37.1695 28.5692 36.4372 27.8369 35.5337 27.8369C34.6303 27.8369 33.8979 28.5692 33.8979 29.4726C33.8979 30.3761 34.6303 31.1084 35.5337 31.1084Z" fill="#303030"/>
<path d="M35.393 29.6621C35.7174 29.6621 35.9803 29.3991 35.9803 29.0748C35.9803 28.7504 35.7174 28.4874 35.393 28.4874C35.0686 28.4874 34.8057 28.7504 34.8057 29.0748C34.8057 29.3991 35.0686 29.6621 35.393 29.6621Z" fill="#EEEEEE"/>
<path d="M36.0339 30.3949C36.1948 30.3949 36.3251 30.2645 36.3251 30.1037C36.3251 29.9428 36.1948 29.8124 36.0339 29.8124C35.8731 29.8124 35.7427 29.9428 35.7427 30.1037C35.7427 30.2645 35.8731 30.3949 36.0339 30.3949Z" fill="#EEEEEE"/>
<path d="M27.6754 31.1084C28.5788 31.1084 29.3111 30.3761 29.3111 29.4726C29.3111 28.5692 28.5788 27.8369 27.6754 27.8369C26.7719 27.8369 26.0396 28.5692 26.0396 29.4726C26.0396 30.3761 26.7719 31.1084 27.6754 31.1084Z" fill="#303030"/>
<path d="M27.5297 29.6621C27.8541 29.6621 28.117 29.3991 28.117 29.0748C28.117 28.7504 27.8541 28.4874 27.5297 28.4874C27.2053 28.4874 26.9424 28.7504 26.9424 29.0748C26.9424 29.3991 27.2053 29.6621 27.5297 29.6621Z" fill="#EEEEEE"/>
<path d="M28.1706 30.3949C28.3315 30.3949 28.4619 30.2645 28.4619 30.1037C28.4619 29.9428 28.3315 29.8124 28.1706 29.8124C28.0098 29.8124 27.8794 29.9428 27.8794 30.1037C27.8794 30.2645 28.0098 30.3949 28.1706 30.3949Z" fill="#EEEEEE"/>
<path d="M31.5801 36.6991C33.4052 36.5914 34.8318 35.608 34.7666 34.5028C34.7013 33.3975 33.1688 32.5889 31.3437 32.6967C29.5186 32.8045 28.092 33.7879 28.1573 34.8931C28.2225 35.9983 29.755 36.8069 31.5801 36.6991Z" fill="#E9E9E9"/>
<path d="M31.2382 37.1322C29.3208 37.1322 27.8113 36.2003 27.7385 34.9285C27.6559 33.5743 29.2286 32.4142 31.311 32.2928C32.2011 32.2225 33.094 32.39 33.8982 32.7782C34.2412 32.9239 34.5396 33.1579 34.763 33.4563C34.9863 33.7547 35.1267 34.1069 35.1699 34.4771V34.4771C35.1696 34.85 35.0712 35.2163 34.8847 35.5392C34.6981 35.8621 34.4298 36.1303 34.1069 36.3167C33.3564 36.8013 32.4899 37.0762 31.5974 37.1128L31.2382 37.1322ZM31.6653 33.1083C31.5634 33.1083 31.4614 33.1083 31.3595 33.1083C29.7917 33.2005 28.5102 34.0063 28.5588 34.8703C28.6073 35.7343 29.9761 36.3847 31.5488 36.2876C32.2912 36.2584 33.0128 36.0341 33.6409 35.6372C33.8404 35.5239 34.009 35.3633 34.1317 35.1694C34.2545 34.9755 34.3276 34.7545 34.3447 34.5257V34.5257C34.3001 34.3009 34.2012 34.0904 34.0565 33.9127C33.9118 33.735 33.7258 33.5955 33.5147 33.5063C32.9386 33.2287 32.3046 33.0923 31.6653 33.1083V33.1083Z" fill="#404040"/>
<path d="M31.5132 35.4093C32.003 35.3804 32.3828 35.0663 32.3616 34.7077C32.3404 34.3491 31.9263 34.0818 31.4365 34.1107C30.9468 34.1396 30.567 34.4538 30.5882 34.8124C30.6093 35.171 31.0235 35.4382 31.5132 35.4093Z" fill="#404040"/>
</svg>
