<svg width="16" height="16" viewBox="0 0 16 16" fill="none" xmlns="http://www.w3.org/2000/svg">
<path d="M15.3498 0.661633C14.8948 0.206633 14.1598 0.206633 13.7048 0.661633L7.99984 6.35497L2.29484 0.649966C1.83984 0.194966 1.10484 0.194966 0.649844 0.649966C0.194844 1.10497 0.194844 1.83997 0.649844 2.29497L6.35484 7.99997L0.649844 13.705C0.194844 14.16 0.194844 14.895 0.649844 15.35C1.10484 15.805 1.83984 15.805 2.29484 15.35L7.99984 9.64497L13.7048 15.35C14.1598 15.805 14.8948 15.805 15.3498 15.35C15.8048 14.895 15.8048 14.16 15.3498 13.705L9.64484 7.99997L15.3498 2.29497C15.7932 1.85163 15.7932 1.10497 15.3498 0.661633Z" fill="#ACACAC"/>
</svg>
