<svg width="62" height="62" viewBox="0 0 62 62" fill="none" xmlns="http://www.w3.org/2000/svg">
<circle cx="31" cy="31" r="31" fill="#EFEFEF"/>
<path d="M12.319 24.1161L25.1354 14.7216C23.3535 13.5477 21.4017 12.6548 19.3486 12.0743C16.6397 11.3116 13.7511 10.4956 11.9986 11.9868C10.5762 13.1915 10.5762 15.3337 10.5762 17.2816C10.589 19.6682 11.1875 22.0151 12.319 24.1161V24.1161Z" fill="#E9E9E9"/>
<path d="M12.1783 24.7331L11.955 24.3105C10.7925 22.1494 10.1774 19.7359 10.1636 17.2817C10.1636 15.2755 10.1636 13.0022 11.7316 11.6712C13.6735 10.0391 16.7368 10.9134 19.4603 11.6712C21.5531 12.2617 23.5425 13.1711 25.3588 14.3672L25.8443 14.6926L12.1783 24.7331ZM14.6299 11.5644C13.7784 11.5157 12.9383 11.7781 12.2657 12.3027C10.9889 13.3811 10.9889 15.363 10.9889 17.2817C10.9875 19.439 11.486 21.5673 12.4453 23.4993L24.383 14.7558C22.7741 13.7634 21.0359 12.9984 19.2176 12.4824C17.6447 12.0258 16.0183 11.5644 14.6299 11.5644Z" fill="#404040"/>
<path d="M14.8531 21.1873L21.6108 16.2375C20.6728 15.6177 19.6443 15.1474 18.5621 14.8434C17.1348 14.4402 15.6152 14.0127 14.6783 14.7948C13.9307 15.4311 13.9307 16.5581 13.9307 17.583C13.9388 18.8419 14.2556 20.0795 14.8531 21.1873V21.1873Z" fill="#777777"/>
<path d="M14.7123 21.7991L14.489 21.3813C13.8609 20.2132 13.5276 18.9092 13.5181 17.5827C13.5181 16.4849 13.5181 15.2366 14.4113 14.4788C15.5036 13.5558 17.1834 14.027 18.664 14.4448C19.788 14.7642 20.8557 15.2558 21.8293 15.902L22.3148 16.2275L14.7123 21.7991ZM16.0716 14.7702C15.6693 14.7461 15.2715 14.8667 14.9502 15.1103C14.3482 15.6203 14.3482 16.6161 14.3482 17.5827C14.3485 18.6116 14.5738 19.628 15.0085 20.5604L20.8681 16.2663C20.1051 15.8243 19.2896 15.48 18.4407 15.2414C17.6742 14.9845 16.8781 14.8262 16.0716 14.7702V14.7702Z" fill="#404040"/>
<path d="M51.433 25.5394L39.0195 15.6203C40.8475 14.5121 42.8354 13.6929 44.9131 13.1916C47.6512 12.5407 50.5689 11.846 52.2583 13.4053C53.6273 14.6731 53.5399 16.8056 53.4623 18.7486C53.3531 21.1445 52.6562 23.4768 51.433 25.5394V25.5394Z" fill="#E9E9E9"/>
<path d="M51.5497 26.1557L38.3013 15.5712L38.811 15.2651C40.6756 14.1506 42.7013 13.3313 44.8163 12.8364C47.5689 12.1855 50.6856 11.4423 52.5401 13.1521C54.0499 14.5462 53.9577 16.8147 53.8751 18.8209C53.7661 21.2752 53.0487 23.664 51.7876 25.772L51.5497 26.1557ZM39.7528 15.6732L51.3119 24.9025C52.3599 23.0152 52.9549 20.9098 53.0498 18.7528C53.1275 16.839 53.21 14.8668 51.9818 13.7253C50.4477 12.3118 47.6854 12.9675 45.0056 13.6039C43.1664 14.044 41.3982 14.7406 39.7528 15.6732V15.6732Z" fill="#404040"/>
<path d="M49.0203 22.5036L42.4858 17.2769C43.4494 16.6988 44.4955 16.2712 45.588 16.0091C47.0444 15.6691 48.5688 15.3048 49.4718 16.1257C50.1951 16.7912 50.1466 17.9181 50.1077 18.9431C50.044 20.2014 49.6704 21.4246 49.0203 22.5036Z" fill="#777777"/>
<path d="M49.137 23.1255L41.7627 17.2284L42.2724 16.9224C43.2714 16.322 44.3571 15.8796 45.4911 15.6109C46.9864 15.2514 48.6855 14.8483 49.739 15.8198C50.5983 16.6164 50.5497 17.8599 50.5012 18.9577C50.4391 20.2821 50.0541 21.5713 49.3797 22.7126L49.137 23.1255ZM43.2191 17.3353L48.8943 21.8868C49.3635 20.973 49.6316 19.9693 49.6807 18.9432C49.7196 17.9716 49.7584 17.0001 49.1952 16.4415C48.4622 15.7712 47.0592 16.1063 45.695 16.4415C44.836 16.6362 44.0044 16.9364 43.2191 17.3353V17.3353Z" fill="#404040"/>
<path d="M45.287 18.2337C39.7818 14.0465 33.5289 13.9591 31.4608 13.9543C29.3927 13.9494 23.1205 14.0368 17.6007 18.2337C10.6779 23.4993 5.74065 34.6231 10.1536 42.8809C14.8529 51.6633 27.145 51.6633 31.4463 51.6633C35.7475 51.6633 48.0396 51.6633 52.7341 42.8809C57.1471 34.6231 52.1953 23.4993 45.287 18.2337Z" fill="#A3A3A3"/>
<path d="M31.4464 52.0763C27.281 52.0763 14.6054 52.0763 9.78956 43.0753C5.37664 34.8175 10.1342 23.3925 17.3532 17.9035C21.1593 15.0133 25.8975 13.5317 31.4318 13.5317C36.9662 13.5317 41.7044 14.989 45.5104 17.9035C52.7294 23.3925 57.487 34.8175 53.0741 43.0753C48.2825 52.0763 35.6069 52.0763 31.4464 52.0763ZM31.4464 14.3672C26.1062 14.3672 21.5185 15.7808 17.8532 18.5641C10.9304 23.8297 6.30389 34.798 10.5178 42.6867C15.0957 51.2505 27.4024 51.2505 31.4464 51.2505C47.7921 51.2505 51.2341 44.8046 52.3701 42.6867C56.584 34.798 51.9818 23.8443 45.0347 18.5641C41.3791 15.7808 36.8108 14.3721 31.4415 14.3672H31.4464Z" fill="#404040"/>
<path d="M35.5292 29.6774C36.4194 29.6774 37.141 29.4014 37.141 29.0609C37.141 28.7204 36.4194 28.4443 35.5292 28.4443C34.6391 28.4443 33.9175 28.7204 33.9175 29.0609C33.9175 29.4014 34.6391 29.6774 35.5292 29.6774Z" fill="#767676"/>
<path d="M27.6645 29.5704C28.5546 29.5704 29.2763 29.2944 29.2763 28.9539C29.2763 28.6134 28.5546 28.3373 27.6645 28.3373C26.7743 28.3373 26.0527 28.6134 26.0527 28.9539C26.0527 29.2944 26.7743 29.5704 27.6645 29.5704Z" fill="#767676"/>
<path d="M31.3991 37.0698C33.4332 36.9496 35.0293 35.9555 34.964 34.8495C34.8987 33.7434 33.1968 32.9442 31.1626 33.0644C29.1285 33.1847 27.5324 34.1787 27.5977 35.2848C27.663 36.3908 29.3649 37.19 31.3991 37.0698Z" fill="#E9E9E9"/>
<path d="M30.9852 37.4987C30.1504 37.5152 29.3221 37.3495 28.5579 37.0129C27.6937 36.6097 27.1985 36.0074 27.1597 35.3128C27.1209 34.6181 27.5384 33.9624 28.3491 33.4572C29.1988 32.9866 30.1432 32.7126 31.1128 32.6554C32.0823 32.5983 33.0523 32.7594 33.9514 33.1269C34.8107 33.5301 35.3059 34.1373 35.3496 34.827C35.3884 35.5216 34.9661 36.1823 34.1602 36.6826C33.319 37.1722 32.3704 37.4475 31.3979 37.4841C31.2716 37.4938 31.1309 37.4987 30.9852 37.4987ZM31.5629 33.4669C31.4367 33.4669 31.3056 33.4669 31.1794 33.4669C30.3435 33.4956 29.5271 33.7273 28.8006 34.1421C28.2714 34.4724 27.9802 34.8756 27.9996 35.2496C28.019 35.6237 28.3588 35.988 28.9268 36.2551C29.7017 36.5654 30.5354 36.7011 31.3686 36.6524C32.2018 36.6037 33.014 36.3719 33.7475 35.9734C34.2816 35.6431 34.5728 35.2399 34.5486 34.8659C34.5486 34.4967 34.1893 34.1324 33.6213 33.8652C32.9724 33.584 32.2699 33.4481 31.5629 33.4669V33.4669Z" fill="#404040"/>
<path d="M32.8007 34.8221C32.8881 35.0552 32.2716 35.5746 31.5773 35.6377C30.7666 35.7154 29.9462 35.1522 30.0093 34.9047C30.0724 34.6571 30.8152 34.6619 31.4366 34.6474C32.058 34.6328 32.7231 34.6134 32.8007 34.8221Z" fill="#404040"/>
<path d="M28.7423 31.3389H28.718L25.8052 31.1641C25.7479 31.1659 25.6908 31.1558 25.6376 31.1343C25.5844 31.1129 25.5363 31.0805 25.4963 31.0394C25.4563 30.9983 25.4253 30.9494 25.4053 30.8956C25.3853 30.8419 25.3767 30.7845 25.3801 30.7273C25.3835 30.67 25.3988 30.6141 25.425 30.5631C25.4512 30.5121 25.4878 30.4671 25.5323 30.431C25.5769 30.3949 25.6285 30.3685 25.6838 30.3534C25.7392 30.3384 25.7971 30.335 25.8538 30.3436L28.7666 30.5136C28.876 30.5168 28.9797 30.5633 29.0548 30.643C29.1299 30.7227 29.1703 30.8289 29.1671 30.9383C29.1639 31.0478 29.1173 31.1515 29.0377 31.2266C28.958 31.3017 28.8518 31.3421 28.7423 31.3389V31.3389Z" fill="#2B2B2B"/>
<path d="M28.281 32.3104H28.2567L26.1498 32.1842C26.1021 32.1817 26.0555 32.1698 26.0125 32.1491C25.9695 32.1284 25.9311 32.0994 25.8995 32.0637C25.8678 32.028 25.8436 31.9863 25.8282 31.9412C25.8129 31.896 25.8066 31.8482 25.8099 31.8007C25.8124 31.7528 25.8243 31.706 25.845 31.6627C25.8656 31.6195 25.8945 31.5808 25.9302 31.5487C25.9658 31.5167 26.0074 31.4921 26.0526 31.4761C26.0978 31.4602 26.1456 31.4534 26.1935 31.456L28.3004 31.5822C28.397 31.5822 28.4896 31.6206 28.5579 31.6889C28.6261 31.7571 28.6645 31.8498 28.6645 31.9463C28.6645 32.0429 28.6261 32.1355 28.5579 32.2038C28.4896 32.2721 28.397 32.3104 28.3004 32.3104H28.281Z" fill="#767676"/>
<path d="M34.2912 31.3387C34.1817 31.342 34.0755 31.3015 33.9958 31.2264C33.9162 31.1513 33.8696 31.0477 33.8664 30.9382C33.8632 30.8288 33.9036 30.7225 33.9787 30.6429C34.0538 30.5632 34.1575 30.5166 34.2669 30.5134L37.1797 30.3435C37.2337 30.3395 37.2879 30.3464 37.3392 30.3636C37.3905 30.3808 37.4379 30.408 37.4785 30.4437C37.5192 30.4794 37.5523 30.5229 37.5761 30.5715C37.5998 30.6201 37.6136 30.673 37.6166 30.727C37.6199 30.7812 37.6125 30.8356 37.5947 30.8869C37.577 30.9382 37.5493 30.9855 37.5132 31.0261C37.4771 31.0667 37.4334 31.0998 37.3845 31.1234C37.3356 31.1471 37.2825 31.1608 37.2283 31.1639L34.3155 31.3387H34.2912Z" fill="#2B2B2B"/>
<path d="M34.7523 32.3105C34.6593 32.3094 34.5702 32.2733 34.5027 32.2094C34.4352 32.1455 34.3943 32.0585 34.3882 31.9658C34.3878 31.8748 34.4215 31.787 34.4825 31.7196C34.5436 31.6522 34.6277 31.6101 34.7183 31.6017L36.8252 31.4754C36.9218 31.4703 37.0165 31.5037 37.0884 31.5684C37.1603 31.633 37.2036 31.7236 37.2088 31.8201C37.2139 31.9167 37.1805 32.0114 37.1158 32.0833C37.0512 32.1552 36.9606 32.1985 36.8641 32.2036L34.762 32.3299L34.7523 32.3105Z" fill="#767676"/>
<path d="M10.9013 31.8494C10.7953 31.8486 10.6934 31.8088 10.6148 31.7377C9.93905 31.0945 9.12394 30.616 8.23304 30.3397C7.34214 30.0633 6.39951 29.9965 5.47857 30.1444C5.37042 30.1618 5.25979 30.1355 5.17102 30.0713C5.08225 30.0071 5.02262 29.9102 5.00523 29.802C4.98785 29.6938 5.01415 29.5831 5.07833 29.4943C5.14252 29.4054 5.23934 29.3458 5.34749 29.3284C6.54715 29.1392 7.77537 29.2665 8.91084 29.6976C9.75389 30.0188 10.5258 30.5023 11.1828 31.1208C11.2431 31.1774 11.2851 31.2508 11.3032 31.3316C11.3213 31.4123 11.3148 31.4966 11.2844 31.5735C11.2541 31.6505 11.2013 31.7165 11.133 31.7631C11.0647 31.8097 10.9839 31.8347 10.9013 31.8349V31.8494Z" fill="#515151"/>
<path d="M11.037 33.34C11.0015 33.3447 10.9656 33.3447 10.9302 33.34C10.167 33.1408 9.38684 33.014 8.59991 32.9613C7.62659 32.9 6.64945 32.9489 5.68709 33.107C5.63167 33.1214 5.57385 33.1241 5.51731 33.115C5.46077 33.1059 5.40675 33.0851 5.35868 33.0539C5.31062 33.0228 5.26956 32.982 5.23812 32.9341C5.20669 32.8863 5.18556 32.8324 5.17609 32.7759C5.16662 32.7194 5.16901 32.6616 5.18311 32.606C5.19721 32.5505 5.22272 32.4986 5.258 32.4534C5.29328 32.4083 5.33757 32.3711 5.38804 32.344C5.43851 32.3169 5.49406 32.3007 5.55116 32.2962C6.58512 32.1209 7.63621 32.0687 8.68244 32.1409C9.51999 32.1957 10.3506 32.3289 11.1632 32.539C11.2638 32.5609 11.3526 32.6197 11.4121 32.7038C11.4716 32.7878 11.4975 32.8911 11.4848 32.9933C11.472 33.0955 11.4214 33.1893 11.3431 33.2561C11.2647 33.323 11.1642 33.3581 11.0612 33.3545L11.037 33.34Z" fill="#515151"/>
<path d="M51.0692 33.059C50.9865 33.0589 50.9057 33.0339 50.8374 32.9873C50.7691 32.9407 50.7164 32.8746 50.686 32.7977C50.6557 32.7207 50.6491 32.6364 50.6672 32.5557C50.6854 32.475 50.7273 32.4016 50.7876 32.345C51.4427 31.7252 52.213 31.24 53.0547 30.9169C54.1911 30.4894 55.4188 30.3639 56.6181 30.5525C56.6716 30.5608 56.723 30.5796 56.7693 30.6077C56.8156 30.6359 56.8559 30.673 56.888 30.7167C56.92 30.7605 56.943 30.8101 56.9559 30.8628C56.9687 30.9154 56.9711 30.9701 56.9628 31.0237C56.9545 31.0773 56.9357 31.1287 56.9076 31.1751C56.8794 31.2214 56.8424 31.2617 56.7987 31.2937C56.755 31.3258 56.7054 31.3489 56.6527 31.3617C56.6001 31.3745 56.5454 31.3769 56.4919 31.3686C55.5713 31.2184 54.6285 31.2826 53.7368 31.5565C52.8451 31.8303 52.0286 32.3062 51.3507 32.9473C51.2744 33.0189 51.1738 33.0588 51.0692 33.059Z" fill="#515151"/>
<path d="M56.5255 35.7397C56.4885 35.7447 56.4509 35.7447 56.4139 35.7397C55.4649 35.4663 54.4875 35.3034 53.5011 35.2542C52.713 35.2194 51.9234 35.2551 51.1417 35.361C51.0862 35.3727 51.029 35.3728 50.9735 35.3614C50.918 35.3499 50.8654 35.3272 50.8191 35.2946C50.7727 35.2619 50.7336 35.2201 50.7042 35.1717C50.6747 35.1233 50.6555 35.0693 50.6479 35.0132C50.6402 34.957 50.6441 34.8999 50.6595 34.8454C50.6748 34.7908 50.7013 34.74 50.7371 34.6961C50.773 34.6522 50.8175 34.6162 50.8679 34.5903C50.9183 34.5644 50.9735 34.5491 51.03 34.5454C51.8613 34.4292 52.7015 34.3902 53.5399 34.4289C54.5868 34.4838 55.6241 34.6564 56.6323 34.9435C56.7295 34.9699 56.8136 35.031 56.8689 35.1151C56.9241 35.1993 56.9468 35.3007 56.9324 35.4004C56.9181 35.5 56.8679 35.591 56.7911 35.6562C56.7144 35.7214 56.6165 35.7562 56.5158 35.7542L56.5255 35.7397Z" fill="#515151"/>
<path d="M30.7424 15.8487C30.6675 15.8492 30.5939 15.8291 30.5297 15.7906C30.4655 15.752 30.4131 15.6965 30.3783 15.6301C30.0705 15.0494 29.8466 14.4279 29.7132 13.7843C29.5409 12.9315 29.5409 12.0528 29.7132 11.2C29.7238 11.1468 29.7447 11.0961 29.7748 11.0509C29.8048 11.0057 29.8435 10.9669 29.8886 10.9367C29.9337 10.9065 29.9843 10.8855 30.0375 10.8748C30.0907 10.8641 30.1455 10.8641 30.1987 10.8746C30.2519 10.8851 30.3026 10.906 30.3477 10.9362C30.3929 10.9663 30.4317 11.005 30.4619 11.0501C30.4921 11.0952 30.5131 11.1458 30.5238 11.199C30.5344 11.2523 30.5345 11.3071 30.524 11.3604C30.3711 12.1055 30.3711 12.8739 30.524 13.6191C30.6401 14.1849 30.8362 14.7312 31.1065 15.2415C31.158 15.3381 31.1691 15.4513 31.1372 15.556C31.1053 15.6608 31.0332 15.7486 30.9366 15.8001C30.8771 15.8326 30.8102 15.8493 30.7424 15.8487V15.8487Z" fill="#515151"/>
<path d="M33.2622 16.2034C33.1544 16.2034 33.0509 16.1613 32.9738 16.0859C32.8967 16.0106 32.8521 15.908 32.8496 15.8002C32.8312 15.1056 32.8652 14.4106 32.9515 13.7212C33.0593 12.7985 33.2395 11.8857 33.4904 10.9913C33.5047 10.939 33.5292 10.89 33.5625 10.8471C33.5958 10.8043 33.6371 10.7685 33.6842 10.7416C33.7313 10.7148 33.7833 10.6975 33.8371 10.6907C33.8908 10.684 33.9454 10.6879 33.9977 10.7022C34.05 10.7166 34.0989 10.7411 34.1417 10.7744C34.1845 10.8077 34.2204 10.849 34.2472 10.8962C34.274 10.9433 34.2913 10.9953 34.2981 11.0491C34.3048 11.1029 34.3009 11.1575 34.2866 11.2099C34.0497 12.0638 33.876 12.934 33.7671 13.8135C33.6924 14.4583 33.6616 15.1075 33.6749 15.7565C33.6775 15.8665 33.6367 15.9731 33.5612 16.0531C33.4858 16.1331 33.3818 16.1802 33.2719 16.184L33.2622 16.2034Z" fill="#515151"/>
</svg>
