<svg width="18" height="16" viewBox="0 0 18 16" fill="none" xmlns="http://www.w3.org/2000/svg">
<path d="M15.6666 0.5H3.99996C3.08329 0.5 2.33329 1.25 2.33329 2.16667V8.83333C2.33329 10.675 3.82496 12.1667 5.66663 12.1667H10.6666C12.5083 12.1667 14 10.675 14 8.83333V6.33333H15.6666C16.5833 6.33333 17.3333 5.58333 17.3333 4.66667V2.16667C17.3333 1.25 16.5833 0.5 15.6666 0.5ZM15.6666 4.66667H14V2.16667H15.6666V4.66667ZM1.49996 15.5H14.8333C15.2916 15.5 15.6666 15.125 15.6666 14.6667C15.6666 14.2083 15.2916 13.8333 14.8333 13.8333H1.49996C1.04163 13.8333 0.666626 14.2083 0.666626 14.6667C0.666626 15.125 1.04163 15.5 1.49996 15.5Z" fill="white"/>
</svg>
