<svg width="375" height="44" viewBox="0 0 375 44" fill="none" xmlns="http://www.w3.org/2000/svg">
<rect width="375" height="44" fill="white"/>
<path opacity="0.35" d="M336.5 20.0006C336.5 18.804 337.47 17.834 338.667 17.834H355.333C356.53 17.834 357.5 18.804 357.5 20.0007V26.0007C357.5 27.1973 356.53 28.1673 355.333 28.1673H338.667C337.47 28.1673 336.5 27.1973 336.5 26.0007V20.0006Z" stroke="black"/>
<path opacity="0.4" d="M359 21.001V25.001C359.805 24.6622 360.328 23.8741 360.328 23.001C360.328 22.1278 359.805 21.3398 359 21.001Z" fill="black"/>
<path d="M338 20.6673C338 19.9309 338.597 19.334 339.333 19.334H354.667C355.403 19.334 356 19.9309 356 20.6673V25.334C356 26.0704 355.403 26.6673 354.667 26.6673H339.333C338.597 26.6673 338 26.0704 338 25.334V20.6673Z" fill="black"/>
<path fill-rule="evenodd" clip-rule="evenodd" d="M323.331 19.6084C325.547 19.6085 327.678 20.4599 329.284 21.9867C329.405 22.1046 329.598 22.1031 329.717 21.9834L330.873 20.8167C330.934 20.756 330.967 20.6737 330.967 20.5882C330.966 20.5026 330.932 20.4207 330.871 20.3607C326.656 16.3212 320.006 16.3212 315.791 20.3607C315.73 20.4207 315.695 20.5025 315.694 20.5881C315.694 20.6737 315.727 20.7559 315.788 20.8167L316.944 21.9834C317.063 22.1033 317.256 22.1048 317.377 21.9867C318.983 20.4598 321.115 19.6084 323.331 19.6084ZM323.331 23.404C324.548 23.404 325.722 23.8565 326.625 24.6737C326.747 24.7897 326.939 24.7872 327.058 24.668L328.213 23.5014C328.274 23.4402 328.307 23.3572 328.307 23.2709C328.306 23.1846 328.27 23.1023 328.208 23.0424C325.46 20.486 321.204 20.486 318.456 23.0424C318.394 23.1023 318.358 23.1847 318.358 23.271C318.357 23.3573 318.391 23.4403 318.452 23.5014L319.606 24.668C319.725 24.7872 319.917 24.7897 320.039 24.6737C320.941 23.857 322.114 23.4046 323.331 23.404ZM325.644 25.9579C325.646 26.0444 325.612 26.1278 325.55 26.1884L323.553 28.204C323.494 28.2633 323.414 28.2966 323.331 28.2966C323.248 28.2966 323.168 28.2633 323.109 28.204L321.112 26.1884C321.05 26.1277 321.016 26.0443 321.018 25.9578C321.02 25.8713 321.057 25.7894 321.121 25.7314C322.397 24.6525 324.265 24.6525 325.541 25.7314C325.605 25.7894 325.642 25.8714 325.644 25.9579Z" fill="black"/>
<path fill-rule="evenodd" clip-rule="evenodd" d="M309.667 17.667H308.667C308.115 17.667 307.667 18.1147 307.667 18.667V27.3337C307.667 27.8859 308.115 28.3337 308.667 28.3337H309.667C310.219 28.3337 310.667 27.8859 310.667 27.3337V18.667C310.667 18.1147 310.219 17.667 309.667 17.667ZM304 20.0003H305C305.553 20.0003 306 20.448 306 21.0003V27.3337C306 27.8859 305.553 28.3337 305 28.3337H304C303.448 28.3337 303 27.8859 303 27.3337V21.0003C303 20.448 303.448 20.0003 304 20.0003ZM300.334 22.3337H299.334C298.781 22.3337 298.334 22.7814 298.334 23.3337V27.3337C298.334 27.8859 298.781 28.3337 299.334 28.3337H300.334C300.886 28.3337 301.334 27.8859 301.334 27.3337V23.3337C301.334 22.7814 300.886 22.3337 300.334 22.3337ZM295.667 24.3337H294.667C294.115 24.3337 293.667 24.7814 293.667 25.3337V27.3337C293.667 27.8859 294.115 28.3337 294.667 28.3337H295.667C296.219 28.3337 296.667 27.8859 296.667 27.3337V25.3337C296.667 24.7814 296.219 24.3337 295.667 24.3337Z" fill="black"/>
<path d="M37.3203 28.2568C40.0083 28.2568 41.605 26.1548 41.605 22.5952C41.605 21.2549 41.3486 20.127 40.8579 19.2554C40.1475 17.9004 38.9243 17.168 37.3789 17.168C35.0791 17.168 33.4531 18.7134 33.4531 20.8813C33.4531 22.9175 34.918 24.397 36.9321 24.397C38.1699 24.397 39.1733 23.8184 39.6714 22.8149H39.6934C39.6934 22.8149 39.7227 22.8149 39.73 22.8149C39.7446 22.8149 39.7959 22.8149 39.7959 22.8149C39.7959 25.2319 38.8804 26.6748 37.335 26.6748C36.4268 26.6748 35.7236 26.1768 35.4819 25.3784H33.5996C33.9146 27.1143 35.3867 28.2568 37.3203 28.2568ZM37.3862 22.8955C36.1704 22.8955 35.3062 22.0312 35.3062 20.8228C35.3062 19.6436 36.2144 18.7427 37.3936 18.7427C38.5728 18.7427 39.481 19.6582 39.481 20.8521C39.481 22.0312 38.5947 22.8955 37.3862 22.8955Z" fill="black"/>
<path d="M44.6961 28.1543C45.3919 28.1543 45.868 27.6562 45.868 26.9971C45.868 26.3306 45.3919 25.8398 44.6961 25.8398C44.0076 25.8398 43.5242 26.3306 43.5242 26.9971C43.5242 27.6562 44.0076 28.1543 44.6961 28.1543ZM44.6961 22.6611C45.3919 22.6611 45.868 22.1704 45.868 21.5112C45.868 20.8447 45.3919 20.354 44.6961 20.354C44.0076 20.354 43.5242 20.8447 43.5242 21.5112C43.5242 22.1704 44.0076 22.6611 44.6961 22.6611Z" fill="black"/>
<path d="M52.7237 28.0005H54.5328V26.0303H55.961V24.4336H54.5328V17.4316H51.8668C49.9991 20.2441 48.5123 22.5952 47.5602 24.3457V26.0303H52.7237V28.0005ZM49.3106 24.3677C50.5411 22.1997 51.6397 20.4639 52.6505 18.9697H52.753V24.4775H49.3106V24.3677Z" fill="black"/>
<path d="M59.9896 28.0005H61.8793V17.4316H59.997L57.2357 19.3652V21.1816L59.8651 19.3359H59.9896V28.0005Z" fill="black"/>
</svg>
