<svg width="375" height="56" viewBox="0 0 375 56" fill="none" xmlns="http://www.w3.org/2000/svg">
<rect width="375" height="56" fill="white"/>
<path d="M170.902 25.83L172.417 25.995C172.607 25.295 172.717 24.655 172.747 24.075C172.777 23.495 172.792 22.935 172.792 22.395V21.255H163.492V22.5H171.262C171.262 23.01 171.242 23.525 171.202 24.045C171.172 24.565 171.072 25.16 170.902 25.83ZM174.292 26.805H168.442V24.315H166.882V26.805H162.082V28.05H174.292V26.805ZM168.142 29.1C167.412 29.1 166.752 29.16 166.162 29.28C165.572 29.39 165.072 29.555 164.662 29.775C164.252 29.995 163.932 30.26 163.702 30.57C163.482 30.88 163.372 31.23 163.372 31.62C163.372 32.01 163.482 32.365 163.702 32.685C163.932 32.995 164.252 33.26 164.662 33.48C165.072 33.7 165.572 33.865 166.162 33.975C166.752 34.095 167.412 34.155 168.142 34.155C168.862 34.155 169.512 34.095 170.092 33.975C170.682 33.865 171.182 33.7 171.592 33.48C172.002 33.26 172.317 32.995 172.537 32.685C172.767 32.365 172.882 32.01 172.882 31.62C172.882 31.23 172.767 30.88 172.537 30.57C172.317 30.26 172.002 29.995 171.592 29.775C171.182 29.555 170.682 29.39 170.092 29.28C169.512 29.16 168.862 29.1 168.142 29.1ZM168.142 32.97C167.112 32.97 166.312 32.855 165.742 32.625C165.182 32.385 164.902 32.05 164.902 31.62C164.902 31.2 165.182 30.875 165.742 30.645C166.312 30.405 167.112 30.285 168.142 30.285C169.142 30.285 169.922 30.405 170.482 30.645C171.052 30.875 171.337 31.2 171.337 31.62C171.337 32.05 171.052 32.385 170.482 32.625C169.922 32.855 169.142 32.97 168.142 32.97ZM186.411 20.61H184.851V34.155H186.411V20.61ZM180.261 24.525V23.235H183.276V21.96H175.686V23.235H178.701V24.525C178.701 25.095 178.616 25.675 178.446 26.265C178.286 26.855 178.051 27.415 177.741 27.945C177.431 28.465 177.061 28.935 176.631 29.355C176.211 29.775 175.736 30.105 175.206 30.345L176.091 31.575C176.491 31.385 176.861 31.145 177.201 30.855C177.551 30.565 177.871 30.235 178.161 29.865C178.451 29.495 178.706 29.095 178.926 28.665C179.156 28.235 179.346 27.785 179.496 27.315C179.816 28.195 180.266 28.98 180.846 29.67C181.436 30.36 182.126 30.88 182.916 31.23L183.771 30.015C183.241 29.785 182.761 29.475 182.331 29.085C181.901 28.695 181.531 28.26 181.221 27.78C180.911 27.29 180.671 26.77 180.501 26.22C180.341 25.66 180.261 25.095 180.261 24.525ZM201.065 27.255V25.98H198.95V20.61H197.405V34.155H198.95V27.255H201.065ZM193.205 23.955V21.735H191.66V23.955C191.66 24.585 191.58 25.21 191.42 25.83C191.26 26.44 191.03 27.015 190.73 27.555C190.44 28.095 190.08 28.585 189.65 29.025C189.23 29.455 188.755 29.8 188.225 30.06L189.17 31.305C189.95 30.905 190.615 30.335 191.165 29.595C191.725 28.845 192.15 28 192.44 27.06C192.73 27.97 193.14 28.77 193.67 29.46C194.2 30.14 194.83 30.67 195.56 31.05L196.505 29.82C195.995 29.57 195.535 29.24 195.125 28.83C194.725 28.41 194.38 27.94 194.09 27.42C193.81 26.9 193.59 26.345 193.43 25.755C193.28 25.155 193.205 24.555 193.205 23.955ZM209.674 23.265V22.035H206.449V20.505H204.904V22.035H201.679V23.265H209.674ZM214.159 24.24H212.239V20.61H210.694V29.265H212.239V25.515H214.159V24.24ZM208.954 26.25C208.954 25.88 208.874 25.55 208.714 25.26C208.554 24.96 208.329 24.705 208.039 24.495C207.759 24.285 207.414 24.125 207.004 24.015C206.604 23.895 206.159 23.835 205.669 23.835C205.179 23.835 204.734 23.895 204.334 24.015C203.934 24.125 203.589 24.285 203.299 24.495C203.009 24.705 202.784 24.96 202.624 25.26C202.464 25.55 202.384 25.88 202.384 26.25C202.384 26.61 202.464 26.94 202.624 27.24C202.784 27.53 203.009 27.78 203.299 27.99C203.589 28.2 203.934 28.365 204.334 28.485C204.734 28.595 205.179 28.65 205.669 28.65C206.159 28.65 206.604 28.595 207.004 28.485C207.414 28.365 207.759 28.2 208.039 27.99C208.329 27.78 208.554 27.53 208.714 27.24C208.874 26.94 208.954 26.61 208.954 26.25ZM203.869 26.25C203.869 25.85 204.034 25.54 204.364 25.32C204.694 25.09 205.129 24.975 205.669 24.975C206.209 24.975 206.644 25.09 206.974 25.32C207.314 25.54 207.484 25.85 207.484 26.25C207.484 26.63 207.314 26.935 206.974 27.165C206.644 27.395 206.209 27.51 205.669 27.51C205.129 27.51 204.694 27.395 204.364 27.165C204.034 26.935 203.869 26.63 203.869 26.25ZM207.919 29.4C207.229 29.4 206.609 29.455 206.059 29.565C205.509 29.675 205.039 29.83 204.649 30.03C204.259 30.23 203.959 30.48 203.749 30.78C203.549 31.07 203.449 31.4 203.449 31.77C203.449 32.14 203.549 32.475 203.749 32.775C203.959 33.075 204.259 33.325 204.649 33.525C205.039 33.725 205.509 33.88 206.059 33.99C206.609 34.1 207.229 34.155 207.919 34.155C208.609 34.155 209.229 34.1 209.779 33.99C210.329 33.88 210.799 33.725 211.189 33.525C211.579 33.325 211.874 33.075 212.074 32.775C212.284 32.475 212.389 32.14 212.389 31.77C212.389 31.4 212.284 31.07 212.074 30.78C211.874 30.48 211.579 30.23 211.189 30.03C210.799 29.83 210.329 29.675 209.779 29.565C209.229 29.455 208.609 29.4 207.919 29.4ZM207.919 32.97C206.979 32.97 206.254 32.87 205.744 32.67C205.234 32.47 204.979 32.17 204.979 31.77C204.979 31.38 205.234 31.085 205.744 30.885C206.254 30.685 206.979 30.585 207.919 30.585C208.859 30.585 209.584 30.685 210.094 30.885C210.604 31.085 210.859 31.38 210.859 31.77C210.859 32.17 210.604 32.47 210.094 32.67C209.584 32.87 208.859 32.97 207.919 32.97Z" fill="#333333"/>
<path d="M32.6196 18.9896C32.1296 18.4996 31.3396 18.4996 30.8496 18.9896L22.5396 27.2996C22.1496 27.6896 22.1496 28.3196 22.5396 28.7096L30.8496 37.0196C31.3396 37.5096 32.1296 37.5096 32.6196 37.0196C33.1096 36.5296 33.1096 35.7396 32.6196 35.2496L25.3796 27.9996L32.6296 20.7496C33.1096 20.2696 33.1096 19.4696 32.6196 18.9896Z" fill="#333333"/>
</svg>
