<svg width="96" height="26" viewBox="0 0 96 26" fill="none" xmlns="http://www.w3.org/2000/svg">
<path d="M4.75883 24.7968C3.30452 24.0354 2.09114 22.8755 1.25723 21.4497C0.40678 19.9719 -0.0279596 18.2869 6.43086e-05 16.577C-0.0280876 14.8744 0.406804 13.1967 1.25723 11.7272C2.09103 10.3109 3.29644 9.15597 4.73968 8.3907C6.2232 7.58857 7.91799 7.1875 9.82405 7.1875C11.614 7.1875 13.1811 7.55451 14.5254 8.28852C15.8447 8.99416 16.9095 10.1041 17.5673 11.4595L14.3112 13.3779C13.84 12.5787 13.1676 11.9204 12.3628 11.47C11.5717 11.0434 10.6874 10.8247 9.79097 10.8341C8.20297 10.8341 6.88835 11.3555 5.8471 12.3984C4.80585 13.4413 4.28348 14.8342 4.27999 16.577C4.27999 18.3199 4.7954 19.7127 5.8262 20.7556C6.85701 21.7985 8.17744 22.32 9.78749 22.32C10.6851 22.3299 11.5707 22.1112 12.3628 21.684C13.17 21.235 13.8443 20.5764 14.3164 19.7762L17.5795 21.7016C16.8982 23.0545 15.8247 24.1645 14.5027 24.8831C13.155 25.6277 11.5972 26 9.82928 26C8.06675 26.0297 6.3245 25.6163 4.75883 24.7968Z" fill="white"/>
<path d="M38.119 7.39891V25.7587H34.0741V23.5426C33.3776 24.4234 32.507 24.9113 31.4727 25.3465C30.3883 25.7923 29.2268 26.0145 28.0564 26C26.4036 26.0315 24.7707 25.6317 23.3151 24.8391C21.938 24.0766 20.8057 22.931 20.052 21.5378C19.2708 20.1168 18.8796 18.4661 18.8784 16.5859C18.8773 14.7056 19.2685 13.0614 20.052 11.6533C20.808 10.2632 21.9399 9.11989 23.3151 8.35724C24.7702 7.56239 26.403 7.15958 28.0564 7.18752C29.1688 7.17452 30.2726 7.3853 31.3038 7.80761C32.2822 8.21489 33.1588 8.83707 33.8704 9.62915V7.39891H38.119ZM32.4077 20.7433C33.4281 19.6863 33.9383 18.2993 33.9383 16.5823C33.9383 14.8653 33.4281 13.4783 32.4077 12.4213C31.3897 11.3644 30.0983 10.8359 28.5335 10.8359C26.9687 10.8359 25.6825 11.3644 24.675 12.4213C23.6639 13.4736 23.1584 14.8589 23.1584 16.577C23.1584 18.2952 23.6627 19.6822 24.6715 20.738C25.6791 21.795 26.9653 22.3235 28.53 22.3235C30.0948 22.3235 31.3874 21.795 32.4077 20.738V20.7433Z" fill="white"/>
<path d="M44.9236 6.43174V7.531H49.9192V10.9715H45.0176V25.7587H40.769V6.36304C40.769 4.41466 41.3355 2.86677 42.4685 1.71936C43.6014 0.571947 45.2109 -0.00117262 47.2969 1.80126e-06C48.9046 1.80126e-06 50.1734 0.332364 51.1032 0.997088L49.9122 4.22793C49.2442 3.72766 48.4327 3.46224 47.6016 3.47219C45.8163 3.47336 44.9236 4.45988 44.9236 6.43174Z" fill="white"/>
<path d="M65.4579 20.3593L67.7024 23.0018C66.8889 24.0008 65.8346 24.7708 64.6413 25.2373C63.2973 25.7593 61.8669 26.0158 60.4275 25.993C58.4332 25.993 56.6769 25.592 55.1586 24.7898C53.6927 24.0385 52.4712 22.8766 51.6396 21.4427C50.8006 19.9635 50.3722 18.2824 50.3998 16.5771C50.3752 14.8871 50.7914 13.2203 51.6065 11.7449C52.3879 10.3378 53.5413 9.17877 54.9374 8.39781C56.3917 7.62212 58.0082 7.2097 59.6521 7.19499C61.296 7.18028 62.9195 7.5637 64.3871 8.31325C65.7637 9.04505 66.9099 10.1528 67.6954 11.5106C68.508 12.8988 68.9143 14.5213 68.9143 16.378L55.0228 19.1227C55.4219 20.141 56.1538 20.9902 57.0966 21.529C58.0473 22.081 59.1913 22.3564 60.5285 22.3553C62.5019 22.3553 64.145 21.6899 65.4579 20.3593ZM55.9578 12.1748C54.9932 13.2071 54.5114 14.5941 54.5126 16.3357V16.371L64.7858 14.3768C64.5153 13.2911 63.8854 12.3318 63.0011 11.6586C62.1061 10.9716 61.0242 10.6275 59.7554 10.6263C58.1871 10.6263 56.9213 11.1424 55.9578 12.1748Z" fill="white"/>
<path d="M71.3136 4.42004C71.0608 4.18752 70.8603 3.90289 70.7254 3.58534C70.5906 3.26778 70.5245 2.92467 70.5318 2.57913C70.5248 2.23361 70.5909 1.89057 70.7257 1.57305C70.8606 1.25553 71.061 0.97088 71.3136 0.738215C71.839 0.244745 72.5349 -0.0203102 73.2516 8.93064e-05C73.9625 -0.0217469 74.6551 0.230082 75.1896 0.704744C75.4409 0.923584 75.6414 1.19594 75.7765 1.50232C75.9117 1.8087 75.9782 2.14151 75.9714 2.47695C75.9796 2.83109 75.9159 3.18317 75.7841 3.51136C75.6523 3.83955 75.4553 4.13684 75.2052 4.3848C74.9491 4.64196 74.6436 4.84326 74.3076 4.97627C73.9716 5.10929 73.6122 5.17119 73.2516 5.15816C72.5348 5.17932 71.8386 4.91416 71.3136 4.42004Z" fill="white"/>
<path d="M75.3602 7.39368H71.1116V25.7587H75.3602V7.39368Z" fill="white"/>
<path d="M93.852 9.21696C95.2345 10.5699 95.9258 12.5758 95.9258 15.2347V25.7587H91.6772V15.7861C91.6772 14.1807 91.3029 12.971 90.5541 12.1571C89.8054 11.3433 88.7403 10.9363 87.359 10.9363C85.7954 10.9363 84.5608 11.412 83.6554 12.3632C82.75 13.3145 82.2961 14.6845 82.2938 16.4731V25.7587H78.0452V7.39895H82.0918V9.61156C82.7883 8.76245 83.6763 8.278 84.7419 7.84112C85.8905 7.39027 87.1144 7.16834 88.3463 7.18755C90.6377 7.18755 92.473 7.86402 93.852 9.21696Z" fill="white"/>
</svg>
