<svg width="20" height="17" viewBox="0 0 20 17" fill="none" xmlns="http://www.w3.org/2000/svg">
<path d="M18.3334 6.5H14.3417L10.6834 1.025C10.35 0.533333 9.62504 0.533333 9.30004 1.025L5.64171 6.5H1.66671C1.20837 6.5 0.833374 6.875 0.833374 7.33333C0.833374 7.40833 0.841707 7.48333 0.866707 7.55833L2.98337 15.2833C3.17504 15.9833 3.81671 16.5 4.58337 16.5H15.4167C16.1834 16.5 16.825 15.9833 17.025 15.2833L19.1417 7.55833L19.1667 7.33333C19.1667 6.875 18.7917 6.5 18.3334 6.5ZM9.99171 2.99167L12.3334 6.5H7.65004L9.99171 2.99167ZM10 13.1667C9.08337 13.1667 8.33337 12.4167 8.33337 11.5C8.33337 10.5833 9.08337 9.83333 10 9.83333C10.9167 9.83333 11.6667 10.5833 11.6667 11.5C11.6667 12.4167 10.9167 13.1667 10 13.1667Z" fill="#646464"/>
</svg>
