<svg width="18" height="18" viewBox="0 0 18 18" fill="none" xmlns="http://www.w3.org/2000/svg">
<path d="M15.6666 0.666687H2.33329C1.41663 0.666687 0.674959 1.41669 0.674959 2.33335L0.666626 17.3334L3.99996 14H15.6666C16.5833 14 17.3333 13.25 17.3333 12.3334V2.33335C17.3333 1.41669 16.5833 0.666687 15.6666 0.666687ZM13.1666 10.6667H4.83329C4.37496 10.6667 3.99996 10.2917 3.99996 9.83335C3.99996 9.37502 4.37496 9.00002 4.83329 9.00002H13.1666C13.625 9.00002 14 9.37502 14 9.83335C14 10.2917 13.625 10.6667 13.1666 10.6667ZM13.1666 8.16669H4.83329C4.37496 8.16669 3.99996 7.79169 3.99996 7.33335C3.99996 6.87502 4.37496 6.50002 4.83329 6.50002H13.1666C13.625 6.50002 14 6.87502 14 7.33335C14 7.79169 13.625 8.16669 13.1666 8.16669ZM13.1666 5.66669H4.83329C4.37496 5.66669 3.99996 5.29169 3.99996 4.83335C3.99996 4.37502 4.37496 4.00002 4.83329 4.00002H13.1666C13.625 4.00002 14 4.37502 14 4.83335C14 5.29169 13.625 5.66669 13.1666 5.66669Z" fill="#646464"/>
</svg>
