<svg width="18" height="18" viewBox="0 0 18 18" fill="none" xmlns="http://www.w3.org/2000/svg">
<path d="M15.6666 0.666687H2.33329C1.41663 0.666687 0.666626 1.41669 0.666626 2.33335V17.3334L3.99996 14H15.6666C16.5833 14 17.3333 13.25 17.3333 12.3334V2.33335C17.3333 1.41669 16.5833 0.666687 15.6666 0.666687ZM3.99996 10.6667V8.60835L9.73329 2.87502C9.89996 2.70835 10.1583 2.70835 10.325 2.87502L11.8 4.35002C11.9666 4.51669 11.9666 4.77502 11.8 4.94169L6.05829 10.6667H3.99996ZM13.1666 10.6667H7.74996L9.41663 9.00002H13.1666C13.625 9.00002 14 9.37502 14 9.83335C14 10.2917 13.625 10.6667 13.1666 10.6667Z" fill="#646464"/>
</svg>
