<svg width="30" height="28" viewBox="0 0 30 28" fill="none" xmlns="http://www.w3.org/2000/svg">
<path d="M14.2443 0.613853C14.4933 -0.102596 15.5066 -0.102597 15.7556 0.613851L18.7107 9.11518C18.8205 9.43124 19.1155 9.64554 19.45 9.65235L28.4484 9.83573C29.2068 9.85118 29.5199 10.8148 28.9154 11.2731L21.7434 16.7105C21.4767 16.9127 21.364 17.2594 21.4609 17.5797L24.0672 26.1944C24.2868 26.9204 23.4671 27.5159 22.8445 27.0827L15.4569 21.9419C15.1822 21.7508 14.8176 21.7508 14.543 21.9419L7.15534 27.0827C6.53275 27.5159 5.71303 26.9204 5.93267 26.1944L8.53894 17.5797C8.63583 17.2594 8.52317 16.9127 8.25653 16.7105L1.08445 11.2731C0.480023 10.8148 0.793126 9.85118 1.55147 9.83573L10.5499 9.65235C10.8844 9.64554 11.1794 9.43124 11.2892 9.11518L14.2443 0.613853Z" fill="#E3E3E3"/>
</svg>
